<svg id="图层_1" data-name="图层 1" xmlns="http://www.w3.org/2000/svg" viewBox="0 0 384 384"><defs><style>.cls-1{fill:#fefefe;}.cls-2{fill:#3778c5;}.cls-3{fill:#e0eefe;}.cls-4{fill:#b0cbdc;}.cls-5{fill:#d0e2f3;}.cls-6{fill:#427fc9;}.cls-7{fill:#4b94fe;}.cls-8{fill:#dfeefe;}.cls-9{fill:#bedaef;}.cls-10{fill:#c1dbfc;}.cls-11{fill:#3778c6;}.cls-12{fill:#3778c7;}</style></defs><title>cms</title><path class="cls-1" d="M592,592H208V208H592ZM332.24,559.11l-3,.74c-9.1.93-16,5.06-18.32,14.3-1.53,6-1.16,11.34,8.21,11.25,33.92-.33,67.85-.13,101.77-.13,20.45,0,40.9,0,61.36,0,3.36,0,5.73-1.34,6.27-4.51a16.8,16.8,0,0,0-.54-7.35c-2.66-8.88-9.34-12.67-18.09-13.61l-3-.73c-18.31-5.66-28.56-18.85-29.15-37.5H571.63c7.92,0,12.88-4.92,12.89-12.71q0-12.72,0-25.43l.08-.8c.06-1.37.16-2.73.16-4.1q0-123.9,0-247.8c0-11.17-4.56-15.68-15.83-15.68H230.23a26.68,26.68,0,0,0-5.22.23,17.18,17.18,0,0,0-5,1.9c-4.61,2.68-5.62,7.05-5.62,12.05q.08,125.4,0,250.8c0,.87.11,1.73.17,2.6l.08.8v24.68c0,8.84,4.68,13.46,13.64,13.46H361.39C360.79,540.27,350.54,553.46,332.24,559.11Z" transform="translate(-208 -208)"/><path class="cls-2" d="M214.56,482.67c-.06-.87-.17-1.73-.17-2.6q0-125.4,0-250.8c0-5,1-9.37,5.62-12.05a17.18,17.18,0,0,1,5-1.9,26.68,26.68,0,0,1,5.22-.23H569c11.27,0,15.83,4.51,15.83,15.68q0,123.9,0,247.8c0,1.37-.1,2.73-.16,4.1l-.83.61c-1.25,0-2.49.12-3.74.12H219.12c-1.24,0-2.49-.08-3.73-.12Zm120.75-25.43a27.29,27.29,0,0,0,4.35.68q59.86.06,119.73,0a20.09,20.09,0,0,0,3.86-.75l12.74.62h37.39l.67-.61.18.07a16.12,16.12,0,0,0,3.23.66c11.48.05,23,.08,34.44,0,5.22,0,7.18-2.28,7.18-7.82V248.69c0-6-1.84-7.9-7.72-7.9H247.77c-5.75,0-7.68,1.9-7.68,7.55q0,101.09,0,202.18c0,5.14,2.1,7.39,7.2,7.41,12.35,0,24.71,0,37.06-.05l.35,0,.34-.12h38.13Z" transform="translate(-208 -208)"/><path class="cls-3" d="M215.39,483.28c1.24,0,2.49.12,3.73.12H580c1.25,0,2.49-.08,3.74-.12l.75.19q0,12.7,0,25.43c0,7.79-5,12.71-12.89,12.71H228.28c-9,0-13.63-4.62-13.64-13.46V483.47Z" transform="translate(-208 -208)"/><path class="cls-3" d="M469.91,559.85c8.75.93,15.43,4.72,18.09,13.6a16.8,16.8,0,0,1,.54,7.35c-.54,3.17-2.91,4.52-6.27,4.51-20.46-.08-40.91,0-61.36,0-33.92,0-67.85-.2-101.77.13-9.37.09-9.74-5.25-8.21-11.25,2.36-9.24,9.22-13.37,18.32-14.31H467Z" transform="translate(-208 -208)"/><path class="cls-4" d="M467,559.83H332.19c0-.24,0-.48.05-.72,18.3-5.65,28.55-18.84,29.15-37.5h76.39c.59,18.65,10.84,31.84,29.15,37.5C467,559.35,467,559.59,467,559.83Z" transform="translate(-208 -208)"/><path class="cls-5" d="M332.24,559.11c0,.24,0,.48-.05.72h-2.94Z" transform="translate(-208 -208)"/><path class="cls-5" d="M467,559.83c0-.24,0-.48-.05-.72l3,.73Z" transform="translate(-208 -208)"/><path class="cls-6" d="M215.39,483.28l-.75.19c0-.27-.06-.53-.08-.8C214.83,482.88,215.11,483.08,215.39,483.28Z" transform="translate(-208 -208)"/><path class="cls-6" d="M584.53,483.47l-.75-.19.83-.61C584.58,482.94,584.56,483.2,584.53,483.47Z" transform="translate(-208 -208)"/><path class="cls-7" d="M284.35,457.88c-12.35,0-24.71.09-37.06.05-5.1,0-7.2-2.27-7.2-7.41q0-101.1,0-202.18c0-5.65,1.93-7.55,7.68-7.55H551.36c5.88,0,7.72,1.89,7.72,7.9V450.11c0,5.54-2,7.78-7.18,7.82-11.48.07-23,0-34.44,0a16.12,16.12,0,0,1-3.23-.66c0-2.12-.05-4.24,0-6.36,0-5.42-1.3-7.39-6.22-9.32-4.51-1.77-9-3.74-13.54-5.31-2.42-.83-3.41-2.4-4.26-4.61-2.67-6.92-5.62-13.73-8.26-20.65a6.9,6.9,0,0,1-.06-4.51c1.84-4.89,4-9.65,6-14.48,1.41-3.35,1.33-6.57-1.34-9.33-3.64-3.75-7.44-7.35-11-11.18-3.27-3.51-7-3.29-10.92-1.7-4.5,1.82-8.86,4-13.43,5.64a8.62,8.62,0,0,1-5.41-.33c-6.73-2.46-13.41-5.08-20-7.92a9,9,0,0,1-4.34-3.83c-2.3-4.82-4.06-9.9-6.09-14.86-1.39-3.4-3.65-5.34-7.67-5.17-5.73.23-11.47.1-17.21,0a6.25,6.25,0,0,0-6.52,4.46c-1.91,5-4.11,9.9-5.88,15-.85,2.42-2.37,3.33-4.62,4.2-7,2.66-13.72,5.76-20.66,8.47a7.25,7.25,0,0,1-4.78.05c-4.78-1.79-9.31-4.28-14.16-5.79-2.49-.77-6.37-1.13-8,.25a130.14,130.14,0,0,0-14.71,14.8c-1,1.17-1.07,4-.47,5.67,1.9,5.26,4.52,10.26,6.43,15.52a9.12,9.12,0,0,1-.32,5.82c-2.65,6.91-5.56,13.74-8.54,20.52a7.22,7.22,0,0,1-3,3.59c-5,2.27-10.25,3.92-15.16,6.32a9.8,9.8,0,0,0-4.82,5.08c-1,3.09-.66,6.59-.89,9.91A1.43,1.43,0,0,0,284.35,457.88Zm128-177.41q0,17.75,0,35.5c0,4.49,2.65,7.75,6.27,7.84s6.44-3.22,6.45-7.64q0-23.39,0-46.77a9.82,9.82,0,0,0-.65-3.61c-3.2-7.78-12.06-8.25-17.6-.94-2.38,3.13-4.63,6.35-7.11,9.75-3.34-4.28-6.17-8.37-9.49-12-2.83-3.12-6.6-3.84-10.57-2a8.9,8.9,0,0,0-5.46,8.61q-.06,23.76,0,47.51c0,3.91,2.85,7,6.25,7.08s6.38-3.15,6.45-7.27c.05-2.86,0-5.73,0-8.6V279.18c4,4.88,6.46,10.2,12.64,10.25S408.28,284.2,412.31,280.47Zm45.87-20.91a20.1,20.1,0,0,0-20.36,17.84c-1,8.3,5.57,17.61,14.24,19.92,1.77.48,3.73.26,5.52.7,2.91.72,5.35,2.14,5.64,5.58.26,3.06-.9,5.72-3.78,6.6s-5.76.58-7.88-2.52c-2.45-3.6-6.07-4-9.41-1.65-2.55,1.82-2.9,5.83-1,9.08,3.59,6.15,14.06,10.94,23,7.21,13.78-5.75,15.21-22.93,6.82-30.94-4.26-4.07-9.13-5.49-14.62-6.59-2.15-.43-4.66-3-5.41-5.14-.52-1.5,1.27-4.43,2.82-5.83,2-1.84,4.83-1.82,7.13.21,1.12,1,2.05,2.19,3.19,3.16a5.9,5.9,0,0,0,8.1,0c2.5-2.31,3.2-5.12,1.38-8.09A19.77,19.77,0,0,0,458.18,259.56Zm-135,31.88h.44c0,6.09-.89,12.35.21,18.24,1.63,8.68,10.67,14.49,18.82,14.09a19.57,19.57,0,0,0,18.71-18c.32-4.67-2.22-7.39-6.84-7.31-3.51.06-5.32,1.83-5.88,5.78-.65,4.57-2.84,6.47-7.22,6.26-3.63-.17-5.49-2.48-5.5-6.9,0-8.11,0-16.22,0-24.32,0-1.29.21-3.1,1-3.74,1.73-1.34,4-3,5.95-2.84,3.39.27,5.14,3.05,5.71,6.46.75,4.45,3.31,6.4,7.46,5.85,3.26-.44,5.58-3.75,5.23-7.47-1.05-11.43-9.76-18.13-23-17.16-7.41.54-15.85,8.41-15.18,18.74C323.41,283.2,323.18,287.33,323.18,291.44Zm-38.52,19.73H271.23c-3.56,0-5.14,2.24-5.61,5.31-.63,4.16,2.73,7.34,7.78,7.4,7.46.08,14.91,0,22.37,0a11.1,11.1,0,0,0,3.27-.55c3.3-1,5.26-4,4.64-7.09-.67-3.38-2.86-5.08-6.34-5.07C293.11,311.18,288.88,311.17,284.66,311.17ZM514.48,323.9v.26c4.82-.27,9.69-.21,14.43-.94a5.79,5.79,0,0,0,4.61-7c-.71-3.24-2.55-5.15-6.25-5.09-8.45.14-16.9,0-25.36.07-4.86,0-7.77,4.05-6.09,8.23,1.27,3.17,3.89,4.39,7.09,4.46C506.77,324,510.63,323.9,514.48,323.9Z" transform="translate(-208 -208)"/><path class="cls-8" d="M284.4,457.2c.23-3.32-.08-6.82.89-9.91a9.8,9.8,0,0,1,4.82-5.08c4.91-2.4,10.18-4,15.16-6.32a7.22,7.22,0,0,0,3-3.59c3-6.78,5.89-13.61,8.54-20.52a9.12,9.12,0,0,0,.32-5.82c-1.91-5.26-4.53-10.26-6.43-15.52-.6-1.67-.56-4.5.47-5.67A130.14,130.14,0,0,1,325.84,370c1.66-1.38,5.54-1,8-.25,4.85,1.51,9.38,4,14.16,5.79a7.25,7.25,0,0,0,4.78-.05c6.94-2.71,13.71-5.81,20.66-8.47,2.25-.87,3.77-1.78,4.62-4.2,1.77-5.05,4-9.94,5.88-15a6.25,6.25,0,0,1,6.52-4.46c5.74.06,11.48.19,17.21,0,4-.17,6.28,1.77,7.67,5.17,2,5,3.79,10,6.09,14.86a9,9,0,0,0,4.34,3.83c6.58,2.84,13.26,5.46,20,7.92a8.62,8.62,0,0,0,5.41.33c4.57-1.62,8.93-3.82,13.43-5.64,3.92-1.59,7.65-1.81,10.92,1.7,3.56,3.83,7.36,7.43,11,11.18,2.67,2.76,2.75,6,1.34,9.33-2,4.83-4.2,9.59-6,14.48a6.9,6.9,0,0,0,.06,4.51c2.64,6.92,5.59,13.73,8.26,20.65.85,2.21,1.84,3.78,4.26,4.61,4.58,1.57,9,3.54,13.54,5.31,4.92,1.93,6.24,3.9,6.22,9.32,0,2.12,0,4.24,0,6.36l-.18-.07-.67.61H476c-.25-3.71-.29-7.45-.79-11.12-3-22-14.17-39.09-32-51.75-14.38-10.24-30.6-14.57-48.45-13.48-13.17.8-25.32,4.46-36.1,11.62-23,15.28-35.39,36.73-35.52,64.73H285C284.82,457.6,284.61,457.4,284.4,457.2Z" transform="translate(-208 -208)"/><path class="cls-7" d="M463.25,457.17a20.09,20.09,0,0,1-3.86.75q-59.86.06-119.73,0a27.29,27.29,0,0,1-4.35-.68c1.2-6.52,1.61-13.32,3.72-19.53,12.45-36.54,51.51-53.37,86.22-38.18C449.84,410.3,462.24,430.27,463.25,457.17Z" transform="translate(-208 -208)"/><path class="cls-9" d="M463.25,457.17c-1-26.9-13.41-46.87-38-57.64-34.71-15.19-73.77,1.64-86.22,38.18-2.11,6.21-2.52,13-3.72,19.53l-12.14.55c.13-28,12.54-49.45,35.52-64.73,10.78-7.16,22.93-10.82,36.1-11.62,17.85-1.09,34.07,3.24,48.45,13.48,17.79,12.66,29,29.77,32,51.75.5,3.67.54,7.41.79,11.12Z" transform="translate(-208 -208)"/><path class="cls-10" d="M284.4,457.2c.21.2.42.4.64.59l-.34.12-.35,0A1.43,1.43,0,0,1,284.4,457.2Z" transform="translate(-208 -208)"/><path class="cls-10" d="M513.38,457.8l.67-.61Z" transform="translate(-208 -208)"/><path class="cls-11" d="M412.31,280.47c-4,3.73-6.54,9-12.82,9s-8.65-5.37-12.64-10.25v28.75c0,2.87,0,5.74,0,8.6-.07,4.12-3,7.35-6.45,7.27s-6.24-3.17-6.25-7.08q-.06-23.75,0-47.51a8.9,8.9,0,0,1,5.46-8.61c4-1.85,7.74-1.13,10.57,2,3.32,3.64,6.15,7.73,9.49,12,2.48-3.4,4.73-6.62,7.11-9.75,5.54-7.31,14.4-6.84,17.6.94a9.82,9.82,0,0,1,.65,3.61q.06,23.39,0,46.77c0,4.42-2.84,7.72-6.45,7.64s-6.27-3.35-6.27-7.84Q412.29,298.22,412.31,280.47Z" transform="translate(-208 -208)"/><path class="cls-11" d="M458.18,259.56a19.77,19.77,0,0,1,15.36,9.5c1.82,3,1.12,5.78-1.38,8.09a5.9,5.9,0,0,1-8.1,0c-1.14-1-2.07-2.17-3.19-3.16-2.3-2-5.1-2-7.13-.21-1.55,1.4-3.34,4.33-2.82,5.83.75,2.14,3.26,4.71,5.41,5.14,5.49,1.1,10.36,2.52,14.62,6.59,8.39,8,7,25.19-6.82,30.94-8.93,3.73-19.4-1.06-23-7.21-1.89-3.25-1.54-7.26,1-9.08,3.34-2.37,7-1.95,9.41,1.65,2.12,3.1,5,3.39,7.88,2.52s4-3.54,3.78-6.6c-.29-3.44-2.73-4.86-5.64-5.58-1.79-.44-3.75-.22-5.52-.7-8.67-2.31-15.26-11.62-14.24-19.92A20.1,20.1,0,0,1,458.18,259.56Z" transform="translate(-208 -208)"/><path class="cls-11" d="M323.18,291.44c0-4.11.23-8.24,0-12.34-.67-10.33,7.77-18.2,15.18-18.74,13.27-1,22,5.73,23,17.16.35,3.72-2,7-5.23,7.47-4.15.55-6.71-1.4-7.46-5.85-.57-3.41-2.32-6.19-5.71-6.46-1.93-.14-4.22,1.5-5.95,2.84-.83.64-1,2.45-1,3.74-.08,8.1,0,16.21,0,24.32,0,4.42,1.87,6.73,5.5,6.9,4.38.21,6.57-1.69,7.22-6.26.56-4,2.37-5.72,5.88-5.78,4.62-.08,7.16,2.64,6.84,7.31a19.57,19.57,0,0,1-18.71,18c-8.15.4-17.19-5.41-18.82-14.09-1.1-5.89-.21-12.15-.21-18.24Z" transform="translate(-208 -208)"/><path class="cls-11" d="M284.66,311.17c4.22,0,8.45,0,12.68,0,3.48,0,5.67,1.69,6.34,5.07.62,3.13-1.34,6-4.64,7.09a11.1,11.1,0,0,1-3.27.55c-7.46.05-14.91.09-22.37,0-5-.06-8.41-3.24-7.78-7.4.47-3.07,2.05-5.32,5.61-5.31Z" transform="translate(-208 -208)"/><path class="cls-12" d="M514.48,323.9c-3.85,0-7.71.06-11.56,0-3.2-.07-5.82-1.29-7.09-4.46-1.68-4.18,1.23-8.19,6.09-8.23,8.46-.08,16.91.07,25.36-.07,3.7-.06,5.54,1.85,6.25,5.09a5.79,5.79,0,0,1-4.61,7c-4.74.73-9.61.67-14.43.94Z" transform="translate(-208 -208)"/></svg>