<?xml version="1.0" encoding="utf-8"?>

<svg version="1.1" id="图层_1" xmlns="http://www.w3.org/2000/svg" xmlns:xlink="http://www.w3.org/1999/xlink" x="0px" y="0px"
	 viewBox="0 0 384 384" style="enable-background:new 0 0 384 384;" xml:space="preserve">
<style type="text/css">
	.st0{fill:#3778C5;}
	.st1{fill:#E0EEFE;}
	.st2{fill:#B0CBDC;}
	.st3{fill:#D0E2F3;}
	.st4{fill:#427FC9;}
	.st5{fill:#4B94FE;}
	.st6{fill:#DFEEFE;}
	.st7{fill:#BEDAEF;}
	.st8{fill:#C1DBFC;}
	.st9{fill:#3778C6;}
	.st10{fill:#3778C7;}
</style>
<g>
	<path class="st0" d="M0.5,277.3c-0.1-0.9-0.2-1.8-0.2-2.7c0-86.5,0-173,0-259.6c0-5.2,1-9.7,5.8-12.5c1.6-0.9,3.4-1.6,5.2-2
		c1.8-0.3,3.6-0.3,5.4-0.2h350.6c11.7,0,16.4,4.7,16.4,16.2c0,85.5,0,171,0,256.5c0,1.4-0.1,2.8-0.2,4.2l-0.9,0.6
		c-1.3,0-2.6,0.1-3.9,0.1H5.2c-1.3,0-2.6-0.1-3.9-0.1L0.5,277.3z M125.5,251c1.5,0.4,3,0.6,4.5,0.7c41.3,0,82.6,0,123.9,0
		c1.4-0.1,2.7-0.4,4-0.8l13.2,0.6h38.7l0.7-0.6l0.2,0.1c1.1,0.3,2.2,0.6,3.3,0.7c11.9,0.1,23.8,0.1,35.6,0c5.4,0,7.4-2.4,7.4-8.1
		V35.1c0-6.2-1.9-8.2-8-8.2H34.9c-6,0-7.9,2-7.9,7.8c0,69.7,0,139.5,0,209.2c0,5.3,2.2,7.6,7.5,7.7c12.8,0,25.6,0,38.4-0.1h0.4
		l0.4-0.1h39.5L125.5,251z"/>
	<path class="st1" d="M1.3,277.9c1.3,0,2.6,0.1,3.9,0.1h373.5c1.3,0,2.6-0.1,3.9-0.1l0.8,0.2c0,8.8,0,17.5,0,26.3
		c0,8.1-5.2,13.2-13.3,13.2H14.7c-9.3,0-14.1-4.8-14.1-13.9v-25.5L1.3,277.9z"/>
	<path class="st1" d="M264.8,357.2c9.1,1,16,4.9,18.7,14.1c0.7,2.5,0.9,5.1,0.6,7.6c-0.6,3.3-3,4.7-6.5,4.7c-21.2-0.1-42.3,0-63.5,0
		c-35.1,0-70.2-0.2-105.3,0.1c-9.7,0.1-10.1-5.4-8.5-11.6c2.4-9.6,9.5-13.8,19-14.8h142.6L264.8,357.2z"/>
	<path class="st2" d="M261.7,357.2H122.2c0-0.2,0-0.5,0.1-0.7c18.9-5.8,29.5-19.5,30.2-38.8h79.1c0.6,19.3,11.2,33,30.2,38.8
		C261.7,356.7,261.7,356.9,261.7,357.2z"/>
	<path class="st3" d="M122.3,356.4c0,0.2,0,0.5-0.1,0.7h-3L122.3,356.4z"/>
	<path class="st3" d="M261.7,357.2c0-0.2,0-0.5-0.1-0.7l3.1,0.8L261.7,357.2z"/>
	<path class="st4" d="M1.3,277.9l-0.8,0.2c0-0.3-0.1-0.5-0.1-0.8C0.8,277.5,1.1,277.7,1.3,277.9z"/>
	<path class="st4" d="M383.4,278.1l-0.8-0.2l0.9-0.6C383.4,277.6,383.4,277.9,383.4,278.1z"/>
	<path class="st5" d="M72.7,251.6c-12.8,0-25.6,0.1-38.4,0.1c-5.3,0-7.5-2.3-7.5-7.7c0-69.8,0-139.5,0-209.2c0-5.8,2-7.8,7.9-7.8
		h314.2c6.1,0,8,2,8,8.2v208.5c0,5.7-2.1,8.1-7.4,8.1c-11.9,0.1-23.8,0-35.6,0c-1.1-0.1-2.3-0.3-3.3-0.7c0-2.2-0.1-4.4,0-6.6
		c0-5.6-1.3-7.6-6.4-9.6c-4.7-1.8-9.3-3.9-14-5.5c-2.5-0.9-3.5-2.5-4.4-4.8c-2.8-7.2-5.8-14.2-8.5-21.4c-0.5-1.5-0.6-3.1-0.1-4.7
		c1.9-5.1,4.1-10,6.2-15c1.5-3.5,1.4-6.8-1.4-9.7c-3.8-3.9-7.7-7.6-11.4-11.6c-3.4-3.6-7.2-3.4-11.3-1.8c-4.7,1.9-9.2,4.1-13.9,5.8
		c-1.9,0.5-3.8,0.4-5.6-0.3c-7-2.5-13.9-5.3-20.7-8.2c-1.9-0.8-3.5-2.2-4.5-4c-2.4-5-4.2-10.2-6.3-15.4c-1.4-3.5-3.8-5.5-7.9-5.4
		c-5.9,0.2-11.9,0.1-17.8,0c-3.1-0.3-5.9,1.7-6.7,4.6c-2,5.2-4.3,10.2-6.1,15.5c-0.9,2.5-2.5,3.4-4.8,4.3c-7.2,2.8-14.2,6-21.4,8.8
		c-1.6,0.6-3.3,0.6-4.9,0.1c-4.9-1.9-9.6-4.4-14.7-6c-2.6-0.8-6.6-1.2-8.3,0.3c-5.5,4.7-10.6,9.8-15.2,15.3c-1,1.2-1.1,4.1-0.5,5.9
		c2,5.4,4.7,10.6,6.7,16.1c0.6,2,0.4,4.1-0.3,6c-2.7,7.2-5.8,14.2-8.8,21.2c-0.6,1.5-1.7,2.9-3.1,3.7c-5.2,2.3-10.6,4.1-15.7,6.5
		c-2.3,1.1-4,3-5,5.3c-1,3.2-0.7,6.8-0.9,10.3C72.7,251.2,72.7,251.4,72.7,251.6z M205.2,68c0,12.2,0,24.5,0,36.7
		c0,4.6,2.7,8,6.5,8.1c3.7,0.1,6.7-3.3,6.7-7.9c0-16.1,0-32.3,0-48.4c0-1.3-0.2-2.5-0.7-3.7c-3.3-8.1-12.5-8.5-18.2-1
		c-2.5,3.2-4.8,6.6-7.4,10.1c-3.5-4.4-6.4-8.7-9.8-12.4c-2.9-3.2-6.8-4-10.9-2.1c-3.6,1.5-5.8,5-5.7,8.9c0,16.4,0,32.8,0,49.2
		c0,4,2.9,7.2,6.5,7.3c3.5,0.1,6.6-3.3,6.7-7.5c0.1-3,0-5.9,0-8.9V66.7c4.1,5.1,6.7,10.6,13.1,10.6C198.3,77.4,201,71.9,205.2,68
		L205.2,68z M252.7,46.4c-10.7-0.2-19.9,7.8-21.1,18.5c-1,8.6,5.8,18.2,14.7,20.6c1.8,0.5,3.9,0.3,5.7,0.7c3,0.7,5.5,2.2,5.8,5.8
		c0.3,3.2-0.9,5.9-3.9,6.8c-3,0.9-6,0.6-8.2-2.6c-2.5-3.7-6.3-4.1-9.7-1.7c-2.6,1.9-3,6-1,9.4c3.7,6.4,14.6,11.3,23.8,7.5
		c14.3-6,15.7-23.7,7.1-32c-4.4-4.2-9.4-5.7-15.1-6.8c-2.2-0.4-4.8-3.1-5.6-5.3c-0.5-1.6,1.3-4.6,2.9-6c2.1-1.9,5-1.9,7.4,0.2
		c1.2,1,2.1,2.3,3.3,3.3c2.4,2.2,6,2.2,8.4,0c2.6-2.4,3.3-5.3,1.4-8.4C265.2,50.6,259.2,46.9,252.7,46.4L252.7,46.4z M112.9,79.4
		h0.5c0,6.3-0.9,12.8,0.2,18.9c1.7,9,11,15,19.5,14.6c10.2-0.4,18.6-8.4,19.4-18.6c0.3-4.8-2.3-7.6-7.1-7.6c-3.6,0.1-5.5,1.9-6.1,6
		c-0.7,4.7-2.9,6.7-7.5,6.5c-3.8-0.2-5.7-2.6-5.7-7.1c0-8.4,0-16.8,0-25.2c0-1.3,0.2-3.2,1-3.9c1.8-1.4,4.1-3.1,6.2-2.9
		c3.5,0.3,5.3,3.2,5.9,6.7c0.8,4.6,3.4,6.6,7.7,6.1c3.4-0.5,5.8-3.9,5.4-7.7c-1.1-11.8-10.1-18.8-23.8-17.8
		c-7.7,0.6-16.4,8.7-15.7,19.4C113.1,70.9,112.9,75.1,112.9,79.4L112.9,79.4z M73.1,99.8H59.1c-3.7,0-5.3,2.3-5.8,5.5
		c-0.7,4.3,2.8,7.6,8.1,7.7c7.7,0.1,15.4,0,23.2,0c1.2,0,2.3-0.2,3.4-0.6c3.4-1,5.4-4.1,4.8-7.3c-0.7-3.5-3-5.3-6.6-5.2
		C81.8,99.8,77.4,99.8,73.1,99.8L73.1,99.8z M310.9,113v0.3c5-0.3,10-0.2,14.9-1c3.3-0.6,5.4-3.7,4.8-7c0-0.1,0-0.2-0.1-0.3
		c-0.7-3.4-2.6-5.3-6.5-5.3c-8.7,0.1-17.5,0-26.2,0.1c-5,0-8,4.2-6.3,8.5c1.3,3.3,4,4.5,7.3,4.6C302.9,113.1,306.9,113,310.9,113z"
		/>
	<path class="st6" d="M72.8,250.9c0.2-3.4-0.1-7.1,0.9-10.3c1-2.3,2.7-4.2,5-5.3c5.1-2.5,10.5-4.1,15.7-6.5c1.4-0.9,2.5-2.2,3.1-3.7
		c3.1-7,6.1-14.1,8.8-21.2c0.8-1.9,0.9-4,0.3-6c-2-5.4-4.7-10.6-6.7-16.1c-0.6-1.7-0.6-4.7,0.5-5.9c4.6-5.5,9.7-10.6,15.2-15.3
		c1.7-1.4,5.7-1,8.3-0.3c5,1.6,9.7,4.1,14.7,6c1.6,0.5,3.4,0.5,4.9-0.1c7.2-2.8,14.2-6,21.4-8.8c2.3-0.9,3.9-1.8,4.8-4.3
		c1.8-5.2,4.1-10.3,6.1-15.5c0.9-2.9,3.7-4.9,6.7-4.6c5.9,0.1,11.9,0.2,17.8,0c4.1-0.2,6.5,1.8,7.9,5.4c2.1,5.2,3.9,10.3,6.3,15.4
		c1,1.8,2.6,3.2,4.5,4c6.8,2.9,13.7,5.7,20.7,8.2c1.8,0.7,3.7,0.8,5.6,0.3c4.7-1.7,9.2-4,13.9-5.8c4.1-1.6,7.9-1.9,11.3,1.8
		c3.7,4,7.6,7.7,11.4,11.6c2.8,2.9,2.8,6.2,1.4,9.7c-2.1,5-4.3,9.9-6.2,15c-0.5,1.5-0.5,3.2,0.1,4.7c2.7,7.2,5.8,14.2,8.5,21.4
		c0.9,2.3,1.9,3.9,4.4,4.8c4.7,1.6,9.3,3.7,14,5.5c5.1,2,6.5,4,6.4,9.6c0,2.2,0,4.4,0,6.6l-0.2-0.1l-0.7,0.6h-38.7
		c-0.3-3.8-0.3-7.7-0.8-11.5c-3.1-22.8-14.7-40.5-33.1-53.6c-14.9-10.6-31.7-15.1-50.1-14c-13.6,0.8-26.2,4.6-37.4,12
		c-23.8,15.8-36.6,38-36.8,67H73.4C73.2,251.4,73,251.2,72.8,250.9z"/>
	<path class="st5" d="M257.9,250.9c-1.3,0.4-2.6,0.6-4,0.8c-41.3,0-82.6,0-123.9,0c-1.5-0.1-3-0.3-4.5-0.7
		c1.2-6.7,1.7-13.8,3.9-20.2c12.9-37.8,53.3-55.2,89.2-39.5C244,202.4,256.8,223.1,257.9,250.9z"/>
	<path class="st7" d="M257.9,250.9c-1-27.8-13.9-48.5-39.3-59.7c-35.9-15.7-76.3,1.7-89.2,39.5c-2.2,6.4-2.6,13.5-3.9,20.2
		l-12.6,0.6c0.1-29,13-51.2,36.8-67c11.2-7.4,23.7-11.2,37.4-12c18.5-1.1,35.3,3.4,50.1,14c18.4,13.1,30,30.8,33.1,53.6
		c0.5,3.8,0.6,7.7,0.8,11.5L257.9,250.9z"/>
	<path class="st8" d="M72.8,250.9c0.2,0.2,0.4,0.4,0.7,0.6l-0.4,0.1h-0.4C72.7,251.4,72.7,251.2,72.8,250.9z"/>
	<path class="st8" d="M309.7,251.6l0.7-0.6L309.7,251.6z"/>
	<path class="st9" d="M205.1,68c-4.1,3.9-6.8,9.3-13.3,9.3c-6.5,0-9-5.6-13.1-10.6v29.8c0,3,0,5.9,0,8.9c-0.1,4.3-3.1,7.6-6.7,7.5
		c-3.6-0.1-6.5-3.3-6.5-7.3c0-16.4,0-32.8,0-49.2c-0.2-3.9,2.1-7.4,5.7-8.9c4.1-1.9,8-1.2,10.9,2.1c3.4,3.8,6.4,8,9.8,12.4
		c2.6-3.5,4.9-6.9,7.4-10.1c5.7-7.6,14.9-7.1,18.2,1c0.5,1.2,0.7,2.5,0.7,3.7c0,16.1,0,32.3,0,48.4c0,4.6-2.9,8-6.7,7.9
		c-3.7-0.1-6.5-3.5-6.5-8.1C205.1,92.5,205.1,80.3,205.1,68z"/>
	<path class="st9" d="M252.6,46.4c6.6,0.5,12.5,4.2,15.9,9.8c1.9,3.1,1.2,6-1.4,8.4c-2.4,2.2-6,2.2-8.4,0c-1.2-1-2.1-2.2-3.3-3.3
		c-2.4-2.1-5.3-2.1-7.4-0.2c-1.6,1.4-3.5,4.5-2.9,6c0.8,2.2,3.4,4.9,5.6,5.3c5.7,1.1,10.7,2.6,15.1,6.8c8.7,8.3,7.2,26.1-7.1,32
		c-9.2,3.9-20.1-1.1-23.8-7.5c-2-3.4-1.6-7.5,1-9.4c3.5-2.5,7.2-2,9.7,1.7c2.2,3.2,5.2,3.5,8.2,2.6c3-0.9,4.1-3.7,3.9-6.8
		c-0.3-3.6-2.8-5-5.8-5.8c-1.9-0.5-3.9-0.2-5.7-0.7c-9-2.4-15.8-12-14.7-20.6C232.8,54.2,241.9,46.2,252.6,46.4z"/>
	<path class="st9" d="M112.9,79.4c0-4.3,0.2-8.5,0-12.8c-0.7-10.7,8-18.8,15.7-19.4c13.7-1,22.8,5.9,23.8,17.8
		c0.4,3.9-2.1,7.2-5.4,7.7c-4.3,0.6-6.9-1.4-7.7-6.1c-0.6-3.5-2.4-6.4-5.9-6.7c-2-0.1-4.4,1.6-6.2,2.9c-0.9,0.7-1,2.5-1,3.9
		c-0.1,8.4,0,16.8,0,25.2c0,4.6,1.9,7,5.7,7.1c4.5,0.2,6.8-1.7,7.5-6.5c0.6-4.1,2.5-5.9,6.1-6c4.8-0.1,7.4,2.7,7.1,7.6
		c-0.8,10.2-9.1,18.2-19.4,18.6c-8.4,0.4-17.8-5.6-19.5-14.6c-1.1-6.1-0.2-12.6-0.2-18.9L112.9,79.4z"/>
	<path class="st9" d="M73,99.8c4.4,0,8.7,0,13.1,0c3.6,0,5.9,1.7,6.6,5.2c0.6,3.2-1.4,6.2-4.8,7.3c-1.1,0.4-2.2,0.6-3.4,0.6
		c-7.7,0.1-15.4,0.1-23.2,0c-5.2-0.1-8.7-3.4-8.1-7.7c0.5-3.2,2.1-5.5,5.8-5.5H73z"/>
	<path class="st10" d="M310.9,113c-4,0-8,0.1-12,0c-3.3-0.1-6-1.3-7.3-4.6c-1.7-4.3,1.3-8.5,6.3-8.5c8.8-0.1,17.5,0.1,26.2-0.1
		c3.8-0.1,5.7,1.9,6.5,5.3c0.7,3.2-1.3,6.4-4.5,7.2c-0.1,0-0.2,0-0.3,0.1c-4.9,0.8-9.9,0.7-14.9,1L310.9,113z"/>
</g>
</svg>
