<?xml version="1.0" encoding="utf-8"?>
<!-- Generator: Adobe Illustrator 26.3.1, SVG Export Plug-In . SVG Version: 6.00 Build 0)  -->
<svg version="1.1" id="图层_1" xmlns="http://www.w3.org/2000/svg" xmlns:xlink="http://www.w3.org/1999/xlink" x="0px" y="0px"
	 viewBox="0 0 256 256" style="enable-background:new 0 0 256 256;" xml:space="preserve">
<style type="text/css">
	.st0{fill-rule:evenodd;clip-rule:evenodd;fill:#4972F1;}
	.st1{fill-rule:evenodd;clip-rule:evenodd;fill:#FFFFFF;}
	.st2{fill-rule:evenodd;clip-rule:evenodd;fill:#293D4F;}
</style>
<g>
	<path class="st0" d="M190.6,46.8c15.5,17.5,25,41.6,25,68.1c0,1.5,0,1.6-0.1,3.1c0,65,12.1,82.6,25.7,98
		c9.7,10.9,1.6,33.5-18.9,23.6C180.1,219,171.7,254.7,128,256c-43.9,1.2-53.3-36.9-94.3-16.4C13.3,249.8,5.1,227,14.8,216
		c13.6-15.2,26.4-32.6,26.6-96.2c-0.1-2,0-2.7,0-4.9c0-25.9,9.1-49.4,23.9-66.8c-1.5-1.7-3.1-4-4.6-6.6c-0.1-0.2-0.2-0.5-0.4-0.7
		c-1.4-2.4-2.7-5-4.1-7.7c-1.2-2.7-2.4-5.6-3.4-8.5c-0.1-0.4-0.2-0.7-0.4-1.1c-0.6-1.9-1.1-3.7-1.5-5.5c-2-8.4-1.6-15.6,3.2-17.6
		c2.7-1.1,6.1,2.1,10,7c0.1,0.1,0.2,0.4,0.5,0.5C64.8,8,65,8.1,65.1,8.3c2.5,3.2,5.4,7,8.4,10.5c0.2,0.2,0.5,0.5,0.7,0.7
		c0.1,0.1,0.2,0.2,0.4,0.5c3.6,4.1,7.7,7.7,12.1,9.5c12.4-7.6,26.6-11.9,41.7-11.9c14.7,0,28.6,4.1,40.9,11.4
		c3.9-1.9,7.5-5.2,10.9-9c0.1-0.1,0.2-0.2,0.4-0.5c0.2-0.2,0.5-0.5,0.7-0.7c3-3.5,5.9-7.4,8.4-10.5c0.1-0.2,0.4-0.5,0.5-0.6
		c0.1-0.2,0.2-0.4,0.5-0.5c3.9-4.9,7.2-8.1,10-7c4.9,2,5.2,9.2,3.2,17.6c-0.4,1.7-1,3.6-1.5,5.5c-0.1,0.4-0.2,0.7-0.4,1.1
		c-1,2.9-2.1,5.7-3.4,8.5s-2.6,5.5-4.1,7.7c-0.1,0.2-0.2,0.5-0.4,0.7C193,43.5,191.7,45.3,190.6,46.8z"/>
	<path class="st1" d="M179.6,108.8c0,28.5-23,51.6-51.5,51.6c-15.1,0-28.7-6.5-38.1-16.9c-8.4-9.1-13.4-21.4-13.4-34.6
		c0-28.5,23.1-51.5,51.5-51.5c18.6,0,34.9,9.9,43.9,24.6l0,0C176.8,89.8,179.6,98.9,179.6,108.8z"/>
	<path class="st2" d="M175.5,101.3c0,14.4-11.6,26.1-26.1,26.1s-26.1-11.6-26.1-26.1c0-14.4,11.6-26.1,26.1-26.1
		C163.8,75.2,175.5,86.9,175.5,101.3z"/>
</g>
</svg>
