<?xml version="1.0" encoding="utf-8"?>
<!-- Generator: Adobe Illustrator 26.3.1, SVG Export Plug-In . SVG Version: 6.00 Build 0)  -->
<svg version="1.1" id="图层_1" xmlns="http://www.w3.org/2000/svg" xmlns:xlink="http://www.w3.org/1999/xlink" x="0px" y="0px"
	 viewBox="0 0 256 256" style="enable-background:new 0 0 256 256;" xml:space="preserve">
<style type="text/css">
	.st0{fill-rule:evenodd;clip-rule:evenodd;fill:#FFFFFF;}
	.st1{fill-rule:evenodd;clip-rule:evenodd;fill:#4972F1;}
	.st2{fill-rule:evenodd;clip-rule:evenodd;fill:#293D4F;}
</style>
<g>
	<rect class="st0" width="256" height="256"/>
	<g>
		<path class="st1" d="M178,63.1c12.4,14,20,33.3,20,54.5c0,1.2,0,1.3-0.1,2.5c0,52,9.7,66.1,20.6,78.4c7.8,8.7,1.3,26.8-15.1,18.9
			c-33.8-16.5-40.5,12.1-75.5,13.1c-35.1,1-42.7-29.5-75.5-13.1c-16.3,8.2-22.9-10.1-15.1-18.9c10.9-12.2,21.1-26.1,21.3-77
			c-0.1-1.6,0-2.2,0-3.9c0-20.7,7.3-39.5,19.1-53.5c-1.2-1.4-2.5-3.2-3.7-5.3c-0.1-0.2-0.2-0.4-0.3-0.6c-1.1-1.9-2.2-4-3.3-6.2
			c-1-2.2-1.9-4.5-2.7-6.8c-0.1-0.3-0.2-0.6-0.3-0.9c-0.5-1.5-0.9-3-1.2-4.4c-1.6-6.7-1.3-12.5,2.6-14.1c2.2-0.9,4.9,1.7,8,5.6
			c0.1,0.1,0.2,0.3,0.4,0.4c0.1,0.2,0.3,0.3,0.4,0.5c2,2.6,4.3,5.6,6.7,8.4c0.2,0.2,0.4,0.4,0.6,0.6c0.1,0.1,0.2,0.2,0.3,0.4
			c2.9,3.3,6.2,6.2,9.7,7.6c9.9-6.1,21.3-9.5,33.4-9.5c11.8,0,22.9,3.3,32.7,9.1c3.1-1.5,6-4.2,8.7-7.2c0.1-0.1,0.2-0.2,0.3-0.4
			c0.2-0.2,0.4-0.4,0.6-0.6c2.4-2.8,4.7-5.9,6.7-8.4c0.1-0.2,0.3-0.4,0.4-0.5c0.1-0.2,0.2-0.3,0.4-0.4c3.1-3.9,5.8-6.5,8-5.6
			c3.9,1.6,4.2,7.4,2.6,14.1c-0.3,1.4-0.8,2.9-1.2,4.4c-0.1,0.3-0.2,0.6-0.3,0.9c-0.8,2.3-1.7,4.6-2.7,6.8c-1,2.2-2.1,4.4-3.3,6.2
			c-0.1,0.2-0.2,0.4-0.3,0.6C179.9,60.4,178.9,61.9,178,63.1z"/>
		<path class="st0" d="M169.2,112.7c0,22.8-18.4,41.3-41.2,41.3c-12.1,0-23-5.2-30.5-13.5c-6.7-7.3-10.7-17.1-10.7-27.7
			c0-22.8,18.5-41.2,41.2-41.2c14.9,0,27.9,7.9,35.1,19.7c0,0,0,0,0,0C167,97.5,169.2,104.8,169.2,112.7z"/>
		<path class="st2" d="M165.9,106.7c0,11.5-9.3,20.9-20.9,20.9s-20.9-9.3-20.9-20.9c0-11.5,9.3-20.9,20.9-20.9
			S165.9,95.2,165.9,106.7z"/>
	</g>
</g>
</svg>
