<?xml version="1.0" encoding="utf-8"?>
<!-- Generator: Adobe Illustrator 26.3.1, SVG Export Plug-In . SVG Version: 6.00 Build 0)  -->
<svg version="1.1" id="图层_1" xmlns="http://www.w3.org/2000/svg" xmlns:xlink="http://www.w3.org/1999/xlink" x="0px" y="0px"
	 viewBox="0 0 409.6 409.6" style="enable-background:new 0 0 409.6 409.6;" xml:space="preserve">
<style type="text/css">
	.st0{fill:#FEB60D;}
	.st1{fill:#52A5D7;}
	.st2{fill:#70B4E7;}
	.st3{fill:#666666;}
	.st4{fill:#52A4D7;}
	.st5{fill:#535454;}
	.st6{fill:#F2A405;}
	.st7{fill:#F8F7F4;}
	.st8{fill:#F8F7F3;}
	.st9{fill:#3194C6;}
	.st10{fill:#F8B614;}
	.st11{fill:#F3F5F7;}
	.st12{fill:#82C5ED;}
	.st13{fill:#F2F5F7;}
	.st14{fill:#F1F5F7;}
	.st15{fill:#F4F6F8;}
	.st16{fill:#83C6EE;}
	.st17{fill:#F6F7F8;}
	.st18{fill:#7D7E7E;}
	.st19{fill:#F9B410;}
	.st20{fill:#F34B47;}
	.st21{fill:#90B322;}
	.st22{fill:#FFFFFF;}
</style>
<g>
	<path class="st0" d="M409.3,334.2c-2.8,5.6-7.4,7.4-13.6,7.3c-22.6-0.2-45.1,0-67.7,0c-1.2,0-2.4-0.1-3.6-0.1H140.2
		c-1.6,0-3.2-0.1-4.8-0.1c-5.9-3-7.2-8.2-7.2-14.2c0.1-19.2,0.1-38.5,0-57.7c0-6,1.2-11.3,7.2-14.2c0.5,0,1-0.1,1.6-0.1l186.2,0
		c1.6,0,3.2-0.1,4.8-0.1c22.6,0.1,45.2,0.3,67.8,0c6.2-0.1,10.8,1.7,13.5,7.4L409.3,334.2z M174.7,327.8c2.6-0.1,4.5-1.9,5.6-4.8
		c5.5-15.1,11.1-30.2,16.5-45.3c1.4-4,0-7.4-3.3-8.7c-3.5-1.4-6.8,0.3-8.4,4.6c-1.5,3.7-2.7,7.5-4.1,11.2
		c-4.1,11.2-8.2,22.5-12.2,33.7C166.9,323.5,169.4,327.7,174.7,327.8z M150.8,296.8c3.9-3.7,7.5-6.9,10.8-10.3
		c3.1-3.1,3.2-6.5,0.7-9.2s-6.3-2.5-9.5,0.6c-4.6,4.4-9.1,9-13.5,13.5c-3.7,3.8-3.7,6.8,0,10.7c4.3,4.5,8.8,8.9,13.3,13.2
		c3.5,3.4,7.1,3.6,9.8,0.8s2.3-6.1-1.1-9.5C158,303.6,154.7,300.5,150.8,296.8L150.8,296.8z M215.9,296.8c-4,3.8-7.4,6.9-10.6,10.1
		c-3.4,3.4-3.6,6.7-1,9.5c2.6,2.7,6.2,2.5,9.5-0.6c4.6-4.4,9.1-8.9,13.5-13.5c3.7-3.8,3.7-6.9-0.1-10.7c-4.4-4.5-8.8-8.9-13.2-13.2
		c-3.4-3.3-6.8-3.6-9.5-1.1c-2.9,2.7-2.7,6.2,0.8,9.8C208.6,290.1,212,293.1,215.9,296.8L215.9,296.8z"/>
	<path class="st1" d="M327.9,133.7l53.1,0.2c4.7,0,9.3,0.3,14-0.1c6.3-0.5,11.2,1.4,14.3,7.1v72.7c-3.2,6-8.5,7.2-14.8,7
		c-10.5-0.2-21-0.1-31.5,0c-11.7,0-23.4,0.1-35.1,0.2c-7.8,0-15.7,0-23.5,0l-169.8,0c-7.4-5.9-6.4-14.1-6.3-22.1
		c0-15.7,0.2-31.4-0.1-47.1c-0.1-7.1,0.6-13.5,7.2-17.7h4L327.9,133.7z M307.8,198.3c12.6,0,25.3,0,37.9,0c1.6,0,3.6,0.2,4.6-0.7
		c1.7-1.4,3.9-3.5,3.8-5.3c0-2-2.1-4.2-3.7-5.8c-0.7-0.8-2.5-0.7-3.8-0.7c-25.9,0-51.9,0-77.8,0c-1.3,0-3.1,0-3.8,0.8
		c-1.5,1.6-3.5,3.7-3.4,5.6s2,4.1,3.6,5.4c1.1,0.9,3.3,0.7,5,0.7C282.8,198.3,295.3,198.3,307.8,198.3z M225,156.2h-37.9
		c-3,0-6,0.9-6.6,3.9c-0.4,2.4,0.2,4.8,1.6,6.7c1.2,1.4,4.1,1.8,6.2,1.8c24.3,0.1,48.7,0.1,73,0c1.6,0,3.6,0.1,4.6-0.8
		c1.7-1.4,3.8-3.5,3.9-5.4s-1.9-4.2-3.5-5.6c-1.1-0.9-3.3-0.8-5-0.9C249.2,156.1,237.1,156.2,225,156.2z M356.9,156.2
		c-6,0-12,0-18,0c-4.6,0-7.1,2.2-7.2,6.2s2.2,6.4,6.8,6.5c12,0.2,24,0.2,35.9,0c4.3,0,7.4-3,7.3-6.4s-3.4-6.3-7.8-6.3
		C368.3,156.1,362.7,156.1,356.9,156.2L356.9,156.2z M302.1,156.2c-3.6,0-7.2-0.1-10.8,0c-4.1,0.1-6.9,2.7-7,6.2
		c-0.1,3.3,2.5,6.1,6.4,6.3c7.7,0.2,15.4,0.2,23.1,0c3.3,0.1,6-2.4,6.1-5.7c0-0.3,0-0.5,0-0.8c-0.1-3.5-2.6-5.8-6.7-5.9
		C309.5,156.1,305.8,156.2,302.1,156.2L302.1,156.2z M232.6,198.4c3.5,0,6.9,0.1,10.4,0c5-0.1,7.4-2.3,7.5-6.3s-2.4-6.3-7.3-6.4
		c-6.9-0.1-13.8-0.1-20.7,0c-4.6,0.1-7.1,2.4-7.2,6.2c0,4,2.5,6.3,7.4,6.4C225.9,198.5,229.3,198.4,232.6,198.4L232.6,198.4z
		 M148.1,168.8c2.3,0,4.7-0.2,7-0.5c3.3-0.5,5.1-2.8,5-6.1s-2-5.5-5.1-5.7c-4.8-0.4-9.5-0.4-14.3,0c-3.1,0.2-5,2.7-5,5.8
		c-0.3,3.1,2,5.8,5.1,6.1C143.2,168.7,145.6,168.7,148.1,168.8L148.1,168.8z M191,185.8c-2.1-0.1-4.2-0.1-6.4,0
		c-3.5,0.4-6.2,3.3-5.9,6.4c0.4,3.5,2.5,5.7,5.9,6c4.2,0.3,8.5,0.3,12.8,0c3.3-0.3,5.7-2.2,5.9-5.9c0.2-3.3-2.1-5.9-5.9-6.4
		C195.2,185.7,193.1,185.7,191,185.8L191,185.8z M147.8,198.7v-0.3c2,0.1,4,0.1,6-0.1c3.1-0.5,5.9-1.8,6.4-5.5s-1.5-6.3-4.8-6.6
		c-5.1-0.5-10.2-0.4-15.3,0.4c-1.7,0.3-4,3.5-4,5.4s2.2,4.5,4.1,5.5C142.2,198.6,145.2,198.4,147.8,198.7z M382,191.9
		c-0.2-3.3-2.9-5.9-6.2-6.1c-3.5,0.1-6.2,3-6.2,6.5c0.3,3.3,3.1,5.8,6.4,5.9C379.2,198,381.8,195.3,382,191.9z"/>
	<path class="st2" d="M327.9,220.8c0,11.3,0,22.7,0,34.1c-1.6,0.1-3.2,0.1-4.8,0.1l-186.2,0c-0.5,0-1.1,0.1-1.6,0.1
		c-7,0-14.1-0.2-21.1-0.1c-6.3,0.1-10.3,4.1-10.6,10.5c-0.1,2.1,0,4.3,0,6.4c0,19.1,0.1,38.3-0.1,57.5c-0.1,6.2,4,12.7,12,12.2
		c6.6-0.4,13.3-0.2,19.9-0.2c1.6,0,3.2,0.1,4.8,0.1h184.2c1.2,0,2.4,0.1,3.6,0.1c0,4.1,0,8.2,0,12.4c0.1,13.2-10.4,23.9-23.5,24.2
		c-1.3,0-2.6,0-4,0H46.7c-0.8,0-1.6-0.1-2.4-0.1c-14.6-5.3-19.3-16.1-19.3-31c0.3-83.3,0.1-166.5,0.1-249.8c1.9-0.1,3.7-0.2,5.6-0.2
		h297l0.1,36.7l-188.6,0.1h-4c-6.6,0-13.3,0-19.9,0c-7.2,0-11.9,4.6-11.9,12c-0.1,21-0.1,41.9,0,62.9c0,7.4,4.6,12,11.9,12
		c6.4,0.1,12.7,0,19.1,0l169.8,0C312.2,220.8,320,220.8,327.9,220.8z M42.6,288.7c-2,0-4-0.1-6,0c-3.6,0.2-6.4,2.6-6.5,5.7
		c0,3.5,1.8,6.1,5.3,6.4c4.7,0.4,9.5,0.4,14.2,0c3.5-0.3,5.4-2.9,5.1-6.4s-2.6-5.4-6.1-5.6C46.6,288.6,44.6,288.7,42.6,288.7z
		 M42.4,331.2c2.4-0.1,4.7-0.4,7.1-0.8c3.2-0.8,5.5-2.7,5.3-6.4s-3.1-5.3-6.2-5.6c-4.1-0.4-8.2-0.4-12.3,0c-3.2,0.2-5.8,2.7-6,5.9
		c-0.2,3.2,1.9,5.5,5.1,6.1C37.7,330.9,40,330.9,42.4,331.2z M42.6,170.4c-2.1,0-4.3-0.1-6.4,0c-3.2,0-5.8,2.5-6.1,5.7
		c-0.2,3.2,2.2,6,5.4,6.3c4.6,0.3,9.3,0.3,13.9,0c3.1-0.3,5.5-3,5.2-6.2c0-0.1,0-0.2,0-0.2c-0.4-3.3-2.3-5.3-5.7-5.5
		C46.8,170.3,44.7,170.4,42.6,170.4L42.6,170.4z M42.6,241.6L42.6,241.6c2.1,0,4.2,0.1,6.4,0c3.4-0.2,5.4-2.2,5.8-5.4
		c0.4-3.1-1.8-6-4.9-6.4c-0.1,0-0.2,0-0.3,0c-4.8-0.3-9.5-0.3-14.3,0c-3.4,0.3-5.1,3-5,6.2s2,5.5,5.5,5.6
		C38,241.7,40.3,241.6,42.6,241.6L42.6,241.6z M42.6,212c2.1,0,4.2,0.1,6.4,0c3.3-0.3,5.7-3.2,5.5-6.5c-0.2-2.8-2.4-5.1-5.2-5.4
		c-4.4-0.1-8.8-0.1-13.1,0c-3.2,0-5.9,2.6-5.9,5.8c-0.1,3.3,2.4,5.9,6.1,6.1C38.3,212.1,40.4,212,42.6,212L42.6,212z M42.2,152.9
		c2.1,0,4.3,0.1,6.4,0c3.4,0,6.1-2.7,6.2-6.1c0-0.1,0-0.2,0-0.4c-0.1-3.2-2.7-5.5-6.4-5.5c-4,0-8,0-12,0c-3.3-0.1-6.1,2.4-6.3,5.7
		c0,0,0,0,0,0.1c-0.1,3,2.8,6,6.1,6.2C38.2,153,40.2,152.9,42.2,152.9L42.2,152.9z M42.2,271.1c2.1,0,4.2,0,6.4,0
		c3.4-0.1,6-2.4,6.2-5.4c0.3-3.3-2.2-6.3-5.5-6.5c-0.2,0-0.3,0-0.5,0c-4.2-0.2-8.5-0.1-12.7,0c-2.9,0.1-5.9,3.3-5.9,6
		c0,3.3,2.8,6,6.1,5.9c0,0,0,0,0.1,0C38.2,271.1,40.2,271.1,42.2,271.1L42.2,271.1z"/>
	<path class="st3" d="M327.8,97h-297c-1.9,0-3.7,0.1-5.6,0.2v-0.3c0-12.6-0.2-25.2,0-37.8c0.2-11.8,4-21.8,17.5-26.2
		c0.4-0.1,0.5-0.8,0.8-1.3c18.3,0,36.7-0.1,55-0.1c67.7,0,135.3,0,203,0.1c13.2,0,22.4,6.6,25.6,18.4c0.3,0.9,0.5,1.8,0.5,2.7
		C327.8,67.5,327.8,82.3,327.8,97z M177.8,70.7h67.8c1.9,0.1,3.7,0.1,5.6-0.1c2.9-0.5,5.3-1.9,5.6-5.2c0.4-3.4-0.7-6.1-4.4-6.9
		c-1.4-0.3-2.9-0.5-4.3-0.6c-46.9,0-93.8,0-140.8,0c-1.9,0-4.3,0.1-5.7,1.1c-1.7,1.2-3.5,3.6-3.5,5.4c0,1.8,2,4.1,3.7,5.3
		c1.3,1,3.5,0.8,5.4,0.9C130.7,70.7,154.2,70.7,177.8,70.7z M285.3,70.7c3.7,0,7.5,0,11.2,0c4.5,0,7-2,7.4-5.6
		c0.4-3.6-1.5-6.5-6.1-6.8c-8.4-0.5-16.7-0.5-25.1-0.1c-3.4,0.1-6.1,2.9-6,6.3c0,0.1,0,0.3,0,0.4c0.6,3.4,3.5,5.9,7,5.8
		C277.5,70.8,281.4,70.7,285.3,70.7z M63.4,64.3c-0.1-3.3-2.8-6-6.2-6.1c-3.3,0.2-6,2.8-6.2,6.1c0.1,3.5,2.9,6.3,6.4,6.3
		C60.8,70.4,63.4,67.6,63.4,64.3z M36.4,58.1c-3.5,0-6.2,2.9-6.2,6.3c0,3.3,2.6,6,5.9,6.2c3.4-0.1,6.2-2.8,6.4-6.3
		C42.6,61.4,39.4,58.1,36.4,58.1L36.4,58.1z M72.2,64.1c-0.2,3.4,2.3,6.3,5.7,6.5c0.1,0,0.2,0,0.2,0c3.5,0,6.3-2.8,6.3-6.3
		c0-3.5-2.8-6.3-6.3-6.3C75.2,57.9,72.3,60.8,72.2,64.1L72.2,64.1z"/>
	<path class="st4" d="M25.2,97.2c0,83.3,0.2,166.5-0.1,249.8c0,14.9,4.7,25.8,19.3,31c-6.9,0-13.8,0.2-20.7,0
		c-12.4-0.4-22.4-10.2-23.1-22.6c-0.1-1.1-0.1-2.1-0.1-3.2c0-83.9,0-167.8,0-251.7c0-1.2,0.1-2.4,0.1-3.6l24.6-0.1L25.2,97.2z"/>
	<path class="st5" d="M25.2,96.9L0.6,97c0-14.5-0.7-29,0.1-43.4c0.6-11.2,8-21.3,24.1-22c6.2-0.2,12.5,0,18.7,0
		c-0.3,0.4-0.4,1.1-0.8,1.3c-13.5,4.4-17.3,14.4-17.5,26.2C25.1,71.7,25.2,84.3,25.2,96.9z"/>
	<path class="st6" d="M135.4,341.3c-6.6,0-13.3-0.2-19.9,0.2c-8,0.5-12-6-12-12.2c0.2-19.2,0.1-38.3,0.1-57.5c0-2.1-0.1-4.3,0-6.4
		c0.3-6.3,4.3-10.4,10.6-10.5c7-0.1,14.1,0.1,21.1,0.1c-6,2.9-7.2,8.2-7.2,14.2c0,19.2,0.1,38.5,0,57.7
		C128.2,333.1,129.5,338.3,135.4,341.3z"/>
	<path class="st7" d="M174.7,327.8c-5.2-0.1-7.7-4.3-5.9-9.3c4-11.3,8.1-22.5,12.2-33.7c1.4-3.8,2.6-7.5,4.1-11.2
		c1.6-4.2,4.9-5.9,8.4-4.6c3.3,1.3,4.7,4.7,3.3,8.7c-5.4,15.1-11,30.2-16.5,45.3C179.1,325.9,177.3,327.7,174.7,327.8z"/>
	<path class="st8" d="M150.8,296.8c3.9,3.7,7.3,6.7,10.5,9.9c3.4,3.4,3.7,6.7,1.1,9.5c-2.6,2.8-6.4,2.6-9.8-0.8
		c-4.5-4.3-8.9-8.8-13.3-13.2c-3.7-3.9-3.7-6.9,0-10.7c4.5-4.6,9-9.1,13.5-13.5c3.2-3.1,7-3.3,9.5-0.6s2.4,6-0.7,9.2
		C158.3,290,154.7,293.2,150.8,296.8z"/>
	<path class="st8" d="M215.9,296.8c-3.9-3.6-7.3-6.6-10.5-9.8c-3.5-3.5-3.7-7-0.8-9.8c2.7-2.6,6.1-2.2,9.5,1.1
		c4.5,4.4,8.9,8.8,13.2,13.2c3.8,3.8,3.8,6.9,0.1,10.7c-4.4,4.6-8.9,9.1-13.5,13.5c-3.3,3.1-6.9,3.3-9.5,0.6s-2.4-6.1,1-9.5
		C208.5,303.6,211.9,300.6,215.9,296.8z"/>
	<path class="st9" d="M134.5,220.7c-6.4,0-12.7,0.1-19.1,0c-7.3-0.1-11.9-4.7-11.9-12c-0.1-21-0.1-41.9,0-62.9c0-7.3,4.7-12,11.9-12
		c6.6,0,13.3,0,19.9,0c-6.6,4.2-7.3,10.6-7.2,17.7c0.3,15.7,0.1,31.4,0.1,47.1C128.2,206.6,127.1,214.9,134.5,220.7z"/>
	<path class="st10" d="M307.8,198.3c-12.5,0-25,0-37.5,0c-1.7,0-3.9,0.2-5-0.7c-1.7-1.3-3.6-3.5-3.6-5.4s1.9-4,3.4-5.6
		c0.7-0.8,2.5-0.8,3.8-0.8c25.9,0,51.9,0,77.8,0c1.3,0,3.1-0.1,3.8,0.7c1.6,1.7,3.6,3.9,3.7,5.8c0,1.8-2.1,3.9-3.8,5.3
		c-1,0.8-3,0.7-4.6,0.7C333.1,198.3,320.5,198.3,307.8,198.3z"/>
	<path class="st11" d="M225,156.2c12.1,0,24.2,0,36.3,0c1.7,0,3.9-0.1,5,0.9c1.7,1.4,3.6,3.7,3.5,5.6s-2.2,4-3.9,5.4
		c-1,0.9-3,0.8-4.6,0.8c-24.3,0-48.7,0.1-73,0c-2.1,0-5-0.4-6.2-1.8c-1.4-1.9-2-4.4-1.6-6.7c0.6-3,3.6-4,6.6-3.9L225,156.2z"/>
	<path class="st12" d="M356.9,156.1c5.7,0,11.4,0,17.2,0c4.4,0,7.8,2.8,7.8,6.3s-3.1,6.3-7.3,6.4c-12,0.1-24,0.1-35.9,0
		c-4.6-0.1-6.9-2.5-6.8-6.5s2.6-6.1,7.2-6.2C344.9,156.1,350.9,156.1,356.9,156.1z"/>
	<path class="st11" d="M302.1,156.2c3.7,0,7.4-0.1,11.1,0c4.1,0.1,6.6,2.4,6.7,5.9c0.3,3.2-2,6.1-5.2,6.5c-0.3,0-0.5,0-0.8,0
		c-7.7,0.3-15.4,0.3-23.1,0c-3.9-0.1-6.5-3-6.4-6.3c0.1-3.5,2.9-6,7-6.2C294.9,156.1,298.5,156.2,302.1,156.2z"/>
	<path class="st12" d="M232.6,198.4c-3.3,0-6.6,0.1-9.9,0c-4.9-0.1-7.5-2.5-7.4-6.4c0-3.8,2.5-6.1,7.2-6.2c6.9-0.1,13.8-0.1,20.7,0
		c4.9,0.1,7.3,2.4,7.3,6.4s-2.5,6.1-7.5,6.3C239.5,198.5,236,198.4,232.6,198.4z"/>
	<path class="st10" d="M148.1,168.8c-2.5-0.1-4.9-0.1-7.2-0.5c-3.1-0.3-5.4-3-5.1-6.1c0.1-3.1,1.9-5.5,5-5.8c4.8-0.4,9.5-0.4,14.3,0
		c3.1,0.2,5,2.5,5.1,5.7s-1.7,5.6-5,6.1C152.8,168.6,150.4,168.8,148.1,168.8z"/>
	<path class="st13" d="M191,185.8c2.1-0.1,4.3-0.1,6.4,0c3.7,0.5,6,3.1,5.9,6.4c-0.2,3.7-2.6,5.6-5.9,5.9c-4.2,0.3-8.5,0.3-12.8,0
		c-3.5-0.2-5.6-2.5-5.9-6c-0.3-3,2.4-6,5.9-6.4C186.7,185.7,188.8,185.7,191,185.8z"/>
	<path class="st12" d="M147.8,198.7c-2.6-0.3-5.5-0.1-7.7-1.2c-1.9-1-4.1-3.6-4.1-5.5s2.3-5.1,4-5.4c5.1-0.8,10.2-0.9,15.3-0.4
		c3.3,0.3,5.3,2.9,4.8,6.6s-3.2,5-6.4,5.5c-2,0.2-4,0.2-6,0.1L147.8,198.7z"/>
	<path class="st14" d="M382,191.9c-0.2,3.3-2.7,6-6,6.3c-3.3-0.1-6.1-2.6-6.4-5.9c0-3.5,2.7-6.4,6.2-6.5
		C379.1,186,381.7,188.6,382,191.9z"/>
	<path class="st15" d="M42.6,288.7c2,0,4-0.1,5.9,0c3.5,0.3,5.8,2.1,6.1,5.6s-1.6,6.1-5.1,6.4c-4.7,0.4-9.5,0.4-14.2,0
		c-3.5-0.3-5.3-2.9-5.3-6.4c0-3.1,2.9-5.5,6.5-5.7C38.7,288.6,40.7,288.7,42.6,288.7z"/>
	<path class="st16" d="M42.4,331.2c-2.4-0.3-4.8-0.3-7.1-0.8c-3.2-0.7-5.4-3-5.1-6.1c0.2-3.2,2.8-5.8,6-5.9c4.1-0.4,8.2-0.4,12.3,0
		c3.1,0.3,5.9,1.8,6.2,5.6s-2.1,5.6-5.3,6.4C47.1,330.8,44.7,331.1,42.4,331.2z"/>
	<path class="st17" d="M42.6,170.4c2.1,0,4.2-0.1,6.4,0c3.4,0.2,5.4,2.2,5.7,5.5c0.4,3.1-1.8,6-5,6.4c-0.1,0-0.2,0-0.2,0
		c-4.6,0.3-9.3,0.3-13.9,0c-3.2-0.3-5.6-3.1-5.4-6.3c0.2-3.2,2.9-5.6,6.1-5.7C38.3,170.3,40.4,170.4,42.6,170.4z"/>
	<path class="st17" d="M42.5,241.6c-2.3,0-4.5,0.1-6.8,0c-3.5-0.2-5.4-2.5-5.5-5.6s1.6-5.9,5-6.2c4.8-0.3,9.5-0.3,14.3,0
		c3.1,0.3,5.5,3,5.2,6.2c0,0.1,0,0.2,0,0.3c-0.4,3.3-2.3,5.3-5.8,5.4C46.8,241.8,44.7,241.7,42.5,241.6L42.5,241.6z"/>
	<path class="st16" d="M42.6,212c-2.1,0-4.3,0.1-6.4,0c-3.7-0.2-6.2-2.8-6.1-6.1c0-3.2,2.7-5.8,5.9-5.8c4.4-0.1,8.8-0.1,13.1,0
		c3.3,0.4,5.6,3.4,5.2,6.7c-0.4,2.8-2.6,5-5.4,5.2C46.8,212.1,44.7,212,42.6,212z"/>
	<path class="st16" d="M42.2,152.9c-2,0-4,0.1-6,0c-3.3-0.2-6.2-3.1-6.1-6.2c0.1-3.3,2.9-5.9,6.2-5.8c0,0,0,0,0.1,0c4,0,8,0,12,0
		c3.7,0,6.4,2.4,6.4,5.5c0.2,3.4-2.4,6.2-5.8,6.4c-0.1,0-0.2,0-0.4,0C46.4,153,44.3,152.9,42.2,152.9z"/>
	<path class="st16" d="M42.2,271.1c-2,0-4,0-6,0c-3.3,0.1-6.1-2.6-6.1-5.9c0,0,0,0,0-0.1c0-2.7,3-5.9,5.9-6c4.2-0.1,8.5-0.2,12.7,0
		c3.3,0,6,2.8,6,6.1c0,0.2,0,0.3,0,0.5c-0.1,3-2.8,5.3-6.2,5.4C46.4,271.1,44.3,271.1,42.2,271.1z"/>
	<path class="st18" d="M177.8,70.7c-23.5,0-47.1,0-70.6,0c-1.8,0-4.1,0.1-5.4-0.9c-1.7-1.2-3.6-3.5-3.7-5.3c0-1.8,1.8-4.2,3.5-5.4
		c1.4-1.1,3.8-1.1,5.7-1.1c46.9-0.1,93.9-0.1,140.8,0c1.4,0,2.9,0.2,4.3,0.6c3.7,0.8,4.8,3.4,4.4,6.9c-0.4,3.5-2.7,4.7-5.6,5.2
		c-1.9,0.2-3.7,0.2-5.6,0.1L177.8,70.7z"/>
	<path class="st18" d="M285.3,70.7c-3.9,0-7.7,0.1-11.6,0c-3.5,0-6.4-2.4-7-5.8c-0.3-3.4,2.2-6.3,5.6-6.6c0.1,0,0.3,0,0.4,0
		c8.4-0.4,16.7-0.4,25.1,0.1c4.6,0.3,6.5,3.1,6.1,6.8c-0.4,3.7-3,5.6-7.4,5.6C292.7,70.7,289,70.7,285.3,70.7z"/>
	<path class="st19" d="M63.4,64.3c-0.1,3.3-2.7,6.1-6,6.3c-3.5,0-6.3-2.8-6.4-6.3c0.2-3.3,2.9-5.9,6.2-6.1
		C60.6,58.3,63.3,61,63.4,64.3z"/>
	<path class="st20" d="M36.5,58.1c2.9,0.1,6.1,3.3,6.1,6.3c-0.2,3.4-3,6.2-6.4,6.3c-3.5-0.2-6.1-3.2-5.9-6.6
		C30.4,60.7,33.1,58.1,36.5,58.1L36.5,58.1z"/>
	<path class="st21" d="M72.2,64.1c0.1-3.3,2.9-6.2,6-6.1c3.5,0.2,6.2,3.1,6,6.6c-0.2,3.3-2.8,5.9-6.1,6c-3.4-0.1-6-3-5.9-6.3
		C72.2,64.2,72.2,64.2,72.2,64.1z"/>
	<path class="st22" d="M249.7,281.8h5.4v20.4h12.4l-0.6,4.4h-17.1V281.8z"/>
	<path class="st22" d="M275.2,281.8v14.8c0,4.8,2.5,6.2,5.1,6.2c3.1,0,5-1.7,5-6.2v-14.8h5.4v14.5c0,8.5-5,10.6-10.4,10.6
		s-10.4-2.2-10.4-10.5v-14.6H275.2z"/>
	<path class="st22" d="M300.6,300.9l-1.9,5.7h-5.3l8.4-24.8h6.7l8.8,24.8h-5.6l-2-5.7H300.6z M308.5,296.5
		c-1.8-5.2-2.9-8.6-3.5-10.8l0,0c-0.6,2.4-1.9,6.3-3.3,10.8H308.5z"/>
	<path class="st22" d="M328.1,294.8h3.5c2.4,0,4.1,0.8,4.1,2.9c0,1.2-0.8,2.3-2,2.6v0.1c1.7,0.3,2.7,1.2,2.7,2.8
		c0,2.3-1.8,3.5-4.5,3.5h-3.8L328.1,294.8z M331.4,299.7c1.8,0,2.6-0.6,2.6-1.8s-0.8-1.6-2.5-1.6h-1.5v3.4H331.4z M331.7,305.2
		c1.9,0,2.9-0.6,2.9-2.1s-1-1.9-2.9-1.9h-1.8v4L331.7,305.2z"/>
	<path class="st22" d="M338.6,303.3v-5.5h1.8v5.2c0,1.5,0.5,2.2,1.8,2.2c1-0.1,1.9-0.6,2.5-1.5v-6h1.8v8.8H345l-0.1-1.5h-0.1
		c-0.7,1-1.9,1.6-3.2,1.7C339.5,306.8,338.6,305.6,338.6,303.3z"/>
	<path class="st22" d="M353.6,299.3h-3.9v-1.4h5.7v8.8h-1.8L353.6,299.3z M353,294.8c0-0.7,0.5-1.4,1.3-1.4c0.7,0,1.4,0.5,1.4,1.3
		c0,0.7-0.5,1.4-1.3,1.4c0,0-0.1,0-0.1,0c-0.7,0-1.3-0.5-1.3-1.1C353,294.9,353,294.9,353,294.8L353,294.8z"/>
	<path class="st22" d="M363.1,303.5v-8.2h-3v-1.4h4.8v9.8c-0.1,0.8,0.5,1.6,1.3,1.7c0.1,0,0.2,0,0.4,0c0.5,0,1.1-0.1,1.6-0.4
		l0.4,1.3c-0.8,0.3-1.6,0.5-2.4,0.5C364.2,306.8,363.1,305.6,363.1,303.5z"/>
	<path class="st22" d="M370.7,302.2c0-2.9,1.9-4.6,3.9-4.6c1,0,1.9,0.4,2.5,1.1l0,0l-0.1-1.5v-3.3h1.8v12.8h-1.5l-0.1-1.1h-0.1
		c-0.7,0.8-1.7,1.2-2.8,1.3C372.2,306.8,370.7,305.2,370.7,302.2z M377.1,304.2V300c-0.5-0.6-1.3-0.9-2.1-0.9
		c-1.4,0-2.5,1.2-2.5,3.1s0.9,3.1,2.3,3.1C375.7,305.3,376.6,304.9,377.1,304.2L377.1,304.2z"/>
	<path class="st22" d="M381.7,302.2c-0.1-2.5,1.8-4.5,4.3-4.6c0.1,0,0.2,0,0.2,0c2.1-0.1,3.9,1.5,4,3.6c0,0.2,0,0.4,0,0.6
		c0,0.3,0,0.7-0.1,1h-7.2v-1.3h6.1l-0.4,0.4c0-1.9-0.9-2.9-2.4-2.9s-2.8,1.1-2.8,3.2c-0.1,1.7,1.1,3.1,2.8,3.2c0.2,0,0.3,0,0.5,0
		c0.9,0,1.8-0.3,2.6-0.8l0.6,1.1c-1,0.7-2.2,1-3.4,1c-2.5,0.1-4.6-1.7-4.7-4.2C381.6,302.5,381.6,302.4,381.7,302.2z"/>
	<path class="st22" d="M393.7,297.8h1.5l0.2,2l0,0c0.8-1.4,2.3-2.2,3.9-2.2c0.6,0,1.2,0.1,1.7,0.4l-0.4,1.5
		c-0.5-0.2-1.1-0.3-1.6-0.3c-1.3,0-2.5,0.6-3.5,2.4v5h-1.8L393.7,297.8z"/>
</g>
</svg>
