<?xml version="1.0" encoding="utf-8"?>
<!-- Generator: Adobe Illustrator 26.3.1, SVG Export Plug-In . SVG Version: 6.00 Build 0)  -->
<svg version="1.1" id="图层_1" xmlns="http://www.w3.org/2000/svg" xmlns:xlink="http://www.w3.org/1999/xlink" x="0px" y="0px"
	 viewBox="0 0 256 256" style="enable-background:new 0 0 256 256;" xml:space="preserve">
<style type="text/css">
	.st0{fill:#FF4785;}
	.st1{filter:url(#Adobe_OpacityMaskFilter);}
	.st2{fill-rule:evenodd;clip-rule:evenodd;fill:#FFFFFF;}
	.st3{mask:url(#mask-2_00000144309584447297904290000008110433539213468071_);fill:#FFFFFF;}
</style>
<g>
	<path class="st0" d="M230.6,12.2c-0.4-7.1-6.5-12.5-13.6-12l-14.1,0.9l1,29.5c0,1.1-0.8,1.9-1.8,2c-0.5,0-0.9-0.1-1.3-0.4l-9.5-7.5
		L180,33.2c-0.8,0.6-2,0.5-2.7-0.4c-0.3-0.4-0.4-0.8-0.4-1.2l1.2-29L37.4,11.4c-7,0.4-12.3,6.3-12,13.3l7.9,211.1
		c0.3,6.7,5.6,12.1,12.3,12.4l171.6,7.7c0.2,0,0.4,0,0.6,0c7.1,0,12.9-5.8,12.9-12.9V13C230.6,12.7,230.6,12.5,230.6,12.2z"/>
	<defs>
		<filter id="Adobe_OpacityMaskFilter" filterUnits="userSpaceOnUse" x="78.2" y="43.7" width="107.5" height="163.7">
			<feColorMatrix  type="matrix" values="1 0 0 0 0  0 1 0 0 0  0 0 1 0 0  0 0 0 1 0"/>
		</filter>
	</defs>
	
		<mask maskUnits="userSpaceOnUse" x="78.2" y="43.7" width="107.5" height="163.7" id="mask-2_00000144309584447297904290000008110433539213468071_">
		<g class="st1">
			<path id="path-1_00000095311343181776899360000002883318192296734391_" class="st2" d="M33.3,235.8L25.4,24.7
				c-0.3-7,5.1-12.9,12-13.3L217,0.2c7.1-0.4,13.2,4.9,13.6,12c0,0.3,0,0.5,0,0.8v230c0,7.1-5.8,12.9-12.9,12.9c-0.2,0-0.4,0-0.6,0
				l-171.6-7.7C38.9,247.8,33.6,242.5,33.3,235.8z"/>
		</g>
	</mask>
	<path id="path9_fill-path" class="st3" d="M145.4,96.5c0,5,33.7,2.6,38.2-0.9c0-34.1-18.3-52-51.7-52S79.7,61.8,79.7,89.1
		c0,47.5,64.1,48.4,64.1,74.3c0,7.3-3.6,11.6-11.4,11.6c-10.2,0-14.2-5.2-13.8-22.9c0-3.8-38.9-5-40.1,0
		c-3,42.9,23.7,55.3,54.4,55.3c29.7,0,52.9-15.8,52.9-44.4c0-50.9-65-49.5-65-74.8c0-10.2,7.6-11.6,12.1-11.6
		C137.6,76.6,146.1,77.4,145.4,96.5z"/>
</g>
</svg>
