<svg fill="#1976d2" viewBox="0 0 44 44" xmlns="http://www.w3.org/2000/svg" fill-rule="evenodd" clip-rule="evenodd" stroke-linejoin="round" stroke-miterlimit="2" filter="">
<path
    d="M33.23,39.13a1.14,1.14,0,1,1,0-2.27,1.49,1.49,0,0,0,1.46-1.51,1.14,1.14,0,0,1,2.27,0,3.77,3.77,0,0,1-3.73,3.78ZM33.2,23c1.39,1.69,3.19,4,4.67,5.94L38,29c2.26,2.95,3.08,7.53.15,10.56a6.72,6.72,0,0,1-9.74,0c-2.64-2.74-2.58-7,.17-10.58l.95-1.25c1.22-1.61,2.58-3.4,3.7-4.79Zm0-2.8a1.29,1.29,0,0,0-1,.48c-1.52,1.8-3.76,4.78-5.44,7-3.29,4.31-3.59,9.81,0,13.52a9,9,0,0,0,13,0c3.58-3.71,3.18-9.41,0-13.52-1.77-2.26-4.06-5.23-5.56-7a1.31,1.31,0,0,0-1-.49Zm0,0"
/>
<path
    d="M11.41,11.92a13.71,13.71,0,0,0,9.67-4,1.86,1.86,0,0,0,.31-.26A11.74,11.74,0,0,1,29.9,4a12,12,0,0,1,10.38,6.21,2,2,0,1,0,3.46-2A16,16,0,0,0,29.9,0,15.64,15.64,0,0,0,18.82,4.61a1.83,1.83,0,0,0-.32.26,9.74,9.74,0,0,1-7.09,3.07A9.89,9.89,0,0,1,3.56,4,2,2,0,1,0,.41,6.4,13.78,13.78,0,0,0,11.41,11.92Z"
/>
<path
    d="M43.74,18.93A16,16,0,0,0,29.9,10.7a15.63,15.63,0,0,0-11.08,4.6,2.44,2.44,0,0,0-.32.26,9.74,9.74,0,0,1-7.09,3.07,9.86,9.86,0,0,1-7.85-4A2,2,0,1,0,.41,17.09a13.78,13.78,0,0,0,11,5.52,13.58,13.58,0,0,0,8-2.59c.28-.2.57-.41.84-.64s.58-.5.85-.77a1.53,1.53,0,0,0,.31-.26,11.73,11.73,0,0,1,8.51-3.67,11.92,11.92,0,0,1,9.37,4.7,12.4,12.4,0,0,1,1,1.51,2,2,0,0,0,1.2.94,2,2,0,0,0,2.44-2.45A1.77,1.77,0,0,0,43.74,18.93Z"
/>
<path
    d="M18.5,26.26a9.74,9.74,0,0,1-7.09,3.07,9.89,9.89,0,0,1-7.85-4A2,2,0,1,0,.41,27.79a13.67,13.67,0,0,0,19,2.93V25.48c-.19.17-.39.33-.57.52A1.59,1.59,0,0,0,18.5,26.26Z"
/>
<path
    d="M18.5,37A9.74,9.74,0,0,1,11.41,40a9.86,9.86,0,0,1-7.85-4,2,2,0,0,0-2.78-.37,2,2,0,0,0-.37,2.8,13.8,13.8,0,0,0,11,5.51,13.65,13.65,0,0,0,8-2.59V36.18c-.19.17-.39.33-.57.51A2.44,2.44,0,0,0,18.5,37Z"
/>
</svg>
