<svg version="1.1" xmlns="http://www.w3.org/2000/svg" xmlns:xlink="http://www.w3.org/1999/xlink" x="0px" y="0px"
    viewBox="0 0 300 300" style="enable-background:new 0 0 300 300;" xml:space="preserve">
    <path style="fill-rule:evenodd;clip-rule:evenodd;fill:#1976D2;" d="M215.537,137.928c12.072,0,21.868,9.766,21.906,21.838v51.882
	c-0.01,3.823,1.475,7.498,4.137,10.241c14.114,14.383,13.896,37.484-0.487,51.598c-14.383,14.114-37.484,13.896-51.598-0.487
	c-13.926-14.191-13.926-36.919,0-51.111c2.662-2.743,4.147-6.418,4.137-10.241v-51.882
	C193.669,147.694,203.466,137.928,215.537,137.928z M215.537,123.347c-20.114-0.037-36.45,16.238-36.487,36.351
	c0,0.023,0,0.045,0,0.068v51.882c-19.733,20.151-19.395,52.484,0.757,72.217s52.484,19.395,72.217-0.757
	c19.442-19.853,19.442-51.608,0-71.461v-51.882c0.15-20.113-16.034-36.54-36.147-36.69c-0.113-0.001-0.227-0.001-0.34-0.001V123.347
	z M222.862,234.707c6.963,4.045,9.329,12.969,5.284,19.933c-4.045,6.963-12.969,9.329-19.933,5.284
	c-6.963-4.045-9.329-12.969-5.284-19.933c1.272-2.19,3.093-4.011,5.284-5.284v-74.602c0.002-4.045,3.283-7.323,7.328-7.321
	c4.043,0.002,7.319,3.279,7.321,7.321V234.707z" />
    <path style="fill-rule:evenodd;clip-rule:evenodd;fill:#1976D2;"
        d="M79.084,81.841c24.588-0.016,48.168-9.77,65.582-27.128
	c0.763-0.51,1.468-1.101,2.102-1.763c15.023-15.835,35.887-24.809,57.715-24.822c29.342,0.321,56.24,16.413,70.397,42.116
	c3.472,6.638,11.668,9.204,18.306,5.732c6.638-3.472,9.204-11.668,5.732-18.306c-0.177-0.338-0.368-0.668-0.572-0.99
	C279.346,22.592,243.506,1.331,204.483,1c-28.209,0.015-55.25,11.266-75.144,31.265c-0.788,0.504-1.516,1.096-2.17,1.763
	c-12.472,13.272-29.871,20.806-48.084,20.821c-20.945-0.106-40.638-9.99-53.239-26.721c-3.655-6.539-11.919-8.876-18.458-5.221
	c-6.539,3.655-8.876,11.919-5.221,18.458c0.625,1.117,1.404,2.141,2.316,3.04C22.086,67.912,49.716,81.777,79.084,81.841z" />
    <path style="fill-rule:evenodd;clip-rule:evenodd;fill:#1976D2;" d="M298.345,129.383c-18.964-34.14-54.811-55.457-93.863-55.816
	c-28.201-0.011-55.243,11.216-75.144,31.197c-0.772,0.525-1.498,1.115-2.17,1.763c-12.472,13.272-29.871,20.806-48.084,20.821
	c-21.024-0.17-40.744-10.219-53.239-27.128c-4.37-6.085-12.844-7.475-18.929-3.106s-7.475,12.844-3.106,18.929
	c0.212,0.296,0.436,0.583,0.672,0.86c17.604,23.507,45.234,37.373,74.602,37.437c19.488,0.033,38.484-6.117,54.256-17.565
	c1.899-1.356,3.866-2.781,5.697-4.34c1.831-1.56,3.934-3.391,5.765-5.222c0.776-0.492,1.483-1.085,2.102-1.763
	c15.006-15.867,35.876-24.867,57.715-24.89c24.968,0.241,48.424,12.006,63.547,31.875c2.507,3.244,4.774,6.666,6.782,10.241
	c1.765,3.116,4.69,5.408,8.138,6.375c7.246,1.901,14.661-2.432,16.562-9.678c0.597-2.275,0.592-4.666-0.014-6.938
	C299.348,131.363,298.914,130.336,298.345,129.383z" />
    <path style="fill-rule:evenodd;clip-rule:evenodd;fill:#1976D2;" d="M127.168,179.095c-12.472,13.272-29.871,20.806-48.084,20.821
	c-21.016-0.202-40.723-10.244-53.239-27.128c-4.37-6.085-12.844-7.475-18.929-3.106c-6.085,4.37-7.475,12.844-3.106,18.929
	c0.212,0.296,0.436,0.583,0.672,0.86c30.254,40.809,87.715,49.67,128.858,19.871v-35.538c-1.289,1.153-2.645,2.238-3.866,3.527
	C128.63,177.812,127.854,178.406,127.168,179.095z" />
    <path style="fill-rule:evenodd;clip-rule:evenodd;fill:#1976D2;" d="M127.168,251.933c-12.554,13.097-29.942,20.455-48.084,20.346
	c-21.024-0.17-40.744-10.219-53.239-27.128c-4.547-5.841-12.937-6.957-18.854-2.509c-5.927,4.557-7.049,13.05-2.509,18.99
	C22.114,285.096,49.733,298.931,79.084,299c19.483,0,38.47-6.147,54.256-17.565v-35.063c-1.289,1.153-2.645,2.238-3.866,3.459
	C128.641,250.457,127.869,251.161,127.168,251.933z" />
</svg>