<svg version="1.1" xmlns="http://www.w3.org/2000/svg" xmlns:xlink="http://www.w3.org/1999/xlink" x="0px" y="0px"
    viewBox="0 0 300 300" style="enable-background:new 0 0 300 300;" xml:space="preserve">
    <path style="fill-rule:evenodd;clip-rule:evenodd;fill:#1976D2;" d="M226.417,266.167c-4.248,0.399-8.015-2.721-8.414-6.969
	c-0.399-4.248,2.721-8.015,6.969-8.414c0.481-0.045,0.965-0.045,1.445,0c5.55-0.111,9.969-4.682,9.894-10.233
	c0.399-4.248,4.166-7.368,8.414-6.969c3.695,0.347,6.621,3.273,6.969,6.969C251.732,254.582,240.447,266.018,226.417,266.167z
	 M226.214,156.861c9.419,11.452,21.617,27.106,31.647,40.253l0.881,0.407c15.315,19.991,20.872,51.028,1.016,71.561
	c-17.33,18.226-46.154,18.953-64.381,1.623c-0.555-0.527-1.096-1.068-1.623-1.623c-17.89-18.568-17.484-47.436,1.152-71.696
	l6.438-8.471c8.267-10.91,17.484-23.04,25.073-32.46L226.214,156.861z M226.214,137.887c-2.633,0.008-5.123,1.203-6.777,3.253
	c-10.3,12.198-25.48,32.392-36.865,47.436c-22.295,29.207-24.328,66.478,0,91.619c23.297,24.327,61.905,25.161,86.231,1.864
	c0.635-0.608,1.256-1.229,1.864-1.864c24.26-25.141,21.549-63.767,0-91.619c-11.995-15.315-27.513-35.441-37.678-47.436
	c-1.653-2.06-4.136-3.277-6.777-3.321V137.887z" />
    <path style="fill-rule:evenodd;clip-rule:evenodd;fill:#1976D2;"
        d="M78.553,81.777c24.568-0.016,48.129-9.762,65.529-27.106
	c0.762-0.509,1.467-1.1,2.101-1.762c15.011-15.823,35.859-24.789,57.669-24.802c29.319,0.32,56.195,16.4,70.341,42.082
	c3.47,6.633,11.659,9.197,18.291,5.727c6.633-3.47,9.197-11.659,5.727-18.291c-0.177-0.337-0.367-0.667-0.572-0.989
	C278.655,22.575,242.844,1.331,203.851,1c-28.186,0.015-55.206,11.257-75.084,31.24c-0.787,0.504-1.514,1.095-2.168,1.762
	c-12.462,13.262-29.847,20.789-48.046,20.804c-20.928-0.106-40.605-9.982-53.196-26.7c-3.652-6.534-11.91-8.869-18.443-5.217
	c-6.534,3.652-8.869,11.91-5.217,18.443c0.624,1.117,1.403,2.139,2.314,3.037C21.6,67.859,49.208,81.713,78.553,81.777z" />
    <path style="fill-rule:evenodd;clip-rule:evenodd;fill:#1976D2;" d="M297.639,129.28c-18.949-34.113-54.767-55.413-93.788-55.771
	c-28.178-0.011-55.199,11.207-75.084,31.172c-0.771,0.525-1.497,1.114-2.168,1.762c-12.462,13.262-29.847,20.789-48.046,20.804
	c-21.007-0.17-40.711-10.211-53.196-27.106c-4.366-6.08-12.834-7.469-18.914-3.103s-7.469,12.834-3.103,18.914
	c0.212,0.295,0.436,0.582,0.671,0.859c17.59,23.489,45.198,37.343,74.542,37.407c19.473,0.033,38.454-6.113,54.213-17.551
	c1.897-1.355,3.863-2.778,5.692-4.337c1.83-1.559,3.93-3.388,5.76-5.218c0.775-0.492,1.482-1.084,2.101-1.762
	c14.994-15.854,35.847-24.847,57.669-24.87c24.948,0.241,48.386,11.997,63.496,31.85c2.505,3.241,4.77,6.661,6.777,10.233
	c1.763,3.114,4.687,5.403,8.132,6.37c7.24,1.9,14.649-2.43,16.549-9.67c0.596-2.273,0.591-4.662-0.014-6.933
	C298.64,131.259,298.207,130.233,297.639,129.28z" />
    <path style="fill-rule:evenodd;clip-rule:evenodd;fill:#1976D2;" d="M126.598,178.953c-12.462,13.262-29.847,20.789-48.046,20.804
	c-21-0.202-40.69-10.236-53.196-27.106c-4.366-6.08-12.834-7.469-18.914-3.103c-6.08,4.366-7.469,12.834-3.103,18.914
	c0.212,0.295,0.436,0.582,0.671,0.859c30.23,40.776,87.645,49.63,128.755,19.855v-35.509c-1.288,1.152-2.643,2.236-3.863,3.524
	C128.059,177.672,127.284,178.264,126.598,178.953z" />
    <path style="fill-rule:evenodd;clip-rule:evenodd;fill:#1976D2;" d="M126.598,251.733c-12.544,13.087-29.918,20.439-48.046,20.33
	c-21.007-0.17-40.711-10.211-53.196-27.106c-4.544-5.836-12.927-6.952-18.839-2.507c-5.922,4.553-7.043,13.039-2.507,18.974
	c17.618,23.446,45.215,37.27,74.542,37.339c19.468,0,38.439-6.142,54.213-17.551v-35.035c-1.288,1.152-2.643,2.236-3.863,3.456
	C128.07,250.258,127.299,250.962,126.598,251.733z" />
</svg>