<svg fill="#1976d2" viewBox="0 0 44 44" xmlns="http://www.w3.org/2000/svg" fill-rule="evenodd" clip-rule="evenodd" stroke-linejoin="round" stroke-miterlimit="2">
<path
    d="M31.53,20.19a3.23,3.23,0,0,1,3.23,3.22v7.65a2.16,2.16,0,0,0,.61,1.51,5.38,5.38,0,1,1-7.68,0,2.16,2.16,0,0,0,.61-1.51V23.41a3.23,3.23,0,0,1,3.23-3.22Zm0-2.15a5.37,5.37,0,0,0-5.38,5.37v7.65a7.53,7.53,0,1,0,10.76,0V23.41A5.37,5.37,0,0,0,31.53,18Zm1.08,16.42a2.15,2.15,0,1,1-2.16,0v-11a1.08,1.08,0,0,1,2.16,0Zm0,0"
/>
<path
    d="M11.41,11.92a13.71,13.71,0,0,0,9.67-4,1.86,1.86,0,0,0,.31-.26A11.74,11.74,0,0,1,29.9,4a12,12,0,0,1,10.38,6.21,2,2,0,1,0,3.46-2A16,16,0,0,0,29.9,0,15.64,15.64,0,0,0,18.82,4.61a1.83,1.83,0,0,0-.32.26,9.74,9.74,0,0,1-7.09,3.07A9.89,9.89,0,0,1,3.56,4,2,2,0,1,0,.41,6.4,13.78,13.78,0,0,0,11.41,11.92Z"
/>
<path
    d="M43.74,18.93A16,16,0,0,0,29.9,10.7a15.63,15.63,0,0,0-11.08,4.6,2.44,2.44,0,0,0-.32.26,9.74,9.74,0,0,1-7.09,3.07,9.86,9.86,0,0,1-7.85-4A2,2,0,1,0,.41,17.09a13.78,13.78,0,0,0,11,5.52,13.58,13.58,0,0,0,8-2.59c.28-.2.57-.41.84-.64s.58-.5.85-.77a1.53,1.53,0,0,0,.31-.26,11.73,11.73,0,0,1,8.51-3.67,11.92,11.92,0,0,1,9.37,4.7,12.4,12.4,0,0,1,1,1.51,2,2,0,0,0,1.2.94,2,2,0,0,0,2.44-2.45A1.77,1.77,0,0,0,43.74,18.93Z"
/>
<path
    d="M18.5,26.26a9.74,9.74,0,0,1-7.09,3.07,9.89,9.89,0,0,1-7.85-4A2,2,0,1,0,.41,27.79a13.67,13.67,0,0,0,19,2.93V25.48c-.19.17-.39.33-.57.52A1.59,1.59,0,0,0,18.5,26.26Z"
/>
<path
    d="M18.5,37A9.74,9.74,0,0,1,11.41,40a9.86,9.86,0,0,1-7.85-4,2,2,0,0,0-2.78-.37,2,2,0,0,0-.37,2.8,13.8,13.8,0,0,0,11,5.51,13.65,13.65,0,0,0,8-2.59V36.18c-.19.17-.39.33-.57.51A2.44,2.44,0,0,0,18.5,37Z"
/>
</svg>
