<svg version="1.1" xmlns="http://www.w3.org/2000/svg" xmlns:xlink="http://www.w3.org/1999/xlink" x="0px" y="0px"
    viewBox="0 0 300 300" style="enable-background:new 0 0 300 300;" xml:space="preserve">
    <g id="&#x56FE;&#x5C42;_2_00000159454455165380574260000004955343817382444468_">
        <g id="&#x56FE;&#x5C42;_1-2">
            <path style="fill:#1976D2;" d="M96.791,0.749h17.733c3.207-0.054,6.41,0.239,9.554,0.874c2.262,0.396,4.4,1.316,6.244,2.685
			c1.423,1.142,2.503,2.655,3.122,4.371c0.635,2.019,0.931,4.129,0.874,6.244c0.118,2.377-0.445,4.738-1.623,6.806
			c-1.49,2.075-3.73,3.486-6.244,3.934l0,0c5.907,1.05,9.964,6.533,9.241,12.488c0.007,2.117-0.308,4.223-0.937,6.244
			c-0.546,1.857-1.633,3.509-3.122,4.746c-1.819,1.473-3.957,2.499-6.244,2.997c-3.134,0.708-6.341,1.044-9.554,0.999H96.791V0.749z
			 M112.214,22.416c1.601,0.107,3.207,0.107,4.808,0c1.127-0.127,2.225-0.443,3.247-0.937c0.819-0.444,1.492-1.117,1.936-1.936
			c0.434-1.004,0.647-2.09,0.624-3.185c0.022-1.114-0.19-2.221-0.624-3.247c-0.422-0.798-1.075-1.451-1.873-1.873
			c-1.035-0.507-2.159-0.804-3.309-0.874c-1.311,0-2.935,0-4.808,0h-3.871v12.488L112.214,22.416z M113.65,44.083
			c1.663,0.116,3.332,0.116,4.995,0c1.111-0.246,2.168-0.691,3.122-1.311c0.77-0.458,1.364-1.162,1.686-1.998
			c0.378-1.061,0.548-2.184,0.5-3.309c0.043-1.064-0.127-2.125-0.5-3.122c-0.34-0.858-0.927-1.597-1.686-2.123
			c-0.993-0.521-2.072-0.859-3.185-0.999c-1.672-0.273-3.364-0.398-5.058-0.375h-5.308v13.238H113.65z" />
            <path style="fill:#1976D2;" d="M145.745,0.749h11.552v52.576h-11.552V0.749z" />
            <path style="fill:#1976D2;"
                d="M191.389,54.074c-3.43,0.054-6.852-0.345-10.178-1.186c-2.845-0.724-5.436-2.214-7.493-4.308
			c-2.184-2.358-3.768-5.206-4.621-8.305c-1.156-4.314-1.681-8.773-1.561-13.238c-0.12-4.465,0.405-8.923,1.561-13.238
			c0.852-3.099,2.437-5.947,4.621-8.305c2.057-2.094,4.648-3.585,7.493-4.308c6.693-1.581,13.663-1.581,20.356,0
			c2.88,0.726,5.511,2.215,7.618,4.308c2.163,2.363,3.726,5.211,4.558,8.305c1.167,4.314,1.735,8.769,1.686,13.238
			c0.09,4.463-0.436,8.918-1.561,13.238c-0.868,3.106-2.475,5.955-4.683,8.305c-2.089,2.084-4.698,3.572-7.555,4.308
			C198.284,53.739,194.84,54.138,191.389,54.074z M191.389,44.458c2.123,0.106,4.246-0.212,6.244-0.937
			c1.507-0.535,2.786-1.571,3.622-2.935c0.912-1.661,1.485-3.486,1.686-5.37c0.187-2.723,0.187-5.456,0-8.18
			c0.194-2.765,0.194-5.54,0-8.305c-0.222-1.928-0.815-3.794-1.748-5.495c-0.83-1.397-2.105-2.475-3.622-3.06
			c-1.984-0.783-4.115-1.124-6.244-0.999c-2.025-0.086-4.046,0.255-5.932,0.999c-1.488,0.605-2.738,1.679-3.559,3.06
			c-0.96,1.69-1.555,3.561-1.748,5.495c-0.383,2.688-0.55,5.403-0.5,8.117c-0.053,2.736,0.114,5.471,0.5,8.18
			c0.19,1.895,0.786,3.727,1.748,5.37c0.777,1.497,2.06,2.67,3.622,3.309C187.368,44.335,189.382,44.589,191.389,44.458z" />
            <circle style="fill:#1976D2;" cx="248.71" cy="201.185" r="42.21" />
            <path style="fill:#1976D2;" d="M51.583,131.126c10.223-0.059,20.076-3.832,27.724-10.615l56.759,32.782v64.564
			c-22.013,7.776-33.555,31.926-25.778,53.939c7.776,22.013,31.926,33.555,53.939,25.778c22.013-7.776,33.555-31.926,25.778-53.939
			c-4.256-12.047-13.731-21.523-25.778-25.778v-64.876l56.822-32.782c17.591,15.139,44.124,13.151,59.263-4.441
			c15.139-17.591,13.151-44.124-4.441-59.263c-17.591-15.139-44.124-13.151-59.263,4.441c-6.606,7.676-10.217,17.479-10.17,27.606
			c0.058,2.389,0.308,4.77,0.749,7.118l-57.009,32.969L93.107,95.659c0.472-2.344,0.723-4.727,0.749-7.118
			c-0.172-23.346-19.238-42.132-42.584-41.959C27.926,46.754,9.14,65.82,9.313,89.166C9.484,112.389,28.359,131.125,51.583,131.126z
			" />
            <circle style="fill:#1976D2;" cx="51.583" cy="201.185" r="42.21" />
        </g>
    </g>
</svg>