<svg version="1.1" xmlns="http://www.w3.org/2000/svg" xmlns:xlink="http://www.w3.org/1999/xlink" x="0px" y="0px"
    viewBox="0 0 300 300" style="enable-background:new 0 0 300 300;" xml:space="preserve">
    <g transform="translate(0.000000,248.000000) scale(0.100000,-0.100000)">
        <path style="fill:#1976D2;" d="M757.732,2134.353c-436.082-184.505-700.515-303.723-722.165-326.432L0,1772.439V979.068V185.697
		l35.567-35.482c43.299-43.997,1405.67-618.801,1465.979-618.801c52.577,0,1413.402,570.546,1464.433,613.124L3000,174.343v804.725
		v804.725l-34.021,29.805c-57.217,48.255-1413.402,613.124-1470.619,611.705C1465.979,2425.303,1172.165,2308.923,757.732,2134.353z
		 M2002.577,1947.009c270.619-114.961,490.206-214.31,487.113-222.825c-3.093-7.096-227.32-107.865-497.938-221.406L1500,1294.146
		l-490.206,208.632c-270.619,113.541-494.845,212.89-499.485,219.987c-6.186,9.935,957.216,431.458,989.691,434.296
		C1504.639,2157.061,1730.412,2061.97,2002.577,1947.009z M821.134,1294.146l531.959-225.664l4.639-597.512
		c1.546-388.88-1.546-598.931-12.371-598.931c-7.732,0-252.062,99.349-541.237,221.406L278.351,316.27v600.35
		c0,330.69,3.093,601.77,6.186,601.77C287.629,1518.39,528.866,1417.622,821.134,1294.146z M2721.649,916.621v-601.77
		l-327.835-137.669c-180.928-76.64-425.258-178.828-542.784-228.502l-211.856-89.414l3.093,604.608l4.639,603.189l533.505,225.664
		c293.814,123.476,535.052,225.664,538.144,225.664C2720.103,1518.39,2721.649,1247.31,2721.649,916.621z" />
    </g>
</svg>