<svg version="1.1" xmlns="http://www.w3.org/2000/svg" xmlns:xlink="http://www.w3.org/1999/xlink" x="0px" y="0px"
    viewBox="0 0 300 300" style="enable-background:new 0 0 300 300;" xml:space="preserve">
    <linearGradient id="SVGID_1_" gradientUnits="userSpaceOnUse" x1="0" y1="202.1225" x2="299.3979" y2="202.1225">
        <stop offset="0" style="stop-color:#1976D2" />
        <stop offset="1" style="stop-color:#1976D2" />
    </linearGradient>
    <path style="fill:url(#SVGID_1_);"
        d="M224.793,261.909c-2.598,5.861-4.427,11.742-7.596,16.778
	c-8.215,13.036-20.37,20.398-35.816,20.632c-30.179,0.413-60.359,0.178-90.529,0.197c-15.212,0-30.414,0.094-45.626,0
	c-22.817-0.169-40.693-15.305-44.688-37.767c-0.415-2.775-0.59-5.58-0.525-8.384c0-34.043,0-68.081,0-102.111
	c0-27.085,19.385-46.329,46.507-46.338c42.578,0,85.165,0.591,127.724-0.225c26.513-0.506,45.41,15.334,49.79,38.076
	c1.079-0.385,2.129-0.713,3.151-1.125l50.099-19.995c12.192-4.858,22.105,1.782,22.114,14.874c0,43.859,0,87.722,0,131.587
	c0,12.82-10.035,19.61-21.908,14.893c-16.7-6.652-33.39-13.339-50.071-20.06C226.444,262.491,225.45,262.153,224.793,261.909z
	 M112.178,134.87c-21.745,0-43.497,0-65.255,0c-11.254,0-17.087,5.824-17.087,17.05c0,33.568,0,67.133,0,100.695
	c0,10.916,6.049,17.022,16.881,17.031c43.766,0,87.506,0,131.222,0c10.673,0,16.675-6.105,16.684-16.815
	c0-33.687,0-67.371,0-101.052c0-11.038-5.824-16.881-16.834-16.881C155.919,134.861,134.048,134.851,112.178,134.87z M269.2,247.12
	v-90.032c-14.64,5.843-28.885,11.479-42.953,17.303c-0.844,0.347-1.519,2.176-1.529,3.32c-0.094,16.375,0,32.749-0.094,49.124
	c0,1.876,0.422,2.917,2.316,3.658c13.477,5.289,26.897,10.71,40.327,16.084C267.902,246.791,268.547,246.972,269.2,247.12z" />
    <linearGradient id="SVGID_00000011013176951306106330000005342958364538100895_" gradientUnits="userSpaceOnUse"
        x1="37.9392" y1="27.0587" x2="186.6276" y2="27.0587">
        <stop offset="0" style="stop-color:#1976D2" />
        <stop offset="1" style="stop-color:#1976D2" />
    </linearGradient>
    <path style="fill:url(#SVGID_00000011013176951306106330000005342958364538100895_);"
        d="M37.939,40.121
	c0.066-5.627,1.557-9.097,4.511-11.864C65.38,6.809,92.484-2.457,123.714,0.826c21.73,2.279,40.589,11.141,56.701,25.865
	c7.362,6.724,8.253,15.718,2.288,22.311c-5.965,6.593-15.146,6.405-22.433-0.206C133.326,24.365,93.9,23.531,66.487,46.808
	c-1.51,1.285-2.879,2.767-4.473,3.939c-4.952,3.648-10.316,4.211-15.84,1.463C40.65,49.462,37.977,44.735,37.939,40.121z" />
    <linearGradient id="SVGID_00000149382239020138397490000003118715733158978214_" gradientUnits="userSpaceOnUse"
        x1="72.8708" y1="70.2337" x2="151.7384" y2="70.2337">
        <stop offset="0" style="stop-color:#1976D2" />
        <stop offset="1" style="stop-color:#1976D2" />
    </linearGradient>
    <path style="fill:url(#SVGID_00000149382239020138397490000003118715733158978214_);" d="M112.356,50.118
	c13.223,0.319,24.815,4.839,34.39,14.18c6.34,6.19,6.659,15.193,0.853,21.354c-5.805,6.162-14.893,6.237-21.383,0.366
	c-8.891-8.047-18.879-8.037-27.938,0c-6.565,5.833-15.709,5.627-21.411-0.413c-5.702-6.04-5.299-15.474,1.172-21.636
	C87.626,54.892,99.095,50.409,112.356,50.118z" />
</svg>