<svg version="1.1" xmlns="http://www.w3.org/2000/svg" xmlns:xlink="http://www.w3.org/1999/xlink" x="0px" y="0px"
    viewBox="0 0 300 300" style="enable-background:new 0 0 300 300;" xml:space="preserve">
    <path style="fill-rule:evenodd;clip-rule:evenodd;fill:#1976D2;" d="M106.028,68.875c18.264-38.634,60.138-60.25,102.21-52.762
	c-10.484,31.947,6.916,66.343,38.862,76.827c12.314,4.041,25.596,4.047,37.914,0.017c3.714,21.288,0.089,43.206-10.282,62.165
	c30.821,27.182,33.771,74.202,6.59,105.023c-14.116,16.006-34.426,25.181-55.767,25.192H110.561
	C50.786,286.569,1.33,239.112,0.098,179.338S46.322,70.107,106.096,68.875H106.028z M135.521,71.716
	c34.64,8.226,63.019,32.963,75.897,66.156c13.401-2.568,27.249-1.421,40.045,3.315c3.183-5.799,5.464-12.049,6.764-18.535
	c-42.281-3.806-75.807-37.275-79.685-79.55c-17.573,3.486-33.045,13.801-43.022,28.681V71.716z M225.556,258.278
	c26.151-0.004,47.348-21.206,47.344-47.358s-21.206-47.348-47.358-47.344c-12.72,0.002-24.905,5.121-33.809,14.205v-0.676
	c0-44.831-36.342-81.173-81.173-81.173s-81.173,36.342-81.173,81.173s36.342,81.173,81.173,81.173H225.556z" />
</svg>