<svg version="1.1" xmlns="http://www.w3.org/2000/svg" xmlns:xlink="http://www.w3.org/1999/xlink" x="0px" y="0px"
    viewBox="0 0 300 300" style="enable-background:new 0 0 300 300;" xml:space="preserve">
    <path style="fill-rule:evenodd;clip-rule:evenodd;fill:#1976D2;" d="M122.777,63.855c24.238-42.426,78.279-57.17,120.705-32.933
	c40.336,23.044,55.979,73.358,35.821,115.21c-0.953,1.769-1.974,3.607-3.062,5.308c30.068,28.376,31.44,75.755,3.064,105.824
	c-14.127,14.969-33.794,23.462-54.377,23.48H109.167c-60.137,0-108.887-48.751-108.887-108.887S49.03,62.97,109.167,62.97
	c4.55-0.018,9.096,0.254,13.611,0.817V63.855z M150.952,71.205c27.477,11.422,49.123,33.534,59.956,61.249
	c14.283-2.728,29.048-1.286,42.534,4.151c13.98-30.803,0.342-67.107-30.461-81.087c-24.712-11.216-53.859-4.832-71.621,15.686
	H150.952z M224.859,253.591c26.31-0.004,47.635-21.335,47.631-47.645c-0.004-26.31-21.335-47.635-47.645-47.631
	c-12.797,0.002-25.056,5.152-34.014,14.291v-0.681c0-45.103-36.563-81.665-81.666-81.665s-81.666,36.563-81.666,81.665
	s36.563,81.665,81.666,81.665H224.859z" />
</svg>