<svg fill="#1976d2" viewBox="0 0 44 44" xmlns="http://www.w3.org/2000/svg" fill-rule="evenodd" clip-rule="evenodd" stroke-linejoin="round" stroke-miterlimit="2">
<path
    d="M17.92,27.78a9.92,9.92,0,0,1-3.18,5.6A8.8,8.8,0,0,1,9,35.33a8.72,8.72,0,0,1-5-1.51,8.75,8.75,0,0,1-2.95-3.21c-.18-.39-.35-.77-.5-1.13a7.3,7.3,0,0,1-.35-1.4A46.13,46.13,0,0,1,0,22a46,46,0,0,1,.26-6.12,7.61,7.61,0,0,1,.85-2.5,8.88,8.88,0,0,1,2.95-3.24A8.39,8.39,0,0,1,9,8.67a8.4,8.4,0,0,1,6,2.24,9.94,9.94,0,0,1,2.91,5.52H13.85a5.83,5.83,0,0,0-1.7-2.71A4.93,4.93,0,0,0,9,12.63a5.06,5.06,0,0,0-2.32.55,4.76,4.76,0,0,0-1.6,1.36,4.36,4.36,0,0,0-1,2.18A32,32,0,0,0,3.83,22a32.28,32.28,0,0,0,.28,5.24,4.46,4.46,0,0,0,1,2.22,4.46,4.46,0,0,0,1.6,1.32A4.42,4.42,0,0,0,9,31.37q3.24,0,4.83-3.59ZM18.64,22a46.21,46.21,0,0,1,.26-6.13,7.53,7.53,0,0,1,.85-2.5,8.86,8.86,0,0,1,2.92-3.23,8.33,8.33,0,0,1,4.94-1.47,8.55,8.55,0,0,1,5,1.48,8.69,8.69,0,0,1,2.86,3.24,6.17,6.17,0,0,1,.87,2.49A53.06,53.06,0,0,1,36.55,22a52.81,52.81,0,0,1-.22,6.08,6.16,6.16,0,0,1-.88,2.54,8.28,8.28,0,0,1-2.86,3.2,8.68,8.68,0,0,1-5,1.51,8.53,8.53,0,0,1-4.93-1.51,8.66,8.66,0,0,1-2.93-3.2c-.18-.4-.35-.78-.5-1.14a8,8,0,0,1-.34-1.4A46.13,46.13,0,0,1,18.64,22Zm3.81,0a32.65,32.65,0,0,0,.27,5.24,4.46,4.46,0,0,0,1,2.22,4.56,4.56,0,0,0,1.58,1.32,4.36,4.36,0,0,0,2.31.59A4.57,4.57,0,0,0,30,30.78a4.35,4.35,0,0,0,1.52-1.32,4.66,4.66,0,0,0,1-2.22A33,33,0,0,0,32.75,22a33.91,33.91,0,0,0-.26-5.28,4.65,4.65,0,0,0-1-2.18A4.78,4.78,0,0,0,30,13.18a5.23,5.23,0,0,0-2.36-.55,5,5,0,0,0-2.31.55,4.93,4.93,0,0,0-1.59,1.36,4.44,4.44,0,0,0-1,2.18A32.31,32.31,0,0,0,22.45,22ZM37.34,33.77l4.57-5.66a2.48,2.48,0,0,0,.36-.64,2.37,2.37,0,0,0,.06-.52,1.75,1.75,0,0,0-.41-1.14,1.59,1.59,0,0,0-1.21-.5,1.63,1.63,0,0,0-1.15.44A1.92,1.92,0,0,0,39,27H37.34a3.55,3.55,0,0,1,1-2.39,3.21,3.21,0,0,1,2.27-.94,3.34,3.34,0,0,1,2.45,1A3.33,3.33,0,0,1,43.3,29l-3.76,4.67H44v1.65H37.34Zm0,0"
/>
</svg>
