<svg version="1.1" xmlns="http://www.w3.org/2000/svg" xmlns:xlink="http://www.w3.org/1999/xlink" x="0px" y="0px"
    viewBox="0 0 300 300" style="enable-background:new 0 0 300 300;" xml:space="preserve">
    <path style="fill-rule:evenodd;clip-rule:evenodd;fill:#1976D2;" d="M122.284,189.394c-2.778,14.776-10.404,28.204-21.669,38.16
	c-11.053,8.922-24.914,13.631-39.114,13.288c-12.142,0.132-24.032-3.459-34.071-10.29c-8.439-5.478-15.354-13.003-20.102-21.874
	c-1.227-2.658-2.385-5.247-3.407-7.7c-1.108-3.093-1.907-6.289-2.385-9.54c-1.365-13.765-1.821-27.606-1.363-41.431
	c-0.337-13.925,0.255-27.857,1.772-41.703c0.923-5.973,2.883-11.738,5.792-17.036c4.751-8.923,11.662-16.514,20.102-22.078
	c9.892-6.788,21.669-10.293,33.662-10.017c15.11-0.511,29.808,4.976,40.886,15.264c10.476,10.085,17.429,23.273,19.83,37.615H94.55
	c-2.064-7.115-6.076-13.512-11.584-18.467c-6.076-4.893-13.665-7.519-21.465-7.428c-5.493-0.028-10.913,1.257-15.809,3.748
	c-4.279,2.239-8.004,5.405-10.903,9.267c-3.615,4.217-5.976,9.364-6.814,14.855c-1.559,11.926-2.129,23.96-1.704,35.979
	c-0.334,11.934,0.304,23.876,1.908,35.707c0.824,5.577,3.184,10.815,6.814,15.128c2.877,3.813,6.612,6.895,10.903,8.995
	c4.74,2.733,10.135,4.122,15.605,4.02c14.719,0,25.69-8.154,32.913-24.463H122.284z M127.19,150.008
	c-0.335-13.948,0.256-27.902,1.772-41.771c0.912-5.975,2.873-11.743,5.792-17.036c4.698-8.878,11.537-16.443,19.898-22.01
	c9.88-6.814,21.665-10.321,33.662-10.017c12.13-0.268,24.041,3.258,34.071,10.085c8.252,5.601,14.955,13.195,19.489,22.078
	c3.176,5.162,5.198,10.95,5.928,16.968c1.279,13.862,1.757,27.786,1.431,41.703c0.297,13.828-0.204,27.661-1.499,41.431
	c-0.7,6.141-2.748,12.051-5.997,17.308c-4.467,8.855-11.189,16.376-19.489,21.806c-10.031,6.846-21.927,10.439-34.071,10.29
	c-11.991,0.118-23.726-3.476-33.594-10.29c-8.398-5.457-15.269-12.961-19.966-21.806c-1.227-2.726-2.385-5.315-3.407-7.768
	c-1.058-3.104-1.833-6.297-2.317-9.54C127.415,177.681,126.846,163.84,127.19,150.008z M153.153,150.008
	c-0.346,11.932,0.27,23.873,1.84,35.707c0.824,5.577,3.184,10.815,6.814,15.128c2.856,3.78,6.539,6.857,10.767,8.995
	c4.772,2.777,10.222,4.169,15.741,4.02c5.694,0.175,11.327-1.216,16.286-4.02c4.108-2.147,7.656-5.228,10.358-8.995
	c3.572-4.35,5.924-9.57,6.814-15.128c1.469-11.842,1.993-23.782,1.567-35.707c0.347-12.021-0.246-24.051-1.772-35.979
	c-0.933-5.462-3.283-10.584-6.814-14.855c-2.687-3.776-6.148-6.936-10.153-9.267c-4.993-2.491-10.502-3.775-16.082-3.748
	c-5.472-0.033-10.871,1.253-15.741,3.748c-4.233,2.278-7.928,5.439-10.835,9.267c-3.591,4.233-5.949,9.372-6.814,14.855
	C153.488,125.947,152.827,137.981,153.153,150.008z M254.617,230.212l31.141-38.569c1.03-1.324,1.856-2.794,2.453-4.361
	c0.267-1.162,0.404-2.351,0.409-3.543c0.023-2.839-0.967-5.594-2.794-7.768c-2.132-2.267-5.135-3.508-8.245-3.407
	c-2.904-0.064-5.717,1.013-7.836,2.998c-2.276,2.274-3.634,5.306-3.816,8.518h-11.312c0.139-6.093,2.572-11.91,6.814-16.286
	c4.103-4.102,9.667-6.406,15.468-6.405c6.266-0.124,12.306,2.341,16.695,6.814c7.752,8.084,8.447,20.615,1.635,29.506
	l-25.622,31.823H300v11.244h-45.383V230.212z" />
</svg>