<svg version="1.1" xmlns="http://www.w3.org/2000/svg" xmlns:xlink="http://www.w3.org/1999/xlink" x="0px" y="0px"
    viewBox="0 0 300 300" style="enable-background:new 0 0 300 300;" xml:space="preserve">
    <path style="fill-rule:evenodd;clip-rule:evenodd;fill:#1976D2;" d="M126.378,173.533c6.8,6.8,14.65,10.183,23.533,10.183
	s16.733-3.383,23.533-10.183s10.183-14.65,10.183-23.533s-3.383-16.733-10.183-23.533s-14.65-10.2-23.533-10.2
	s-16.733,3.4-23.533,10.2c-6.8,6.8-10.2,14.65-10.2,23.533S119.578,166.733,126.378,173.533z M102.845,102.933
	c13.083-13.067,28.767-19.6,47.067-19.6s34,6.533,47.05,19.6c13.083,13.083,19.617,28.767,19.617,47.067s-6.533,34-19.617,47.05
	c-13.05,13.083-28.75,19.617-47.05,19.617s-34-6.533-47.067-19.617C89.778,184,83.245,168.3,83.245,150S89.778,116,102.845,102.933z
	" />
    <path style="fill-rule:evenodd;clip-rule:evenodd;fill:#1976D2;" d="M166.578,0v100h-33.333V0H166.578z M166.578,200v100h-33.333
	V200H166.578z" />
</svg>