<svg version="1.1" xmlns="http://www.w3.org/2000/svg" xmlns:xlink="http://www.w3.org/1999/xlink" x="0px" y="0px"
    viewBox="0 0 300 300" style="enable-background:new 0 0 300 300;" xml:space="preserve">
    <path style="fill-rule:evenodd;clip-rule:evenodd;fill:#1976D2;" d="M279.915,112.695L156.293,2.81
	c-4.995-3.746-12.487-3.746-17.482,0L16.439,112.695c-2.497,2.497-3.746,7.492-3.746,9.99v163.58
	c0,8.741,4.995,13.736,13.736,13.736h96.15h54.943h96.15c8.741,0,13.736-4.995,13.736-13.736v-163.58
	C284.909,117.69,282.412,113.944,279.915,112.695z M258.687,136.42h-19.979v-26.223l19.979,17.482V136.42z M148.801,30.281
	l61.186,54.943v51.197H87.615V85.224L148.801,30.281z M176.273,190.114H121.33c-8.741,0-13.736,4.995-13.736,13.736v68.678H87.615
	V162.643h123.621v109.886h-19.979V203.85C190.008,196.358,182.516,190.114,176.273,190.114z M60.144,110.198v26.223H38.916v-8.741
	L60.144,110.198z M38.916,163.892h19.979v109.886H38.916V163.892z M237.459,272.529V162.643h19.979v109.886H237.459z" />
</svg>