<svg fill="#1976d2" viewBox="0 0 44 44" xmlns="http://www.w3.org/2000/svg" fill-rule="evenodd" clip-rule="evenodd" stroke-linejoin="round" stroke-miterlimit="2">
        <path
            class="st0"
            d="M22.5,9l-9.9-8.8c-0.4-0.3-1-0.3-1.4,0L1.4,9C1.2,9.2,1.1,9.6,1.1,9.8v13.1c0,0.7,0.4,1.1,1.1,1.1h7.7h4.4h7.7
            c0.7,0,1.1-0.4,1.1-1.1V9.8C22.9,9.4,22.7,9.1,22.5,9z M20.8,10.9h-1.6V8.8l1.6,1.4V10.9z M12,2.4l4.9,4.4v4.1H7.1V6.8L12,2.4z
            M14.2,15.2H9.8c-0.7,0-1.1,0.4-1.1,1.1v5.5H7.1v-8.8h9.9v8.8h-1.6v-5.5C15.3,15.7,14.7,15.2,14.2,15.2z M4.9,8.8v2.1H3.2v-0.7
            L4.9,8.8z M3.2,13.1h1.6v8.8H3.2V13.1z M19.1,21.8v-8.8h1.6v8.8H19.1z"
        />
    </svg>
