<svg version="1.1" xmlns="http://www.w3.org/2000/svg" xmlns:xlink="http://www.w3.org/1999/xlink" x="0px" y="0px"
    viewBox="0 0 300 300" style="enable-background:new 0 0 300 300;" xml:space="preserve">
    <path style="fill-rule:evenodd;clip-rule:evenodd;fill:#1976D2;" d="M237.422,91.155c-25.172,0-45.578-20.406-45.578-45.578
	S212.251,0,237.422,0S283,20.406,283,45.578S262.594,91.155,237.422,91.155z M237.422,61.041c8.99,0,16.278-7.288,16.278-16.278
	s-7.288-16.278-16.278-16.278c-8.99,0-16.278,7.288-16.278,16.278S228.433,61.041,237.422,61.041z" />
    <path style="fill-rule:evenodd;clip-rule:evenodd;fill:#1976D2;" d="M119.295,267.149c-17.791,0.061-34.899-6.845-47.661-19.24
	c-21.984-21.186-26.152-54.864-9.994-80.77c2.259-3.614,6.254-5.772,10.515-5.681c3.809,0,7.748,1.546,10.743,4.476l72.712,70.889
	c6.267,6.12,6.348,16.245-1.237,20.754C143.754,263.864,131.636,267.171,119.295,267.149 M121.118,40.694
	c5.144,0,9.929,2.279,13.478,6.43c2.783,3.256,5.86,6.772,9.148,10.532c30.228,34.606,80.819,92.522,80.819,142.104
	c0,55.605-46.391,100.84-103.412,100.84c-57.053,0-103.477-45.252-103.477-100.84c0-50.168,47.547-104.275,79.012-140.069
	c3.939-4.476,7.651-8.709,10.955-12.566C111.189,42.973,115.991,40.694,121.118,40.694" />
</svg>