<svg fill="#1976d2" viewBox="0 0 44 44" xmlns="http://www.w3.org/2000/svg" fill-rule="evenodd" clip-rule="evenodd" stroke-linejoin="round" stroke-miterlimit="2">
        <path d="M29 16h-4.17V0H6.27v14H0v16h6.27v14h18.56V28H29Zm-8.35 24.33h-10.2V3.67h10.2Z" />
        <path
            d="M13.46 9.56h4.18v24.87h-4.18zM29.01 40H44v4H29.01zM29.01 0H44v4H29.01zM43.7 23a3.41 3.41 0 0 0-3.25-3.11c-1-.11-2.23-.27-3-.33a.48.48 0 0 0-.36.12.44.44 0 0 0-.09.32c.07.77.25 2 .38 2.86A3.37 3.37 0 0 0 40.57 26a3.11 3.11 0 0 0 2.24-.85A2.87 2.87 0 0 0 43.7 23ZM33.51 25.74a2.36 2.36 0 0 0 1.67-.64 2.11 2.11 0 0 0 .66-1.59 2.54 2.54 0 0 0-2.42-2.32c-.72-.08-1.66-.2-2.24-.25a.37.37 0 0 0-.27.09.33.33 0 0 0-.1.25c.06.57.19 1.46.28 2.13a2.54 2.54 0 0 0 2.42 2.33ZM39.32 27.1a.25.25 0 0 0-.2.06.23.23 0 0 0-.07.19c0 .43.14 1.09.21 1.59a1.88 1.88 0 0 0 1.8 1.73 1.7 1.7 0 0 0 1.24-.48 1.57 1.57 0 0 0 .5-1.19 1.9 1.9 0 0 0-1.8-1.72c-.54-.06-1.24-.15-1.68-.18Z"
        />
    </svg>
