<svg version="1.1" xmlns="http://www.w3.org/2000/svg" xmlns:xlink="http://www.w3.org/1999/xlink" x="0px" y="0px"
    viewBox="0 0 300 300" style="enable-background:new 0 0 300 300;" xml:space="preserve">
    <path style="fill-rule:evenodd;clip-rule:evenodd;fill:#1976D2;" d="M197.842,109.091h-28.432V0H42.865v95.455H0.115v109.091h42.75
	V300h126.545V190.909h28.432V109.091z M140.911,274.977H71.365V25.023h69.545V274.977z" />
    <path style="fill-rule:evenodd;clip-rule:evenodd;fill:#1976D2;" d="M91.888,65.182h28.5V234.75h-28.5V65.182z M197.911,272.727
	h102.205V300H197.911V272.727z M197.911,0h102.205v27.273H197.911V0z M298.07,156.818c-1.016-11.629-10.497-20.701-22.159-21.205
	c-6.818-0.75-15.205-1.841-20.455-2.25c-0.896-0.076-1.783,0.22-2.455,0.818c-0.482,0.619-0.702,1.402-0.614,2.182
	c0.477,5.25,1.705,13.636,2.591,19.5c0.779,11.616,10.123,20.813,21.75,21.409c5.661,0.185,11.16-1.902,15.273-5.795
	C296.003,167.667,298.207,162.342,298.07,156.818z M228.592,175.5c4.221,0.096,8.31-1.472,11.386-4.364
	c2.973-2.81,4.609-6.752,4.5-10.841c-0.745-8.669-7.807-15.439-16.5-15.818c-4.909-0.545-11.318-1.364-15.273-1.705
	c-0.671-0.049-1.334,0.172-1.841,0.614c-0.459,0.445-0.707,1.065-0.682,1.705c0.409,3.886,1.295,9.955,1.909,14.523
	C212.805,168.309,219.876,175.117,228.592,175.5z M268.206,184.773c-0.492-0.069-0.991,0.08-1.364,0.409
	c-0.351,0.335-0.527,0.813-0.477,1.295c0,2.932,0.955,7.432,1.432,10.841c0.513,6.473,5.785,11.539,12.273,11.795
	c3.146,0.102,6.198-1.079,8.455-3.273c2.247-2.091,3.488-5.045,3.409-8.114c-0.603-6.418-5.834-11.416-12.273-11.727
	C275.979,185.591,271.206,184.977,268.206,184.773z" />
</svg>