<svg version="1.1" xmlns="http://www.w3.org/2000/svg" xmlns:xlink="http://www.w3.org/1999/xlink" x="0px" y="0px"
    viewBox="0 0 300 300" style="enable-background:new 0 0 300 300;" xml:space="preserve">
    <g id="&#x56FE;&#x5C42;_2_00000152263988690443341640000017273354219455517371_">
        <g id="&#x56FE;&#x5C42;_1-2">
            <path style="fill:#1976D2;" d="M139.943,0c-10.183,30.05,1.499,56.851,12.057,83.652c7.597,16.652,10.698,35.004,8.996,53.227
			c-1.714,13.233-7.3,25.665-16.056,35.735c10.058-30.112-1.499-56.976-12.12-83.777c-7.459-16.452-10.578-34.54-9.059-52.54
			C125.2,22.796,130.862,10.093,139.943,0z" />
            <path style="fill:#1976D2;" d="M108.082,40.67c-7.434,20.116-1.562,38.858,5.185,57.351c5.31,14.681,12.182,28.863,12.495,44.981
			c0.749,14.786-4.242,29.289-13.932,40.483c8.309-23.677,0-45.043-8.746-66.284c-6.247-15.806-11.245-31.674-8.309-49.042
			C96.441,57.896,101.066,48.343,108.082,40.67z" />
            <path style="fill:#1976D2;" d="M64.725,59.475c-3.311,13.994,1.374,25.739,6.247,37.484c5.182,10.478,9.608,21.314,13.244,32.424
			c2.636,12.612-0.657,25.736-8.934,35.61c3.436-20.366-6.622-36.859-15.181-53.602c-8.358-15.383-7.785-34.074,1.499-48.917
			l1-1.562C63.101,60.599,63.538,60.349,64.725,59.475z" />
            <path style="fill:#1976D2;" d="M44.984,170.302c0.375-12.495-5.56-22.99-10.933-33.548c-5.908-11.008-4.807-24.459,2.811-34.36
			c-2.187,14.244,3.998,24.989,9.558,35.61C52.13,148.165,51.573,160.688,44.984,170.302z" />
            <path style="fill:#1976D2;" d="M192.046,40.67c7.434,20.116,1.562,38.858-5.185,57.351c-5.31,14.681-12.182,28.863-12.495,44.981
			c-0.749,14.786,4.242,29.289,13.932,40.483c-8.309-23.677,0-45.043,8.746-66.284c6.247-15.806,11.245-31.674,8.309-49.042
			C203.687,57.896,199.062,48.343,192.046,40.67z" />
            <path style="fill:#1976D2;" d="M235.403,59.475c3.311,13.994-1.374,25.739-6.247,37.484c-5.182,10.478-9.608,21.314-13.244,32.424
			c-2.564,12.621,0.797,25.72,9.121,35.547c-3.436-20.366,6.622-36.859,15.181-53.602c8.323-15.312,7.798-33.911-1.374-48.729
			l-1.312-1.687C237.027,60.599,236.59,60.349,235.403,59.475z" />
            <path style="fill:#1976D2;" d="M255.144,170.302c-0.375-12.495,5.56-22.99,10.933-33.548c5.908-11.008,4.807-24.459-2.811-34.36
			c2.187,14.244-3.998,24.989-9.558,35.61C247.998,148.165,248.555,160.688,255.144,170.302z" />
            <path style="fill:#1976D2;" d="M290.816,194.48c-6.872,0-12.495,3.561-12.495,7.934c0,7.997-10.183,14.494-22.678,14.494
			c-12.495,0-22.74-6.247-22.74-14.494c0-4.373-5.56-7.934-12.495-7.934s-12.495,3.561-12.495,7.934
			c0,7.997-10.183,14.494-22.74,14.494s-22.615-6.497-22.615-14.494c0-4.373-5.623-7.934-12.495-7.934s-12.495,3.561-12.495,7.934
			c0,7.997-10.183,14.494-22.678,14.494s-22.74-6.247-22.74-14.494c0-4.373-5.56-7.934-12.495-7.934s-12.495,3.561-12.495,7.934
			c0,7.997-10.183,14.494-22.74,14.494s-22.678-6.247-22.678-14.494c0-4.373-5.623-7.934-12.495-7.934s-9.121,22.116-9.121,26.489
			v76.905c0.162,1.228,1.265,2.11,2.499,1.999h294.874c1.234,0.111,2.336-0.771,2.499-1.999v-76.905
			C300,216.595,300,194.48,290.816,194.48z" />
        </g>
    </g>
</svg>