<svg version="1.1" xmlns="http://www.w3.org/2000/svg" xmlns:xlink="http://www.w3.org/1999/xlink" x="0px" y="0px"
    viewBox="0 0 300 300" style="enable-background:new 0 0 300 300;" xml:space="preserve">
    <path style="fill-rule:evenodd;clip-rule:evenodd;fill:#1976D2;" d="M29.959,22.347h59.918v29.959H29.959V22.347z M209.714,247.041
	h59.918V277h-59.918V247.041z M0,97.245h74.898v29.959H0V97.245z M104.857,97.245h44.939v29.959h-44.939V97.245z M179.755,97.245
	h89.877v29.959h-89.877V97.245z M29.959,172.143h89.877v29.959H29.959L29.959,172.143z M149.796,172.143h44.939v29.959h-44.939
	V172.143z M224.694,172.143h74.898v29.959h-74.898V172.143z M119.837,22.347h179.755v29.959H119.837V22.347z M0,247.041h179.755V277
	H0V247.041z" />
</svg>