<svg version="1.1" xmlns="http://www.w3.org/2000/svg" xmlns:xlink="http://www.w3.org/1999/xlink" x="0px" y="0px"
    viewBox="0 0 300 300" style="enable-background:new 0 0 300 300;" xml:space="preserve">
    <path style="fill-rule:evenodd;clip-rule:evenodd;fill:#1976D2;" d="M7.773,170.127c-22.285-55.92,4.981-119.318,60.901-141.603
	s119.318,4.981,141.603,60.901l0,0c40.58-7.885,79.868,18.62,87.753,59.2c0.009,0.045,0.018,0.091,0.026,0.136
	c1.493,7.018,1.952,14.216,1.361,21.366h-27.218c4.322-25.949-13.21-50.488-39.159-54.81c-15.667-2.609-31.604,2.762-42.495,14.323
	v-0.34c-0.182-45.096-36.887-81.507-81.983-81.325c-45.096,0.182-81.507,36.887-81.325,81.983
	c0.057,14.093,3.76,27.931,10.75,40.169H7.773z M40.843,251.782h231.355V279H40.843V251.782z M13.625,197.345h285.792v27.218H13.625
	V197.345z" />
</svg>