<svg version="1.1" xmlns="http://www.w3.org/2000/svg" xmlns:xlink="http://www.w3.org/1999/xlink" x="0px" y="0px"
    viewBox="0 0 300 300" style="enable-background:new 0 0 300 300;" xml:space="preserve">
    <path style="fill:#1976D2;" d="M150-0.115c-82.8,0-150,67.2-150,150s67.2,150,150,150s150-67.2,150-150S232.8-0.115,150-0.115z
	 M150,269.885c-66.3,0-120-53.7-120-120s53.7-120,120-120s120,53.7,120,120S216.3,269.885,150,269.885z M187.842,209.885h-75.683
	c-12.238,0-22.158-9.921-22.158-22.158v-75.683c0-12.238,9.921-22.158,22.158-22.158h75.683c12.238,0,22.158,9.921,22.158,22.158
	v75.683C210,199.964,200.079,209.885,187.842,209.885z" />
</svg>