<svg version="1.1" xmlns="http://www.w3.org/2000/svg" xmlns:xlink="http://www.w3.org/1999/xlink" x="0px" y="0px"
    viewBox="0 0 300 300" style="enable-background:new 0 0 300 300;" xml:space="preserve">
    <path style="fill:#1976D2;" d="M54.545,94.636C24.409,94.636,0,119.045,0,149.182s24.409,54.545,54.545,54.545
	s54.545-24.409,54.545-54.545S84.682,94.636,54.545,94.636z M218.182,67.364c-45.136,0-81.818,36.682-81.818,81.818
	S173.045,231,218.182,231S300,194.318,300,149.182S263.318,67.364,218.182,67.364z M218.182,203.727
	c-30.136,0-54.545-24.409-54.545-54.545s24.409-54.545,54.545-54.545s54.545,24.409,54.545,54.545S248.318,203.727,218.182,203.727z
	" />
</svg>