<svg version="1.1" xmlns="http://www.w3.org/2000/svg" xmlns:xlink="http://www.w3.org/1999/xlink" x="0px" y="0px"
    viewBox="0 0 300 300" style="enable-background:new 0 0 300 300;" xml:space="preserve">
    <path style="fill-rule:evenodd;clip-rule:evenodd;fill:#1976D2;" d="M55.339,211.049c-52.353-29.98-70.49-96.724-40.51-149.077
	s96.724-70.49,149.077-40.51c21.786,12.476,38.61,32.075,47.641,55.5c40.815-7.381,79.885,19.723,87.265,60.538
	c6.799,37.598-15.715,74.308-52.309,85.293v-29.016c23.859-11.287,34.05-39.779,22.763-63.638s-39.779-34.05-63.638-22.763
	c-5.126,2.425-9.779,5.743-13.743,9.799v-0.683c0.016-45.247-36.651-81.94-81.898-81.956c-45.247-0.016-81.94,36.651-81.956,81.898
	c-0.008,23.324,9.925,45.545,27.309,61.094V211.049z M82.648,198.418h27.309v54.618H82.648V198.418z M191.885,198.418h27.309v54.618
	h-27.309V198.418z M137.266,239.382h27.309V294h-27.309V239.382z" />
</svg>