<svg fill="#1976d2" viewBox="0 0 44 44" xmlns="http://www.w3.org/2000/svg" fill-rule="evenodd" clip-rule="evenodd" stroke-linejoin="round" stroke-miterlimit="2">
        <path
            d="M10 33.13a16 16 0 1 1 20.9-20.62A11 11 0 0 1 36 33.88v-4.26A7 7 0 1 0 30 17a7.24 7.24 0 0 0-2 1.43v-.13a12 12 0 1 0-18 10.39Z"
        />
        <path
            d="m22.11 27.69 2.78-1.6 1.41 2.45-2.77 1.6 2.77 1.59-1.41 2.45-2.78-1.6v3.2h-2.82v-3.2l-2.77 1.6-1.41-2.45 2.77-1.59-2.77-1.6 1.41-2.45 2.77 1.6v-3.2h2.82v3.2zM29.94 35.67l1.55-.89.8 1.37-1.56.9 1.56.9-.8 1.37-1.55-.9v1.8h-1.59v-1.8l-1.56.9-.79-1.37 1.56-.9-1.56-.9.79-1.37 1.56.89v-1.79h1.59v1.79zM22.58 38.36l1.14-.66.58 1.01-1.14.66 1.14.65-.58 1-1.14-.65v1.31h-1.16v-1.31l-1.14.65-.58-1 1.14-.65-1.14-.66.58-1.01 1.14.66v-1.31h1.16v1.31z"
        />
    </svg>
