<svg version="1.1" xmlns="http://www.w3.org/2000/svg" xmlns:xlink="http://www.w3.org/1999/xlink" x="0px" y="0px"
    viewBox="0 0 300 300" style="enable-background:new 0 0 300 300;" xml:space="preserve">
    <path style="fill-rule:evenodd;clip-rule:evenodd;fill:#1976D2;"
        d="M68.499,226.573c-56.009-22.57-83.116-86.271-60.545-142.28
	s86.271-83.116,142.28-60.545c28.049,11.303,50.163,33.718,61.087,61.917c40.828-7.521,80.022,19.48,87.543,60.308
	c6.972,37.851-15.772,74.853-52.692,85.725v-29.111c24.509-9.861,36.385-37.723,26.524-62.232
	c-9.861-24.509-37.723-36.385-62.232-26.524c-1.814,0.73-3.582,1.57-5.293,2.517c-5.08,2.454-9.702,5.759-13.667,9.772v-0.888
	c0.009-45.289-36.698-82.01-81.987-82.019s-82.01,36.698-82.019,81.987c-0.006,29.302,15.625,56.381,41.001,71.032V226.573z" />
    <path style="fill-rule:evenodd;clip-rule:evenodd;fill:#1976D2;" d="M151.254,189.398l18.997-10.934l9.635,16.742l-18.929,10.934
	l18.929,10.865l-9.635,16.742l-18.997-10.934v21.867h-19.271v-21.867l-18.929,10.934l-9.635-16.742l18.929-10.865l-18.929-10.934
	l9.635-16.742l18.929,10.934v-21.867h19.271C151.254,167.531,151.254,189.398,151.254,189.398z M204.761,243.93l10.592-6.082
	l5.467,9.362l-10.66,6.15l10.66,6.15l-5.467,9.362l-10.592-6.15v12.3h-10.865v-12.3l-10.66,6.15l-5.399-9.362l10.66-6.15
	l-10.66-6.15l5.399-9.362l10.66,6.082v-12.232h10.865C204.761,231.698,204.761,243.93,204.761,243.93z M154.465,262.312l7.79-4.51
	l3.963,6.902l-7.79,4.51l7.79,4.442l-3.963,6.834l-7.79-4.442V285h-7.927v-8.952l-7.79,4.442l-3.963-6.834l7.79-4.442l-7.79-4.51
	l3.963-6.902l7.79,4.51v-8.952h7.927V262.312z" />
</svg>