<svg version="1.1" xmlns="http://www.w3.org/2000/svg" xmlns:xlink="http://www.w3.org/1999/xlink" x="0px" y="0px"
    viewBox="0 0 300 300" style="enable-background:new 0 0 300 300;" xml:space="preserve">
    <path style="fill-rule:evenodd;clip-rule:evenodd;fill:#1976D2;" d="M109.738,270.682c-2.045,0-3.409,0-4.773,0.682
	c-1.364,0.682-2.727,2.045-4.091,3.409c-2.045-3.409-4.773-4.773-8.864-4.773c-2.727,0-5.455,1.364-7.5,3.409v-2.727h-6.136V300
	h6.136v-17.045c0-2.045,0.682-3.409,1.364-4.773c1.364-1.364,2.727-2.045,4.091-2.045c3.409,0,5.455,2.045,5.455,6.818V300h6.818
	v-17.727c0-2.045,0.682-3.409,1.364-4.773c1.364-1.364,2.045-2.045,4.091-2.045s3.409,0.682,4.773,1.364
	c0.682,0.682,1.364,2.727,1.364,4.773V300h6.136v-19.091c0-3.409-0.682-5.455-2.727-7.5
	C115.193,271.364,112.465,270.682,109.738,270.682z M158.147,270.682c-2.045,0-3.409,0-4.773,0.682
	c-1.364,0.682-2.727,2.045-4.091,3.409c-2.045-3.409-4.773-4.773-8.864-4.773c-2.727,0-5.455,1.364-7.5,3.409v-2.727h-6.136V300
	h6.136v-17.045c0-2.045,0.682-3.409,1.364-4.773c1.364-1.364,2.727-2.045,4.091-2.045c3.409,0,5.455,2.045,5.455,6.818V300h6.136
	v-17.727c0-2.045,0.682-3.409,1.364-4.773c1.364-1.364,2.045-2.045,4.091-2.045c2.045,0,3.409,0.682,4.773,1.364
	c0.682,0.682,1.364,2.727,1.364,4.773V300h6.136v-19.091c0-3.409-0.682-5.455-2.727-7.5
	C163.602,271.364,160.875,270.682,158.147,270.682z M173.147,300h5.455l18.409-45.682h-4.773L173.147,300z M216.784,270.682
	c-2.045,0-3.409,0-4.773,1.364c-1.364,0.682-2.727,2.045-4.091,3.409v-16.364h-6.136V300h6.136v-16.364
	c0-2.727,0.682-4.091,1.364-6.136c1.364-1.364,2.727-2.045,4.773-2.045c2.045,0,3.409,0.682,4.773,2.045
	c0.682,1.364,1.364,3.409,1.364,5.455V300h6.136v-17.727c0-4.091-0.682-6.818-2.727-8.864
	C222.92,271.364,220.193,270.682,216.784,270.682z M149.965,222.955c22.5,0,45.682-8.864,62.727-27.273
	c34.773-36.136,34.773-94.773,0-130.909L149.965,0L87.238,65.455c-34.773,36.136-34.773,94.773,0,130.909
	C104.284,214.091,127.465,222.955,149.965,222.955z M97.465,76.364l52.5-54.545l52.5,54.545
	c13.636,14.318,20.455,32.727,21.136,51.136c-32.045-5.455-59.318,9.545-83.182,30c-17.727,15-41.591,13.636-54.545,11.591
	C69.511,139.773,73.602,101.591,97.465,76.364z" />
</svg>