<svg fill="#1976d2" viewBox="0 0 44 44" xmlns="http://www.w3.org/2000/svg" fill-rule="evenodd" clip-rule="evenodd" stroke-linejoin="round" stroke-miterlimit="2">
        <path
            d="M16.1 39.7c-.3 0-.5 0-.7.1-.2.1-.4.3-.6.5-.3-.5-.7-.7-1.3-.7-.4 0-.8.2-1.1.5v-.4h-.9V44h.9v-2.5c0-.3.1-.5.2-.7.2-.2.4-.3.6-.3.5 0 .8.3.8 1V44h1v-2.6c0-.3.1-.5.2-.7.2-.2.3-.3.6-.3s.5.1.7.2c.1.1.2.4.2.7V44h.9v-2.8c0-.5-.1-.8-.4-1.1-.3-.3-.7-.4-1.1-.4zM23.2 39.7c-.3 0-.5 0-.7.1-.2.1-.4.3-.6.5-.3-.5-.7-.7-1.3-.7-.4 0-.8.2-1.1.5v-.4h-.9V44h.9v-2.5c0-.3.1-.5.2-.7.2-.2.4-.3.6-.3.5 0 .8.3.8 1V44h.9v-2.6c0-.3.1-.5.2-.7.2-.2.3-.3.6-.3s.5.1.7.2c.1.1.2.4.2.7V44h.9v-2.8c0-.5-.1-.8-.4-1.1-.2-.3-.6-.4-1-.4zM25.4 44h.8l2.7-6.7h-.7zM31.8 39.7c-.3 0-.5 0-.7.2-.2.1-.4.3-.6.5V38h-.9v6h.9v-2.4c0-.4.1-.6.2-.9.2-.2.4-.3.7-.3.3 0 .5.1.7.3.1.2.2.5.2.8V44h.9v-2.6c0-.6-.1-1-.4-1.3-.1-.3-.5-.4-1-.4zM22 32.7c3.3 0 6.7-1.3 9.2-4 5.1-5.3 5.1-13.9 0-19.2L22 0l-9.2 9.6c-5.1 5.3-5.1 13.9 0 19.2 2.5 2.6 5.9 3.9 9.2 3.9zm-7.7-21.5 7.7-8 7.7 8c2 2.1 3 4.8 3.1 7.5-4.7-.8-8.7 1.4-12.2 4.4-2.6 2.2-6.1 2-8 1.7-2.4-4.3-1.8-9.9 1.7-13.6z"
        />
    </svg>
