<svg version="1.1" xmlns="http://www.w3.org/2000/svg" xmlns:xlink="http://www.w3.org/1999/xlink" x="0px" y="0px"
    viewBox="0 0 300 300" style="enable-background:new 0 0 300 300;" xml:space="preserve">
    <path style="fill-rule:evenodd;clip-rule:evenodd;fill:#1976D2;" d="M147.718,260.904c-20.497,0.07-40.208-7.886-54.911-22.167
	c-25.329-24.409-30.13-63.21-11.515-93.057c2.603-4.164,7.206-6.651,12.115-6.545c4.388,0,8.927,1.782,12.378,5.157l83.774,81.673
	c7.22,7.051,7.314,18.716-1.425,23.911C175.898,257.12,161.936,260.929,147.718,260.904 M149.819,0
	c5.926,0,11.44,2.626,15.528,7.408c3.207,3.751,6.751,7.802,10.54,12.134C210.713,59.412,269,126.139,269,183.263
	c0,64.063-53.449,116.18-119.144,116.18c-65.732,0-119.219-52.136-119.219-116.18c0-57.8,54.78-120.138,91.031-161.377
	c4.538-5.157,8.814-10.033,12.621-14.478C138.109,2.754,143.799,0.039,149.819,0" />
</svg>