<svg version="1.1" xmlns="http://www.w3.org/2000/svg" xmlns:xlink="http://www.w3.org/1999/xlink" x="0px" y="0px"
    viewBox="0 0 300 300" style="enable-background:new 0 0 300 300;" xml:space="preserve">
    <path style="fill-rule:evenodd;clip-rule:evenodd;fill:#1976D2;" d="M0.115,0v120.976h109.049v27.262h81.787v-27.262H300V0H0.115z
	 M274.987,93.782H25.128v-66.52h249.859V93.782z" />
    <path style="fill-rule:evenodd;clip-rule:evenodd;fill:#1976D2;" d="M65.272,46.891h169.503v27.262H65.272V46.891z M165.188,232.07
	c5.462-0.004,10.684-2.246,14.449-6.202c7.475-8.573,7.475-21.347,0-29.92c-3.953-4.975-8.997-11.586-12.336-15.471
	c-0.515-0.686-1.323-1.09-2.181-1.09c-0.871,0.028-1.688,0.424-2.249,1.09c-3.34,3.953-8.315,10.564-11.995,15.471
	c-7.627,8.515-7.627,21.405,0,29.92C154.599,229.803,159.77,232.044,165.188,232.07z M131.724,158.257
	c-0.412-0.474-1.008-0.747-1.636-0.75c-0.628,0.003-1.224,0.276-1.636,0.75c-2.522,2.999-6.202,7.906-8.997,11.586
	c-5.693,6.365-5.693,15.991,0,22.355c5.728,5.929,15.177,6.091,21.106,0.363c0.123-0.119,0.244-0.24,0.363-0.363
	c5.601-6.399,5.601-15.956,0-22.355C137.926,166.095,134.177,161.188,131.724,158.257z M138.471,224.914
	c-0.466,0.006-0.91,0.203-1.227,0.545c-1.84,2.249-4.635,5.93-6.816,8.656c-4.266,4.723-4.266,11.907,0,16.63
	c2.077,2.183,4.961,3.415,7.974,3.408c3.034,0.01,5.939-1.221,8.042-3.408c4.174-4.758,4.174-11.872,0-16.63
	c-2.181-2.794-4.975-6.816-6.816-8.656C139.329,225.133,138.913,224.938,138.471,224.914z" />
    <path style="fill-rule:evenodd;clip-rule:evenodd;fill:#1976D2;" d="M272.738,272.623H27.377v-54.456H0.115v81.719H300v-81.719
	h-27.262V272.623z" />
</svg>