<svg version="1.1" xmlns="http://www.w3.org/2000/svg" xmlns:xlink="http://www.w3.org/1999/xlink" x="0px" y="0px"
    viewBox="0 0 300 300" style="enable-background:new 0 0 300 300;" xml:space="preserve">
    <g id="&#x56FE;&#x5C42;_2_00000037657836717562097940000000786696959204551061_">
        <g id="&#x56FE;&#x5C42;_1-2">
            <path style="fill:none;" d="M198.053,251.125c-0.69-1.527-1.822-2.811-3.25-3.688c-2.128-1.064-4.502-1.539-6.875-1.375
			c-2.272-0.063-4.525,0.43-6.562,1.437c-1.694,0.875-3.119,2.193-4.125,3.813c-1.048,1.768-1.748,3.719-2.062,5.75
			c-0.384,2.292-0.572,4.613-0.563,6.938c-0.042,2.489,0.126,4.977,0.5,7.438c0.292,2.017,0.994,3.952,2.062,5.688
			c1.015,1.565,2.442,2.82,4.125,3.625c2.111,0.899,4.394,1.326,6.688,1.25c2.415,0.162,4.825-0.381,6.938-1.562
			c1.469-0.928,2.624-2.279,3.313-3.875l0.688,4.812h8.125v-48.75h-9V251.125z M198.49,264c0.018,1.571-0.108,3.14-0.375,4.688
			c-0.166,1.213-0.57,2.381-1.188,3.438c-0.57,0.922-1.395,1.66-2.375,2.125c-1.19,0.484-2.466,0.718-3.75,0.688
			c-1.281,0.079-2.558-0.203-3.688-0.812c-0.949-0.499-1.715-1.287-2.188-2.25c-0.532-1.074-0.851-2.242-0.938-3.438
			c0-1.375,0-2.812,0-4.438c0-1.625,0-2.875,0-4.187c0.095-1.214,0.413-2.401,0.938-3.5c0.458-1.001,1.196-1.848,2.125-2.437
			c1.142-0.64,2.442-0.943,3.75-0.875c1.299-0.056,2.591,0.224,3.75,0.813c1.002,0.492,1.83,1.276,2.375,2.25
			c0.618,1.057,1.021,2.225,1.188,3.438C198.376,260.986,198.501,262.492,198.49,264z" />
            <path style="fill:none;"
                d="M74.365,162.812c9.188-9.812,6.25-25-0.75-34.75v-0.5c-4.375-5.812-9.75-13.062-14.25-18.75
			c-3.438,4.437-7.313,9.687-10.875,14.5l-3.438,4.75c-8.812,11.875-9.125,25.875-0.813,34.812
			c7.637,8.405,20.641,9.028,29.046,1.391c0.486-0.441,0.95-0.905,1.391-1.391L74.365,162.812z M68.865,159.562
			c-2.578,2.698-6.143,4.232-9.875,4.25c-2.692-0.034-4.847-2.245-4.813-4.937c0,0,0-0.001,0-0.001c-0.035-2.703,2.11-4.932,4.813-5
			c1.137-0.012,2.22-0.486,3-1.312c0.809-0.863,1.256-2.004,1.25-3.188c-0.304-2.675,1.618-5.09,4.293-5.395
			c2.675-0.304,5.09,1.618,5.395,4.293c0.042,0.366,0.042,0.736,0,1.102C72.933,153.167,71.478,156.815,68.865,159.562z" />
            <polygon style="fill:none;" points="138.24,283.25 144.865,283.25 161.615,234.938 155.053,234.938 		" />
            <path style="fill:none;" d="M165.428,162.812c9.187-9.812,6.562-25-0.75-34.75l-0.375-0.5c-4.313-5.812-9.75-13.062-14.25-18.75
			c-3.437,4.437-7.312,9.687-10.812,14.5l-3.5,4.75c-8.812,11.875-9.125,25.875-0.75,34.812c7.637,8.405,20.641,9.028,29.046,1.391
			c0.486-0.441,0.95-0.905,1.391-1.391V162.812z M159.99,159.562c-2.578,2.698-6.143,4.232-9.875,4.25
			c-2.658,0.001-4.813-2.153-4.814-4.811c0-0.042,0.001-0.084,0.002-0.127c-0.069-2.691,2.057-4.93,4.748-4.999
			c0.021-0.001,0.043-0.001,0.064-0.001c1.135-0.019,2.215-0.492,3-1.312c0.809-0.863,1.256-2.004,1.25-3.188
			c0-2.658,2.155-4.812,4.812-4.812s4.812,2.155,4.812,4.812l0,0C164.052,153.165,162.615,156.827,159.99,159.562z" />
            <path style="fill:none;" d="M121.428,249c-0.948-1.001-2.129-1.752-3.438-2.187c-1.696-0.539-3.471-0.793-5.25-0.75
			c-2.143-0.041-4.271,0.364-6.25,1.188c-1.743,0.71-3.196,1.987-4.125,3.625v-4.187H93.24v34.562h9v-22.875
			c0.319-1.526,1.244-2.856,2.562-3.688c1.402-0.745,2.975-1.111,4.562-1.062c0.931-0.03,1.861,0.097,2.75,0.375
			c0.64,0.208,1.205,0.599,1.625,1.125c0.449,0.586,0.749,1.272,0.875,2c0.078,0.998,0.078,2.002,0,3v21.125h9.25v-23.562
			c0.027-1.704-0.162-3.406-0.562-5.063C122.972,251.286,122.33,250.044,121.428,249z" />
            <path style="fill:none;" d="M256.365,162.812c9.125-9.812,6.25-25-0.75-34.75l-0.375-0.5c-4.312-5.812-9.75-13.062-14.25-18.75
			c-3.438,4.437-7.312,9.687-10.875,14.5l-3.438,4.75c-8.812,11.875-9.125,25.875-0.75,34.812
			c7.553,8.388,20.476,9.065,28.863,1.512c0.53-0.477,1.034-0.982,1.512-1.512L256.365,162.812z M250.928,159.562
			c-2.587,2.686-6.146,4.218-9.875,4.25c-2.692,0-4.875-2.182-4.875-4.875c0-0.021,0-0.042,0-0.063
			c-0.035-2.727,2.148-4.965,4.874-5c0,0,0.001,0,0.001,0c1.135-0.019,2.215-0.492,3-1.312c0.781-0.876,1.205-2.014,1.187-3.188
			c-0.304-2.675,1.618-5.09,4.293-5.395s5.09,1.618,5.395,4.293c0.042,0.366,0.042,0.736,0,1.102
			c0.063,3.767-1.324,7.414-3.875,10.188H250.928z" />
            <path style="fill:#1976D2;" d="M194.553,253.812c-1.159-0.589-2.451-0.869-3.75-0.812c-1.308-0.068-2.608,0.235-3.75,0.875
			c-0.929,0.59-1.667,1.436-2.125,2.438c-0.524,1.099-0.842,2.286-0.938,3.5c0,1.312,0,2.75,0,4.188c0,1.437,0,3.062,0,4.437
			c0.087,1.196,0.405,2.363,0.938,3.438c0.472,0.963,1.238,1.751,2.188,2.25c1.129,0.61,2.407,0.891,3.688,0.813
			c1.284,0.03,2.56-0.204,3.75-0.688c0.98-0.465,1.805-1.203,2.375-2.125c0.618-1.057,1.021-2.225,1.188-3.437
			c0.267-1.548,0.393-3.117,0.375-4.688c0.011-1.508-0.115-3.014-0.375-4.5c-0.166-1.213-0.57-2.381-1.188-3.438
			C196.382,255.089,195.554,254.304,194.553,253.812z" />
            <path style="fill:#1976D2;" d="M297.615,29.312h-295c-1.381,0-2.5,1.119-2.501,2.499c0,0.021,0,0.042,0.001,0.063v7.812
			c0,1.391,1.109,2.529,2.5,2.562h48.5v26.875c-0.035,1.449,1.112,2.652,2.562,2.687c0.021,0.001,0.042,0.001,0.063,0.001h10.75
			c1.449-0.034,2.597-1.237,2.563-2.686c0,0,0-0.001,0-0.001V42.25h75v26.875c-0.035,1.449,1.112,2.653,2.561,2.687
			c0.001,0,0.001,0,0.001,0h10.812c1.449-0.034,2.597-1.237,2.563-2.686c0,0,0-0.001,0-0.001V42.25h75v26.875
			c-0.035,1.449,1.112,2.652,2.562,2.687c0.021,0.001,0.042,0.001,0.063,0.001h10.75c1.449-0.034,2.597-1.237,2.563-2.686
			c0,0,0-0.001,0-0.001V42.25h48.688c1.391-0.034,2.5-1.171,2.5-2.562v-7.813c0.035-1.38-1.056-2.527-2.437-2.562
			C297.657,29.313,297.636,29.312,297.615,29.312z" />
            <path style="fill:#1976D2;" d="M297.615,0h-295c-1.381,0-2.5,1.119-2.501,2.499c0,0.021,0,0.042,0.001,0.063v7.812
			c-0.035,1.38,1.056,2.527,2.437,2.562c0.021,0.001,0.042,0.001,0.063,0.001h295c1.381,0,2.5-1.118,2.501-2.499
			c0-0.021,0-0.042-0.001-0.063V2.562c0.035-1.38-1.056-2.527-2.437-2.562C297.657,0,297.636,0,297.615,0z" />
            <path style="fill:#1976D2;"
                d="M68.115,144.375c-2.702,0.068-4.848,2.297-4.812,5c0.006,1.183-0.441,2.324-1.25,3.188
			c-0.78,0.827-1.863,1.3-3,1.312c-2.702,0.068-4.848,2.297-4.812,5c-0.035,2.692,2.12,4.903,4.812,4.938c0,0,0.001,0,0.001,0
			c3.71-0.035,7.249-1.567,9.812-4.25c2.628-2.763,4.084-6.437,4.062-10.25C72.928,146.634,70.793,144.443,68.115,144.375z" />
            <path style="fill:#1976D2;" d="M83.74,172.062c12.591-15.094,12.591-37.031,0-52.125l-3-3.875
			c-5.625-7.5-11.875-16.062-16.25-21.438c-1.313-1.638-3.277-2.62-5.375-2.688h-0.813c-1.87,0.207-3.579,1.152-4.75,2.625
			c-4.5,5.562-10.75,14.063-16.312,21.562l-2.75,3.75c-12.5,17.312-12.5,38.25,0,52.062c12.345,13.548,33.335,14.524,46.884,2.179
			c0.76-0.692,1.487-1.419,2.179-2.179L83.74,172.062z M43.865,162.812c-8.312-8.938-8-22.938,0.812-34.812l3.438-4.75
			c3.562-4.812,7.438-10.062,10.875-14.5c4.5,5.75,9.875,13,14.25,18.75v0.5c7.312,9.812,9.938,25,0.75,34.75l0,0
			c-7.637,8.405-20.641,9.028-29.046,1.391c-0.486-0.441-0.95-0.905-1.391-1.391L43.865,162.812z" />
            <path style="fill:#1976D2;" d="M159.178,144.375c-2.692,0.034-4.847,2.243-4.814,4.936c0,0.022,0.001,0.043,0.001,0.064
			c0.006,1.183-0.441,2.324-1.25,3.188c-0.785,0.821-1.865,1.293-3,1.312c-2.692,0.034-4.847,2.243-4.814,4.936
			c0,0.021,0.001,0.043,0.001,0.064c-0.069,2.657,2.029,4.867,4.686,4.936c0.042,0.001,0.084,0.002,0.127,0.002
			c3.732-0.018,7.297-1.552,9.875-4.25c2.64-2.751,4.079-6.438,4-10.25C164.025,146.62,161.871,144.41,159.178,144.375
			C159.178,144.375,159.178,144.375,159.178,144.375z" />
            <path style="fill:#1976D2;"
                d="M175.115,172.062c12.591-15.094,12.591-37.031,0-52.125l-2.937-3.875
			c-5.625-7.5-12.062-16-16.438-21.438c-1.319-1.631-3.279-2.611-5.375-2.688h-0.812c-1.876,0.187-3.594,1.136-4.75,2.625
			c-4.562,5.562-10.812,14.062-16.312,21.563l-2.75,3.75c-12.812,17.312-12.5,38.25,0,52.062
			c12.345,13.548,33.335,14.524,46.884,2.179c0.76-0.692,1.487-1.419,2.179-2.179L175.115,172.062z M135.303,162.812
			c-8.375-8.938-8.063-22.938,0.75-34.812l3.5-4.75c3.5-4.812,7.375-10.062,10.812-14.5c4.5,5.75,9.938,13,14.25,18.75l0.375,0.5
			c7.312,9.812,9.938,25,0.75,34.75l0,0c-7.637,8.405-20.641,9.028-29.046,1.391c-0.486-0.441-0.95-0.905-1.391-1.391V162.812z" />
            <path style="fill:#1976D2;" d="M250.115,144.375c-2.727,0.034-4.909,2.273-4.875,4.999c0,0,0,0.001,0,0.001
			c0.017,1.174-0.407,2.311-1.187,3.188c-0.785,0.821-1.865,1.293-3,1.312c-2.727,0.034-4.909,2.273-4.875,4.999
			c0,0,0,0.001,0,0.001c-0.035,2.692,2.12,4.903,4.812,4.937c0.021,0,0.042,0,0.063,0c3.729-0.032,7.288-1.564,9.875-4.25
			c2.611-2.769,4.045-6.444,4-10.25C254.928,146.634,252.793,144.443,250.115,144.375z" />
            <path style="fill:#1976D2;" d="M265.803,172.062c12.591-15.094,12.591-37.031,0-52.125l-2.938-3.875
			c-5.625-7.5-12.062-16-16.5-21.438c-1.294-1.628-3.234-2.61-5.312-2.688h-0.812c-1.876,0.187-3.594,1.136-4.75,2.625
			c-4.125,5.438-10.375,14.125-16.125,21.625l-2.75,3.75c-12.5,17.312-12.5,38.25,0,52.062
			c12.313,13.531,33.263,14.519,46.794,2.206c0.77-0.7,1.506-1.437,2.206-2.206L265.803,172.062z M226.053,162.812
			c-8.375-8.938-8.063-22.938,0.75-34.812l3.438-4.75c3.562-4.812,7.437-10.062,10.875-14.5c4.5,5.75,9.938,13,14.25,18.75
			l0.375,0.5c7.312,9.812,9.875,25,0.75,34.75l0,0c-7.553,8.388-20.476,9.065-28.863,1.512c-0.53-0.477-1.034-0.982-1.512-1.512
			L226.053,162.812z" />
            <path style="fill:#1976D2;" d="M297.615,195.688h-50.75l-96,31.25c-0.482,0.188-1.018,0.188-1.5,0l-97.375-31.25H2.615
			c-1.381,0-2.5,1.118-2.501,2.499c0,0.021,0,0.042,0.001,0.063v99.125c-0.035,1.415,1.084,2.59,2.498,2.625
			c0.001,0,0.001,0,0.002,0h295c1.415-0.034,2.534-1.209,2.5-2.623c0,0,0-0.001,0-0.002V198.25c0.035-1.38-1.056-2.527-2.437-2.562
			C297.657,195.688,297.636,195.687,297.615,195.688z M123.865,281.25h-9V260c0.078-0.998,0.078-2.002,0-3
			c-0.126-0.728-0.426-1.414-0.875-2c-0.42-0.526-0.985-0.917-1.625-1.125c-0.889-0.278-1.819-0.405-2.75-0.375
			c-1.587-0.049-3.16,0.317-4.562,1.062c-1.319,0.831-2.243,2.162-2.562,3.688v23h-9.25v-34.562h9v4.187
			c0.929-1.638,2.382-2.915,4.125-3.625c1.979-0.824,4.107-1.228,6.25-1.187c1.779-0.043,3.554,0.211,5.25,0.75
			c1.308,0.435,2.489,1.186,3.437,2.188c0.902,1.044,1.544,2.286,1.875,3.625c0.4,1.657,0.59,3.358,0.562,5.063L123.865,281.25z
			 M144.865,283.125h-6.625l16.812-48.312h6.562L144.865,283.125z M206.99,281.25h-8.125l-0.688-4.812
			c-0.689,1.596-1.843,2.947-3.312,3.875c-2.112,1.181-4.523,1.724-6.938,1.562c-2.294,0.076-4.576-0.351-6.688-1.25
			c-1.683-0.805-3.11-2.06-4.125-3.625c-1.068-1.735-1.77-3.671-2.062-5.688c-0.395-2.459-0.583-4.947-0.562-7.438
			c0.018-2.284,0.228-4.563,0.625-6.812c0.315-2.031,1.015-3.982,2.062-5.75c1.023-1.628,2.471-2.947,4.188-3.813
			c2.075-1.027,4.374-1.521,6.688-1.437c2.373-0.164,4.747,0.311,6.875,1.375c1.428,0.876,2.56,2.161,3.25,3.688v-18.75h8.812
			V281.25z" />
        </g>
    </g>
</svg>