<svg version="1.1" xmlns="http://www.w3.org/2000/svg" xmlns:xlink="http://www.w3.org/1999/xlink" x="0px" y="0px"
    viewBox="0 0 300 300" style="enable-background:new 0 0 300 300;" xml:space="preserve">
    <g id="&#x56FE;&#x5C42;_2_00000077288051786322495260000002722778212522229650_">
        <g id="&#x56FE;&#x5C42;_1-2">
            <path style="fill:#1976D2;" d="M297.615,29.312h-295c-1.381,0-2.5,1.119-2.501,2.499c0,0.021,0,0.042,0.001,0.063v7.812
			c0,1.391,1.109,2.529,2.5,2.562h48.5v26.875c-0.035,1.449,1.112,2.652,2.562,2.687c0.021,0.001,0.042,0.001,0.063,0.001h10.75
			c1.449-0.034,2.597-1.237,2.563-2.686c0,0,0-0.001,0-0.001V42.25h75v26.875c-0.035,1.449,1.112,2.653,2.561,2.687
			c0.001,0,0.001,0,0.001,0h10.812c1.449-0.034,2.597-1.237,2.563-2.686c0,0,0-0.001,0-0.001V42.25h75v26.875
			c-0.035,1.449,1.112,2.652,2.562,2.687c0.021,0.001,0.042,0.001,0.063,0.001h10.75c1.449-0.034,2.597-1.237,2.563-2.686
			c0,0,0-0.001,0-0.001V42.25h48.687c1.391-0.034,2.5-1.171,2.5-2.562v-7.813c0.035-1.38-1.056-2.527-2.437-2.562
			C297.657,29.313,297.636,29.312,297.615,29.312z" />
            <path style="fill:#1976D2;" d="M297.615,0h-295c-1.381,0-2.5,1.119-2.501,2.499c0,0.021,0,0.042,0.001,0.063v7.812
			c-0.035,1.38,1.056,2.527,2.437,2.562c0.021,0.001,0.042,0.001,0.063,0.001h295c1.381,0,2.5-1.118,2.501-2.499
			c0-0.021,0-0.042-0.001-0.063V2.562c0.035-1.38-1.056-2.527-2.437-2.562C297.657,0,297.636,0,297.615,0z" />
            <path style="fill:#1976D2;" d="M59.053,163.812c3.71-0.035,7.249-1.567,9.812-4.25c2.628-2.763,4.084-6.437,4.062-10.25
			c0.304-2.675-1.618-5.09-4.293-5.395c-2.675-0.304-5.09,1.618-5.395,4.293c-0.042,0.366-0.042,0.736,0,1.102
			c-0.006,1.181-0.452,2.317-1.25,3.188c-0.78,0.827-1.863,1.3-3,1.312c-2.702,0.068-4.848,2.297-4.812,5
			c-0.069,2.692,2.057,4.929,4.748,4.998C58.968,163.812,59.01,163.812,59.053,163.812z" />
            <path style="fill:#1976D2;" d="M59.24,182.875c9.313-0.049,18.187-3.965,24.5-10.812c12.591-15.094,12.591-37.031,0-52.125
			l-3-3.875c-5.625-7.5-11.875-16.062-16.25-21.438c-1.313-1.638-3.277-2.62-5.375-2.688h-0.812c-1.87,0.207-3.579,1.152-4.75,2.625
			c-4.5,5.562-10.75,14.063-16.312,21.562l-2.75,3.75c-12.5,17.312-12.5,38.25,0,52.062C40.83,178.908,49.818,182.879,59.24,182.875
			z M44.74,128l3.438-4.75c3.563-4.812,7.438-10.062,10.875-14.5c4.5,5.75,9.875,13,14.25,18.75v0.5
			c7.312,9.812,9.938,25,0.75,34.75l0,0c-7.637,8.405-20.641,9.028-29.046,1.391c-0.486-0.441-0.95-0.905-1.391-1.391
			C35.615,153.875,35.928,139.875,44.74,128z" />
            <path style="fill:#1976D2;" d="M159.178,144.375c-2.692,0.034-4.847,2.243-4.814,4.936c0,0.022,0.001,0.043,0.001,0.064
			c-0.006,1.181-0.452,2.317-1.25,3.188c-0.785,0.821-1.865,1.293-3,1.312c-2.692,0.034-4.847,2.243-4.814,4.936
			c0,0.021,0.001,0.043,0.001,0.064c-0.069,2.657,2.029,4.867,4.686,4.936c0.042,0.001,0.084,0.002,0.127,0.002
			c3.732-0.018,7.297-1.552,9.875-4.25c2.64-2.751,4.079-6.438,4-10.25C164.025,146.62,161.871,144.41,159.178,144.375
			C159.178,144.375,159.178,144.375,159.178,144.375z" />
            <path style="fill:#1976D2;"
                d="M175.115,172.062c12.591-15.094,12.591-37.031,0-52.125l-2.938-3.875
			c-5.625-7.5-12.062-16-16.438-21.438c-1.319-1.631-3.279-2.611-5.375-2.688h-0.812c-1.876,0.187-3.594,1.136-4.75,2.625
			c-4.562,5.562-10.812,14.062-16.312,21.563l-2.75,3.75c-12.812,17.312-12.5,38.25,0,52.062
			c12.345,13.548,33.335,14.524,46.884,2.179c0.76-0.692,1.487-1.419,2.179-2.179L175.115,172.062z M135.303,162.812
			c-8.375-8.938-8.063-22.938,0.75-34.812l3.5-4.75c3.5-4.812,7.375-10.062,10.812-14.5c4.5,5.75,9.938,13,14.25,18.75l0.375,0.5
			c7.312,9.812,9.938,25,0.75,34.75l0,0c-7.637,8.405-20.641,9.028-29.046,1.391c-0.486-0.441-0.95-0.905-1.391-1.391V162.812z" />
            <path style="fill:#1976D2;" d="M241.178,163.812c3.732-0.018,7.297-1.552,9.875-4.25c2.64-2.751,4.079-6.438,4-10.25
			c0.304-2.675-1.618-5.09-4.293-5.395s-5.09,1.618-5.395,4.293c-0.042,0.366-0.042,0.736,0,1.102
			c0.017,1.174-0.407,2.311-1.187,3.188c-0.785,0.821-1.865,1.293-3,1.312c-2.727,0.034-4.909,2.273-4.875,4.999
			c0,0,0,0.001,0,0.001c-0.069,2.692,2.057,4.929,4.748,4.998C241.093,163.812,241.135,163.812,241.178,163.812z" />
            <path style="fill:#1976D2;" d="M241.303,182.875c9.318-0.026,18.201-3.946,24.5-10.812c12.591-15.094,12.591-37.031,0-52.125
			l-2.938-3.875c-5.625-7.5-12.062-16-16.5-21.438c-1.294-1.628-3.234-2.61-5.312-2.688h-0.813c-1.876,0.187-3.594,1.136-4.75,2.625
			c-4.125,5.438-10.375,14.125-16.125,21.625l-2.75,3.75c-12.5,17.312-12.5,38.25,0,52.062
			C222.933,178.957,231.905,182.909,241.303,182.875z M226.803,128l3.437-4.75c3.562-4.812,7.438-10.062,10.875-14.5
			c4.5,5.75,9.938,13,14.25,18.75l0.375,0.5c7.312,9.812,9.875,25,0.75,34.75l0,0c-7.553,8.388-20.476,9.065-28.863,1.512
			c-0.53-0.477-1.034-0.982-1.512-1.512C217.678,153.875,217.99,139.875,226.803,128z" />
            <path style="fill:#1976D2;" d="M287.928,202.312c-6.75,0-12.5,3.312-12.5,7.375c0,7.375-9.938,13.375-22.188,13.375
			s-21.875-6-21.875-13.375c0-4.063-5.5-7.375-12.5-7.375c-7,0-12.5,3.312-12.5,7.375c0,7.375-10,13.375-22.25,13.375
			c-12.25,0-21.5-6-21.5-13.375c0-4.063-5.438-7.375-12.188-7.375s-12.188,3.312-12.188,7.375c0,7.375-10,13.375-22.25,13.375
			s-22.25-6.25-22.25-13.375c0-4.063-5.438-7.375-12.188-7.375s-12.5,3.312-12.5,7.375c0,7.375-9.938,13.375-22.25,13.375
			s-22.188-6.25-22.188-13.375c0-4.063-5.5-7.375-12.5-7.375s-8.75,20.438-8.75,24.5v71.312c0,1.062,1.062,1.875,2.437,1.875
			h288.625c1.375,0,2.438-0.812,2.438-1.875v-71.312C296.865,222.75,296.865,202.312,287.928,202.312z" />
        </g>
    </g>
</svg>