<svg fill="#1976d2" viewBox="0 0 44 44" xmlns="http://www.w3.org/2000/svg" fill-rule="evenodd" clip-rule="evenodd" stroke-linejoin="round" stroke-miterlimit="2">
        <path d="M0 0v17.75h16v4h12v-4h16V0Zm40.33 13.76H3.67V4h36.66Z" />
        <path
            d="M9.56 6.88h24.87v4H9.56zM24.22 34.05a2.93 2.93 0 0 0 2.12-.91 3.34 3.34 0 0 0 0-4.39c-.58-.73-1.32-1.7-1.81-2.27a.4.4 0 0 0-.32-.16.45.45 0 0 0-.33.16c-.49.58-1.22 1.55-1.76 2.27a3.29 3.29 0 0 0 0 4.39 2.91 2.91 0 0 0 2.1.91ZM19.31 23.22a.32.32 0 0 0-.24-.11.32.32 0 0 0-.24.11c-.37.44-.91 1.16-1.32 1.7a2.46 2.46 0 0 0 0 3.28 2.19 2.19 0 0 0 3.15 0 2.49 2.49 0 0 0 0-3.28c-.44-.55-.99-1.27-1.35-1.7ZM20.3 33a.25.25 0 0 0-.18.08c-.27.33-.68.87-1 1.27a1.82 1.82 0 0 0 0 2.44 1.61 1.61 0 0 0 1.17.5 1.63 1.63 0 0 0 1.18-.5 1.85 1.85 0 0 0 0-2.44c-.32-.41-.73-1-1-1.27a.25.25 0 0 0-.17-.08Z"
        />
        <path d="M40 40H4v-7.99H0V44h44V32.01h-4V40z" />
    </svg>
