<svg version="1.1" xmlns="http://www.w3.org/2000/svg" xmlns:xlink="http://www.w3.org/1999/xlink" x="0px" y="0px"
    viewBox="0 0 300 300" style="enable-background:new 0 0 300 300;" xml:space="preserve">
    <path style="fill-rule:evenodd;clip-rule:evenodd;fill:#1976D2;"
        d="M265.82,53.591l-19.295-19.295l-28.909,28.909L236.911,82.5
	C236.911,82.5,265.82,53.591,265.82,53.591z M34.438,246.389l28.93-28.93l19.282,19.289L53.726,265.67L34.438,246.389z M136.479,0
	h27.273v40.909h-27.273V0z M82.615,63.205L53.706,34.295L34.411,53.591L63.32,82.5L82.615,63.205z M0.115,136.364h40.909v27.273
	H0.115V136.364z M217.642,236.816l19.289-19.289l28.923,28.93l-19.282,19.289L217.642,236.816z M259.206,136.364h40.909v27.273
	h-40.909V136.364z M136.479,259.091h27.273V300h-27.273V259.091z M150.115,68.182c-45.187,0-81.818,36.631-81.818,81.818
	s36.631,81.818,81.818,81.818s81.818-36.631,81.818-81.818S195.302,68.182,150.115,68.182z M150.115,204.545
	c-30.125,0-54.545-24.421-54.545-54.545s24.421-54.545,54.545-54.545s54.545,24.421,54.545,54.545S180.24,204.545,150.115,204.545z" />
    <circle style="fill-rule:evenodd;clip-rule:evenodd;fill:#1976D2;" cx="150.115" cy="150" r="27.273" />
</svg>