<svg version="1.1" xmlns="http://www.w3.org/2000/svg" xmlns:xlink="http://www.w3.org/1999/xlink" x="0px" y="0px"
    viewBox="0 0 300 300" style="enable-background:new 0 0 300 300;" xml:space="preserve">
    <path style="fill-rule:evenodd;clip-rule:evenodd;fill:#1976D2;" d="M205.404,225.406v-27.435h13.717
	c30.304-0.002,54.868-24.569,54.867-54.873S249.42,88.23,219.116,88.232c-10.475,0.001-20.73,2.999-29.555,8.642
	c-10.375-44.256-54.662-71.721-98.918-61.346S18.922,90.19,29.297,134.445c7.56,32.247,33.713,56.821,66.368,62.359v27.778
	C35.559,216.803-6.86,161.771,0.92,101.665S63.732-0.86,123.838,6.92c34.352,4.446,64.589,24.85,81.567,55.043
	c44.954-6.732,86.854,24.254,93.586,69.208c6.553,43.761-22.667,84.872-66.151,93.069c-4.534,0.755-9.121,1.144-13.717,1.166
	H205.404z M126.255,235.488l24.28-24.28l24.28,24.28c13.376,13.409,13.348,35.123-0.061,48.498
	c-13.409,13.375-35.123,13.348-48.498-0.061C112.903,270.54,112.903,248.873,126.255,235.488z" />
</svg>