<svg version="1.1" xmlns="http://www.w3.org/2000/svg" xmlns:xlink="http://www.w3.org/1999/xlink" x="0px" y="0px"
    viewBox="0 0 300 300" style="enable-background:new 0 0 300 300;" xml:space="preserve">
    <path style="fill-rule:evenodd;clip-rule:evenodd;fill:#1976D2;"
        d="M219.761,229.302V201.88h6.855
	c26.503-0.041,47.954-21.559,47.913-48.062c-0.041-26.503-21.559-47.954-48.062-47.913c-12.834,0.02-25.126,5.18-34.128,14.328
	v-0.686c-0.024-45.434-36.874-82.245-82.308-82.222C64.598,37.349,27.786,74.2,27.81,119.633
	c0.018,34.847,21.989,65.901,54.843,77.517v28.724C24.022,210.639-11.158,150.759,4.077,92.128S79.191-1.683,137.822,13.552
	c34.065,8.851,61.813,33.512,74.603,66.302c41.11-6.667,79.842,21.254,86.509,62.364c6.404,39.484-19.135,77.098-58.196,85.712
	c-4.63,0.904-9.336,1.363-14.054,1.371H219.761z M164.918,201.88h41.132L137.496,291v-61.698H96.364l68.554-89.12V201.88z" />
</svg>