<svg version="1.1" xmlns="http://www.w3.org/2000/svg" xmlns:xlink="http://www.w3.org/1999/xlink" x="0px" y="0px"
    viewBox="0 0 300 300" style="enable-background:new 0 0 300 300;" xml:space="preserve">
    <g id="&#x56FE;&#x5C42;_2_00000088115269672824171080000004782525680207874748_">
        <g id="&#x56FE;&#x5C42;_1-2">
            <path style="fill:#1976D2;" d="M160.56,76.307c-2.564,0.034-4.625,2.123-4.625,4.687c-0.006,1.609-0.633,3.154-1.75,4.312
			c-1.094,1.189-2.634,1.868-4.25,1.875c-2.589,0-4.687,2.099-4.687,4.687c-0.139,2.55,1.816,4.731,4.366,4.87
			c0.128,0.007,0.256,0.009,0.384,0.005c4.09-0.001,8.008-1.645,10.875-4.562c2.852-2.925,4.445-6.852,4.437-10.937
			c0.138-2.585-1.845-4.793-4.43-4.931C160.774,76.307,160.667,76.305,160.56,76.307z" />
            <path style="fill:#1976D2;" d="M179.185,47.432l-3.5-4.437c-6.625-8.75-14.187-18.25-19.437-24.437
			c-1.551-1.866-3.825-2.98-6.25-3.062h-1c-2.072,0.327-3.945,1.42-5.25,3.062c-5.375,6.25-12.5,16.062-19.25,24.625l-3.25,4.312
			c-15.062,19.75-14.937,43.749,0,59.374c15.119,15.964,40.318,16.649,56.282,1.53c0.524-0.496,1.034-1.006,1.53-1.53
			C193.748,91.432,193.748,66.432,179.185,47.432z M166.685,56.119l0.375,0.562c8.625,11.25,11.687,28.5,0.875,39.687l0,0
			c-9.617,9.906-25.445,10.141-35.351,0.524c-0.177-0.172-0.352-0.346-0.524-0.524c-9.812-10.25-9.437-26.187,0.937-39.749
			l4.062-5.375c4.187-5.5,8.75-11.5,12.812-16.562C155.186,41.245,161.56,49.495,166.685,56.119z" />
            <path style="fill:#1976D2;" d="M78.937,188.993c-1.216-0.02-2.389,0.454-3.25,1.312c-0.907,0.885-1.405,2.108-1.375,3.375
			c0.034,2.54,2.085,4.591,4.625,4.625c1.267,0.03,2.49-0.468,3.375-1.375c0.859-0.861,1.332-2.034,1.312-3.25
			c0.106-2.483-1.821-4.582-4.304-4.687C79.192,188.987,79.064,188.987,78.937,188.993z" />
            <path style="fill:#1976D2;" d="M184.623,188.93c-2.564,0.034-4.625,2.123-4.625,4.687c-0.01,1.165,0.439,2.288,1.25,3.125
			c0.861,0.859,2.034,1.332,3.25,1.312c1.254,0.025,2.467-0.447,3.375-1.312c0.879-0.878,1.374-2.07,1.375-3.312
			c0-2.589-2.098-4.688-4.687-4.688c-0.021,0-0.042,0-0.063,0L184.623,188.93z" />
            <path style="fill:#1976D2;" d="M291.621,125.619c-4.625-0.002-8.377,3.746-8.379,8.371c0,0.085,0.001,0.169,0.004,0.254
			c0.07,14.911-11.961,27.056-26.872,27.126c-10.303,0.048-19.736-5.771-24.315-15.002c-2.121-4.268-6.484-6.959-11.25-6.937l0,0
			c-4.743,0.003-9.077,2.69-11.187,6.937c-6.704,13.358-22.967,18.753-36.326,12.049c-5.209-2.614-9.435-6.84-12.049-12.049
			c-2.049-4.365-6.427-7.162-11.25-7.187l0,0c-4.766-0.021-9.129,2.669-11.25,6.937c-6.704,13.358-22.967,18.753-36.326,12.049
			c-5.209-2.614-9.435-6.84-12.049-12.049c-2.111-4.248-6.444-6.935-11.187-6.937l0,0c-4.766-0.021-9.129,2.669-11.25,6.937
			c-6.626,13.358-22.827,18.816-36.185,12.19c-9.15-4.538-14.955-13.851-15.002-24.065c0-4.625-3.75-8.375-8.375-8.375
			S0,129.618,0,134.243l0,0c0,82.842,67.156,149.998,149.998,149.998s149.998-67.156,149.998-149.998
			c0.138-4.623-3.498-8.483-8.121-8.621C291.79,125.62,291.706,125.619,291.621,125.619z M83.811,205.118
			c-1.533,0.683-3.197,1.024-4.875,1c-1.658,0.025-3.302-0.316-4.812-1c-1.473-0.606-2.811-1.499-3.937-2.625
			c-1.163-1.122-2.096-2.46-2.75-3.937c-0.623-1.55-0.941-3.205-0.937-4.875c-0.017-1.671,0.302-3.329,0.937-4.875
			c0.646-1.5,1.581-2.859,2.75-4c1.14-1.125,2.474-2.036,3.937-2.687c1.511-0.684,3.154-1.025,4.812-1
			c1.678-0.024,3.342,0.317,4.875,1c3.019,1.267,5.42,3.668,6.687,6.687c0.657,1.542,0.997,3.199,1,4.875
			c-0.018,1.674-0.357,3.329-1,4.875c-0.652,1.463-1.562,2.797-2.687,3.937C86.66,203.617,85.301,204.508,83.811,205.118z
			 M128.436,241.055c-1.843,0.775-3.774,1.321-5.75,1.625c-2.391,0.439-4.819,0.648-7.25,0.625
			c-3.577,0.046-7.146-0.353-10.625-1.187c-3.023-0.676-5.82-2.118-8.125-4.187c-2.434-2.3-4.241-5.182-5.25-8.375
			c-1.325-4.438-1.937-9.058-1.812-13.687c-0.123-4.363,0.49-8.715,1.812-12.875c0.995-3.221,2.778-6.143,5.187-8.5
			c2.282-2.192,5.075-3.782,8.125-4.625c3.457-0.97,7.035-1.433,10.625-1.375c4.236-0.137,8.464,0.455,12.5,1.75v10.062
			c-1.751-0.591-3.549-1.03-5.375-1.312c-2.063-0.361-4.156-0.529-6.25-0.5c-2.118-0.073-4.233,0.223-6.25,0.875
			c-1.679,0.534-3.174,1.53-4.312,2.875c-1.236,1.575-2.092,3.415-2.5,5.375c-0.606,2.707-0.879,5.477-0.812,8.25
			c-0.068,2.876,0.205,5.75,0.812,8.562c0.4,1.944,1.257,3.765,2.5,5.312c1.128,1.287,2.604,2.22,4.25,2.687
			c2.033,0.574,4.138,0.847,6.25,0.812c2.093-0.007,4.182-0.174,6.25-0.5c2.127-0.358,4.218-0.902,6.25-1.625L128.436,241.055z
			 M144.998,244.867h-8.125l20.75-57.999h8.125L144.998,244.867z M196.185,198.493c-0.613,1.503-1.528,2.864-2.687,4
			c-1.171,1.1-2.525,1.988-4,2.625c-3.098,1.302-6.59,1.302-9.687,0c-1.448-0.652-2.778-1.539-3.937-2.625
			c-1.18-1.118-2.098-2.484-2.687-4c-0.683-1.533-1.024-3.197-1-4.875c-0.013-1.677,0.328-3.338,1-4.875
			c1.298-2.962,3.663-5.327,6.625-6.625c3.098-1.302,6.59-1.302,9.687,0c1.516,0.589,2.882,1.507,4,2.687
			c1.14,1.128,2.053,2.465,2.687,3.937c0.672,1.537,1.013,3.198,1,4.875C197.209,195.296,196.868,196.96,196.185,198.493z
			 M232.497,199.305h-20.875v12.5h19.625v9.937h-19.375v20.75h-11.875V189.18h32.5V199.305z" />
        </g>
    </g>
</svg>