<svg version="1.1" xmlns="http://www.w3.org/2000/svg" xmlns:xlink="http://www.w3.org/1999/xlink" x="0px" y="0px"
    viewBox="0 0 300 300" style="enable-background:new 0 0 300 300;" xml:space="preserve">
    <g id="&#x56FE;&#x5C42;_2_00000085961162566943034040000004205192918248677027_">
        <g id="&#x56FE;&#x5C42;_1-2">
            <path style="fill:#1976D2;" d="M160.56,75.432c-3.038,0-5.5,2.462-5.5,5.5c0,0.021,0,0.042,0,0.063
			c0.027,1.401-0.514,2.754-1.5,3.75c-0.963,0.967-2.261,1.527-3.625,1.562c-3.055-0.325-5.795,1.888-6.12,4.942
			s1.888,5.795,4.942,6.12c0.391,0.042,0.786,0.042,1.178,0c4.326,0.017,8.475-1.72,11.5-4.812
			c3.033-3.081,4.719-7.239,4.687-11.562C166.123,77.922,163.633,75.432,160.56,75.432L160.56,75.432z" />
            <path style="fill:#1976D2;" d="M179.185,47.432l-3.5-4.437c-6.625-8.75-14.187-18.25-19.437-24.437
			c-1.551-1.866-3.825-2.98-6.25-3.062h-1c-2.072,0.327-3.945,1.42-5.25,3.062c-5.375,6.25-12.5,16.062-19.25,24.625l-3.25,4.312
			c-15.062,19.75-14.937,43.749,0,59.374c15.119,15.964,40.318,16.649,56.282,1.53c0.524-0.496,1.034-1.006,1.53-1.53
			C193.748,91.432,193.748,66.432,179.185,47.432z M166.685,56.119l0.375,0.562c8.625,11.25,11.687,28.5,0.875,39.687l0,0
			c-9.617,9.906-25.445,10.141-35.351,0.524c-0.177-0.172-0.352-0.346-0.524-0.524c-9.812-10.25-9.437-26.187,0.937-39.749
			l4.062-5.375c4.187-5.5,8.75-11.5,12.812-16.562C155.186,41.245,161.56,49.495,166.685,56.119z" />
            <path style="fill:#1976D2;" d="M127.436,202.368c-0.992-0.821-2.174-1.38-3.437-1.625c-1.706-0.352-3.445-0.52-5.187-0.5h-5.187
			v19.125h5.125c1.761,0.039,3.52-0.107,5.25-0.438c1.236-0.237,2.395-0.773,3.375-1.562c0.891-0.782,1.541-1.8,1.875-2.937
			c0.751-2.995,0.751-6.13,0-9.125C128.932,204.175,128.304,203.157,127.436,202.368z" />
            <path style="fill:#1976D2;" d="M291.621,125.619c-4.625-0.002-8.377,3.746-8.379,8.371c0,0.085,0.001,0.169,0.004,0.254
			c0.07,14.911-11.961,27.056-26.872,27.126c-10.303,0.048-19.736-5.771-24.315-15.002c-2.121-4.268-6.484-6.959-11.25-6.937l0,0
			c-4.743,0.003-9.077,2.69-11.187,6.937c-6.704,13.358-22.967,18.753-36.326,12.049c-5.209-2.614-9.435-6.84-12.049-12.049
			c-2.049-4.365-6.427-7.162-11.25-7.187l0,0c-4.766-0.021-9.129,2.669-11.25,6.937c-6.661,13.341-22.876,18.756-36.217,12.095
			c-5.236-2.614-9.48-6.859-12.095-12.095c-2.121-4.268-6.484-6.959-11.25-6.937l0,0c-4.766-0.021-9.129,2.669-11.25,6.937
			c-6.626,13.358-22.827,18.816-36.185,12.19c-9.15-4.538-14.955-13.851-15.002-24.065c0-4.625-3.75-8.375-8.375-8.375
			S0,129.618,0,134.243l0,0c0,82.842,67.156,149.998,149.998,149.998s149.998-67.156,149.998-149.998
			c0.138-4.623-3.498-8.483-8.121-8.621C291.79,125.62,291.706,125.619,291.621,125.619z M141.123,218.742
			c-0.666,2.411-2.011,4.581-3.875,6.25c-1.957,1.671-4.298,2.83-6.812,3.375c-3.286,0.7-6.64,1.035-10,1h-6.812v17.125h-12.5
			v-55.999h19.062c3.513-0.074,7.021,0.304,10.437,1.125c2.502,0.529,4.826,1.691,6.75,3.375c1.726,1.562,2.981,3.575,3.625,5.812
			c0.784,2.805,1.143,5.713,1.062,8.625C142.245,212.564,141.928,215.708,141.123,218.742z M198.622,246.305h-12.125v-24.562h-22
			v24.625h-12.187v-55.874h12.187v20.875h22v-20.875h12.125L198.622,246.305z" />
        </g>
    </g>
</svg>