<svg version="1.1" xmlns="http://www.w3.org/2000/svg" xmlns:xlink="http://www.w3.org/1999/xlink" x="0px" y="0px"
    viewBox="0 0 300 300" style="enable-background:new 0 0 300 300;" xml:space="preserve">
    <g id="&#x56FE;&#x5C42;_2_00000129921466881684591160000000733361768099981485_">
        <g id="&#x56FE;&#x5C42;_1-2">
            <path style="fill:#1976D2;" d="M291.621,125.619c-4.625-0.002-8.377,3.746-8.379,8.371c0,0.085,0.001,0.169,0.004,0.254
			c0.07,14.911-11.961,27.056-26.872,27.126c-10.303,0.048-19.736-5.771-24.315-15.002c-2.121-4.268-6.484-6.959-11.25-6.937l0,0
			c-4.743,0.003-9.077,2.69-11.187,6.937c-6.704,13.358-22.967,18.753-36.326,12.049c-5.209-2.614-9.435-6.84-12.049-12.049
			c-2.049-4.365-6.427-7.162-11.25-7.187l0,0c-4.766-0.021-9.129,2.669-11.25,6.937c-6.704,13.358-22.967,18.753-36.326,12.049
			c-5.209-2.614-9.435-6.84-12.049-12.049c-2.111-4.248-6.444-6.935-11.187-6.937l0,0c-4.766-0.021-9.129,2.669-11.25,6.937
			c-6.626,13.358-22.827,18.816-36.185,12.19c-9.15-4.538-14.955-13.851-15.002-24.065c0-4.625-3.75-8.375-8.375-8.375
			S0,129.618,0,134.243l0,0c0,82.842,67.156,149.998,149.998,149.998s149.998-67.156,149.998-149.998
			c0.138-4.623-3.498-8.483-8.121-8.621C291.79,125.62,291.706,125.619,291.621,125.619z M143.061,246.742h-35.25v-56.249h34.125
			v10.625h-21.875v11.562h20.25v10.187h-20.25v12.875h23V246.742z M192.185,245.242c-2.019,0.777-4.114,1.343-6.25,1.687
			c-2.5,0.407-5.029,0.616-7.562,0.625c-3.741,0.013-7.471-0.385-11.125-1.187c-3.158-0.749-6.08-2.274-8.5-4.437
			c-2.566-2.386-4.462-5.403-5.5-8.75c-1.404-4.659-2.058-9.511-1.937-14.375c-0.094-4.596,0.56-9.177,1.937-13.562
			c1.054-3.361,2.921-6.41,5.437-8.875c2.386-2.291,5.308-3.945,8.5-4.812c3.617-1.025,7.366-1.509,11.125-1.437
			c4.405-0.143,8.802,0.47,13,1.812v10.437c-1.83-0.641-3.712-1.122-5.625-1.437c-2.068-0.318-4.157-0.485-6.25-0.5
			c-2.224-0.046-4.44,0.271-6.562,0.937c-1.759,0.576-3.319,1.638-4.5,3.062c-1.301,1.621-2.201,3.527-2.625,5.562
			c-0.603,2.834-0.876,5.728-0.812,8.625c-0.068,3.021,0.204,6.04,0.812,9c0.425,2.016,1.325,3.902,2.625,5.5
			c1.177,1.389,2.745,2.39,4.5,2.875c2.032,0.575,4.138,0.848,6.25,0.812c2.218-0.004,4.432-0.171,6.625-0.5
			c2.123-0.403,4.212-0.967,6.25-1.687L192.185,245.242z" />
            <path style="fill:#1976D2;" d="M160.56,75.432c-3.038,0-5.5,2.462-5.5,5.5c0,0.021,0,0.042,0,0.063
			c0.013,1.399-0.526,2.746-1.5,3.75c-0.939,1.002-2.252,1.568-3.625,1.562c-3.055-0.325-5.795,1.888-6.12,4.942
			s1.888,5.795,4.942,6.12c0.391,0.042,0.786,0.042,1.178,0c8.94,0.001,16.188-7.246,16.188-16.186c0-0.063,0-0.126-0.001-0.189
			C166.123,77.922,163.633,75.432,160.56,75.432L160.56,75.432z" />
            <path style="fill:#1976D2;" d="M179.185,47.432l-3.5-4.437c-6.625-8.75-14.187-18.25-19.437-24.437
			c-1.551-1.866-3.825-2.98-6.25-3.062h-1c-2.072,0.327-3.945,1.42-5.25,3.062c-5.375,6.25-12.5,16.062-19.25,24.625l-3.25,4.312
			c-15.062,19.75-14.937,43.749,0,59.374c15.119,15.964,40.318,16.649,56.282,1.53c0.524-0.496,1.034-1.006,1.53-1.53
			C193.748,91.432,193.748,66.432,179.185,47.432z M166.685,56.119l0.375,0.562c8.625,11.25,11.687,28.5,0.875,39.687l0,0
			c-9.617,9.906-25.445,10.141-35.351,0.524c-0.177-0.172-0.352-0.346-0.524-0.524c-9.812-10.25-9.437-26.187,0.937-39.749
			l4.062-5.375c4.187-5.5,8.75-11.5,12.812-16.562C155.186,41.245,161.56,49.495,166.685,56.119z" />
        </g>
    </g>
</svg>