<svg version="1.1" xmlns="http://www.w3.org/2000/svg" xmlns:xlink="http://www.w3.org/1999/xlink" x="0px" y="0px"
    viewBox="0 0 300 300" style="enable-background:new 0 0 300 300;" xml:space="preserve">
    <path style="fill-rule:evenodd;clip-rule:evenodd;fill:#1976D2;"
        d="M163.708,208.763l26.83-15.497l13.654,23.69l-26.83,15.429
	l26.83,15.497l-13.654,23.69l-26.83-15.497V287H136.4v-30.926l-26.83,15.497l-13.654-23.69l26.83-15.497l-26.83-15.429l13.654-23.69
	l26.83,15.497v-30.994h27.308V208.763z M218.323,232.384v-27.308h6.827c26.393-0.004,47.786-21.403,47.782-47.796
	s-21.403-47.786-47.796-47.782c-12.838,0.002-25.135,5.169-34.121,14.337v-0.683c-0.024-45.245-36.721-81.904-81.966-81.881
	c-45.245,0.024-81.904,36.721-81.881,81.966c0.018,34.702,21.898,65.628,54.616,77.195v28.537
	C23.401,213.783-11.617,154.142,3.571,95.758S78.401,2.357,136.784,17.545c33.883,8.814,61.487,33.336,74.234,65.943
	c40.758-7.786,80.111,18.943,87.897,59.702s-18.943,80.111-59.702,87.897l0,0c-4.635,0.882-9.345,1.316-14.064,1.297H218.323z" />
</svg>