<svg version="1.1" xmlns="http://www.w3.org/2000/svg" xmlns:xlink="http://www.w3.org/1999/xlink" x="0px" y="0px"
    viewBox="0 0 300 300" style="enable-background:new 0 0 300 300;" xml:space="preserve">
    <path style="fill:#1976D2;" d="M30.1,300c-4.488-1.986-9.404-3.351-13.376-6.082C8.931,288.563,5.005,280.6,4.97,271.161
	c-0.129-34.065-0.129-68.132,0-102.201c0.07-15.679,12.539-27.983,28.557-28.774c0.779-0.035,1.559-0.035,2.344-0.035
	c76.134,0,152.271,0,228.413,0c14.062,0,25.259,7.476,29.296,19.921c1.102,3.535,1.655,7.219,1.641,10.921
	c0.125,32.698,0.145,65.4,0.059,98.106c0,16.107-9.07,27.14-24.79,30.468c-0.27,0.101-0.524,0.239-0.756,0.41L30.1,300z
	 M150.212,282.423h113.626c9.334,0,13.88-4.494,13.88-13.769c0-32.421,0-64.829,0-97.227c0-9.093-4.623-13.693-13.699-13.693H36.176
	c-9.099,0-13.693,4.576-13.693,13.658v97.227c0,9.322,4.482,13.804,13.81,13.804H150.212z" />
    <path style="fill:#1976D2;"
        d="M210.562,0.012c6.879,3.855,11.132,10.23,15.351,16.493c23.911,35.565,19.435,83.235-10.546,113.826
	c-4.066,4.148-9.562,4.523-13.23,0.914s-3.486-8.789,0.545-13.031c15.333-16.077,22.317-35.243,20.659-57.349
	c-1.307-17.46-8.396-32.471-20.507-45.115c-5.502-5.736-4.101-12.304,3.146-15.404c0.17-0.096,0.331-0.208,0.48-0.334H210.562z" />
    <path style="fill:#1976D2;" d="M93.965,0.012c2.748,1.353,5.332,2.9,6.217,6.111c1.102,3.996-0.352,7.125-3.152,10.025
	C86.371,27.21,79.662,40.328,77.465,55.562C74.049,79.251,80.6,99.887,96.8,117.529c1.603,1.659,2.806,3.664,3.515,5.859
	c1.043,3.826-0.984,7.547-4.371,9.328c-3.58,1.887-7.617,1.207-10.705-1.922c-8.595-8.713-15.579-18.609-19.751-30.116
	c-13.048-35.999-6.849-68.4,19.013-96.811c1.447-1.594,3.557-2.59,5.361-3.867L93.965,0.012z" />
    <path style="fill:#1976D2;" d="M150.212,39.748c15.022,0.246,27.001,12.624,26.755,27.646
	c-0.241,14.714-12.139,26.569-26.854,26.756c-15.04,0-27.474-12.457-27.327-27.438C122.937,51.703,135.202,39.644,150.212,39.748z
	 M150.16,57.326c-5.318-0.082-9.695,4.162-9.779,9.48c0.043,5.327,4.318,9.651,9.644,9.755c5.316,0.049,9.666-4.222,9.714-9.538
	c0-0.022,0-0.043,0-0.065c0.107-5.218-4.036-9.536-9.255-9.643c-0.102-0.002-0.205-0.003-0.307-0.001L150.16,57.326z" />
    <path style="fill:#1976D2;" d="M210.562,70.321c-0.164,11.132-5.162,23.782-15.275,34.34c-3.885,4.049-9.375,4.318-13.001,0.756
	c-3.627-3.562-3.515-8.666,0.264-12.82c14.003-15.404,14.033-35.981,0.064-51.25c-3.89-4.254-3.972-9.474-0.193-13.025
	c3.779-3.551,9-3.158,13.001,0.967C205.136,39.268,210.562,52.744,210.562,70.321z" />
    <path style="fill:#1976D2;" d="M89.576,66.695c0.152-14.337,5.162-26.981,15.292-37.528c3.967-4.101,9.293-4.394,12.99-0.768
	c3.515,3.457,3.428,8.789-0.258,12.832c-13.998,15.281-14.027,36.092-0.07,51.244c3.803,4.101,3.885,9.574,0.193,13.042
	c-3.691,3.469-9.099,3.094-12.996-1.008C94.75,93.987,89.734,81.454,89.576,66.695z" />
    <path style="fill:#1976D2;" d="M220.645,247.268c9.931,0,19.587,0,29.243,0c3.515,0,6.234,1.559,7.881,4.687
	c1.588,2.8,1.428,6.263-0.41,8.906c-1.505,2.486-4.213,3.991-7.119,3.955c-12.89,0.059-25.78,0.094-38.67,0
	c-5.039-0.035-8.677-3.744-8.689-8.789c-0.055-23.925-0.055-47.844,0-71.757c0-5.056,3.515-8.818,8.607-8.877
	c13.281-0.164,26.561-0.164,39.842,0c4.737-0.043,8.612,3.763,8.655,8.5c0.002,0.216-0.004,0.431-0.019,0.646
	c-0.193,4.846-3.896,8.308-9.105,8.338c-8.982,0.053-17.964,0-26.952,0h-3.305v13.962h19.077c1.758,0,3.515,0,5.273,0
	c5.273,0.082,9.047,3.685,9.088,8.672c0.041,4.986-3.639,8.771-8.912,8.847c-7.324,0.111-14.648,0.035-21.966,0.035h-2.508
	L220.645,247.268z" />
    <path style="fill:#1976D2;" d="M161.187,225.46l8.888-29.343c1.383-4.57,2.73-9.146,4.142-13.71
	c1.687-5.455,6.234-8.127,11.203-6.627c4.758,1.436,7.242,6.263,5.672,11.502c-7.066,23.515-14.173,47.014-21.321,70.497
	c-1.371,4.5-4.236,6.638-8.496,6.662c-4.4,0-7.394-2.197-8.789-6.715c-7.121-23.503-14.218-47.008-21.292-70.515
	c-1.564-5.215,0.932-10.037,5.736-11.449c4.805-1.412,9.41,1.172,11.039,6.445c4.101,13.318,8.097,26.659,12.14,39.995
	C160.384,223.04,160.665,223.866,161.187,225.46z" />
    <path style="fill:#1976D2;" d="M57.679,247.268c7.84,0,15.234,0,22.657,0c5.754,0,9.632,3.515,9.679,8.677
	c0.047,5.162-3.82,8.865-9.527,8.9c-10.25,0.039-20.497,0.039-30.743,0c-6.035,0-9.65-3.633-9.656-9.685
	c-0.023-23.327-0.023-46.654,0-69.982c0-5.789,3.826-9.961,8.947-9.82s8.607,4.101,8.613,9.82c0,19.53,0,39.061,0,58.591
	L57.679,247.268z" />
    <path style="fill:#1976D2;" d="M99.777,219.941c0-11.519,0-23.042,0-34.569c0-5.959,3.515-9.996,8.689-10.043
	c5.174-0.047,8.871,4.072,8.877,9.914c0,23.237,0,46.479,0,69.724c0,5.859-3.703,9.914-8.894,9.867s-8.66-3.984-8.672-9.738
	C99.765,243.373,99.765,231.655,99.777,219.941z" />
</svg>