<svg version="1.1" xmlns="http://www.w3.org/2000/svg" xmlns:xlink="http://www.w3.org/1999/xlink" x="0px" y="0px"
    viewBox="0 0 300 300" style="enable-background:new 0 0 300 300;" xml:space="preserve">
    <path style="fill-rule:evenodd;clip-rule:evenodd;fill:#1976D2;" d="M214.991,65.455L150.764,0L86.605,65.455l0,0
	c-35.385,36.41-35.385,94.363,0,130.773c34.624,35.453,91.432,36.125,126.885,1.502c0.506-0.495,1.007-0.995,1.502-1.502
	C249.451,159.983,248.721,102.393,214.991,65.455z M150.764,207.955L150.764,207.955c-20.137,0.015-39.421-8.126-53.455-22.568
	c-29.514-30.375-29.514-78.716,0-109.091l0,0l53.455-54.545l53.523,54.545c29.55,30.361,29.55,78.73,0,109.091
	C190.201,199.793,170.912,207.926,150.764,207.955z" />
    <path style="fill-rule:evenodd;clip-rule:evenodd;fill:#1976D2;"
        d="M75.014,167.114c0,0,40.091,11.659,66.068-9.886
	s55.705-36.545,90.75-28.705c0,0-4.909,47.727-25.295,67.432s-74.455,17.795-74.455,17.795L86.4,187.091L75.014,167.114z" />
    <path style="fill-rule:evenodd;clip-rule:evenodd;fill:#1976D2;" d="M64.786,275.045c1.063-1.55,2.492-2.814,4.159-3.682
	c1.507-0.727,3.168-1.078,4.841-1.023c2.79-0.094,5.489,0.996,7.432,3c1.977,2.095,3.033,4.894,2.932,7.773V300h-6.409v-17.795
	c0.196-1.783-0.318-3.571-1.432-4.977c-1.333-1.111-3.04-1.672-4.773-1.568c-1.52-0.044-2.976,0.609-3.955,1.773
	c-1.145,1.368-1.708,3.131-1.568,4.909V300h-6.409v-17.727c0-4.432-1.909-6.818-5.659-6.818c-1.736-0.072-3.395,0.719-4.432,2.114
	c-1.1,1.396-1.679,3.132-1.636,4.909V300h-6.409v-28.841h6.273v2.932c1.939-2.299,4.766-3.663,7.773-3.75
	C59.253,269.993,62.859,271.822,64.786,275.045z" />
    <path style="fill-rule:evenodd;clip-rule:evenodd;fill:#1976D2;" d="M114.082,275.045c1.102-1.54,2.55-2.801,4.227-3.682
	c1.505-0.735,3.168-1.086,4.841-1.023c2.787-0.077,5.48,1.01,7.432,3c1.959,2.102,2.991,4.903,2.864,7.773V300h-6.341v-17.795
	c0.196-1.783-0.318-3.571-1.432-4.977c-1.351-1.128-3.085-1.69-4.841-1.568c-1.5-0.043-2.936,0.611-3.886,1.773
	c-1.169,1.358-1.757,3.121-1.636,4.909V300h-6.205v-17.727c0-4.432-1.909-6.818-5.659-6.818c-1.736-0.072-3.395,0.719-4.432,2.114
	c-1.125,1.387-1.728,3.124-1.705,4.909V300h-6.341v-28.841h6.341v2.932c1.971-2.296,4.817-3.657,7.841-3.75
	C108.774,270.11,112.222,271.926,114.082,275.045z" />
    <path style="fill-rule:evenodd;clip-rule:evenodd;fill:#1976D2;"
        d="M163.241,254.25L143.877,300h-5.523l19.432-45.75H163.241z" />
    <path style="fill-rule:evenodd;clip-rule:evenodd;fill:#1976D2;" d="M191.4,275.045c1.063-1.55,2.492-2.814,4.159-3.682
	c1.507-0.727,3.168-1.078,4.841-1.023c2.791-0.103,5.494,0.988,7.432,3c1.977,2.095,3.033,4.894,2.932,7.773V300h-6.205v-17.795
	c0.196-1.783-0.318-3.571-1.432-4.977c-1.333-1.111-3.04-1.672-4.773-1.568c-1.52-0.044-2.976,0.609-3.955,1.773
	c-1.145,1.368-1.708,3.131-1.568,4.909V300h-6.409v-17.727c0-4.432-1.841-6.818-5.659-6.818c-1.731-0.049-3.38,0.738-4.432,2.114
	c-1.1,1.396-1.679,3.132-1.636,4.909V300h-6.409v-28.841h6.409v2.932c1.939-2.299,4.766-3.663,7.773-3.75
	C186.089,270.126,189.53,271.938,191.4,275.045z" />
    <path style="fill-rule:evenodd;clip-rule:evenodd;fill:#1976D2;" d="M225.014,260.523c0.815,0.809,1.259,1.92,1.227,3.068
	c0.041,1.164-0.433,2.286-1.295,3.068c-1.753,1.547-4.383,1.547-6.136,0c-0.802-0.818-1.244-1.923-1.227-3.068
	c-0.032-1.148,0.412-2.259,1.227-3.068c0.833-0.771,1.934-1.186,3.068-1.159C223.032,259.34,224.152,259.754,225.014,260.523z
	 M225.014,271.159V300h-6.341v-28.841H225.014z" />
    <path style="fill-rule:evenodd;clip-rule:evenodd;fill:#1976D2;" d="M258.559,282.205V300h-6.273v-17.25
	c0-4.705-2.182-6.818-6.477-6.818c-1.561-0.022-3.063,0.593-4.159,1.705c-1.42,1.386-2.25,3.267-2.318,5.25V300h-6.409v-28.841
	h6.409v3.341c1.014-1.281,2.293-2.328,3.75-3.068c1.479-0.745,3.117-1.119,4.773-1.091
	C254.877,270.341,258.559,274.295,258.559,282.205z" />
</svg>