<svg version="1.1" xmlns="http://www.w3.org/2000/svg" xmlns:xlink="http://www.w3.org/1999/xlink" x="0px" y="0px"
    viewBox="0 0 300 300" style="enable-background:new 0 0 300 300;" xml:space="preserve">
    <path style="fill-rule:evenodd;clip-rule:evenodd;fill:#1976D2;" d="M120.115,75c-0.008,57.99,46.995,105.007,104.985,105.015
	c28.225,0.004,55.262-11.355,75.015-31.515v1.5c0,82.843-67.157,150-150,150s-150-67.157-150-150s67.157-150,150-150h1.5
	C131.418,19.721,120.057,46.772,120.115,75z M30.115,150c-0.066,66.274,53.606,120.054,119.88,120.12
	c44.416,0.044,85.223-24.448,106.074-63.665c-72.614,17.082-145.327-27.935-162.409-100.549c-4.785-20.342-4.785-41.518,0-61.86
	C54.539,64.92,30.107,105.657,30.115,150z" />
</svg>