<svg version="1.1" xmlns="http://www.w3.org/2000/svg" xmlns:xlink="http://www.w3.org/1999/xlink" x="0px" y="0px"
    viewBox="0 0 300 300" style="enable-background:new 0 0 300 300;" xml:space="preserve">
    <path style="fill-rule:evenodd;clip-rule:evenodd;fill:#1976D2;" d="M213.128,87.562c-21.018-33.681-57.955-54.102-97.656-53.991
	l0,0C51.699,33.571,0,85.27,0,149.044s51.699,115.473,115.473,115.473h94.484c48.865,0.857,89.172-38.06,90.03-86.925
	c0.857-48.865-38.06-89.172-86.925-90.03L213.128,87.562z M269.549,176.04c-0.037,32.941-26.652,59.677-59.592,59.862h-94.484
	c-47.97-0.144-86.74-39.148-86.596-87.118s39.148-86.74,87.118-86.596c35.5,0.107,67.362,21.806,80.464,54.8v0.675h0.742
	c4.148-0.889,8.378-1.342,12.62-1.35l0,0C242.793,116.349,269.512,143.069,269.549,176.04z" />
</svg>