<svg fill="#1976d2" viewBox="0 0 101 126.25" xmlns="http://www.w3.org/2000/svg" fill-rule="evenodd" clip-rule="evenodd" stroke-linejoin="round" stroke-miterlimit="2">
        <path
            d="M66.8,72.1l-3.3-12.2l12.2,3.3l-4,4l6.3,6.3C98.6,49.5,94.6,6.8,94.6,6.8S38.5,1.1,21,28.3c-18.4,28.5-9,57-9,57l-7.1,7.4  l2.3,2l7-7.1c0,0,46.9,4.4,62.7-13c0.1-0.1,0.2-0.2,0.2-0.3L70.8,68L66.8,72.1z M65.2,53.9l-6.4-2.7l0.5-1.2l6.4,2.7L65.2,53.9z   M78,12.5l12.2-3.3l-3.2,12.3l-4-4L68.2,32.3l-0.9-0.9l14.8-14.8L78,12.5z M66.6,48.3h-7V47h7V48.3z M65.8,42.6l-6.4,2.7l-0.5-1.2  l6.4-2.7L65.8,42.6z M62.9,37.6l-5,5L57,41.7l5-5L62.9,37.6z M57.1,33.7l1.2,0.5l-2.7,6.4l-1.2-0.5L57.1,33.7z M55.5,50.7  c-1.7,2-4.7,2.2-6.6,0.5s-2.2-4.7-0.5-6.6c1.7-2,4.7-2.2,6.6-0.5C57,45.8,57.2,48.7,55.5,50.7C55.5,50.7,55.5,50.7,55.5,50.7z   M51.4,32.8h1.3v7h-1.3V32.8z M47,33.6l2.6,6.4l-1.2,0.5L45.8,34L47,33.6z M42,36.5l5,5l-0.9,0.9l-5-5L42,36.5z M45,43.9l-0.5,1.2  l-6.4-2.7l0.5-1.2L45,43.9z M38.9,25.9l-4,4l4.4,4.4l-0.9,0.9l-4.5-4.4l-4,4l-3.4-12.2L38.9,25.9z M33.8,74.9l-4-4L14.9,85.6  L14,84.7l14.8-14.8l-4-4L37,62.5L33.8,74.9z M37.1,46.7h7V48h-7V46.7z M37.9,52.4l6.4-2.7l0.5,1.2l-6.4,2.7L37.9,52.4z M40.9,57.4  l5-5l0.9,0.9l-5,5L40.9,57.4z M46.7,61.4L45.5,61l2.7-6.4l1.2,0.5L46.7,61.4z M52.4,62.3h-1.3v-7h1.3L52.4,62.3z M56.8,61.5L54.1,55  l1.2-0.5L58,61L56.8,61.5z M61.8,58.6l-5-5l0.9-0.9l5,5L61.8,58.6z"
        />
    </svg>
