<svg version="1.1" xmlns="http://www.w3.org/2000/svg" xmlns:xlink="http://www.w3.org/1999/xlink" x="0px" y="0px"
    viewBox="0 0 300 300" style="enable-background:new 0 0 300 300;" xml:space="preserve">
    <path style="fill-rule:evenodd;clip-rule:evenodd;fill:#1976D2;" d="M206.02,221.835l-10.975-40.576l40.576,10.975l-13.304,13.304
	l20.953,20.953c68.513-79.822,55.21-221.837,55.21-221.837S111.897-14.304,53.694,76.16
	c-61.197,94.788-29.933,189.576-29.933,189.576L0.147,290.348L7.797,297l23.281-23.614c0,0,155.985,14.634,208.534-43.237
	c0.333-0.333,0.665-0.665,0.665-0.998l-20.953-20.953L206.02,221.835z M200.699,161.303l-21.286-8.98l1.663-3.991l21.286,8.98
	L200.699,161.303z M243.27,23.611l40.576-10.975l-10.643,40.909L259.9,40.241l-49.223,49.223l-2.993-2.993l49.223-49.223
	L243.27,23.611z M205.355,142.678h-23.281v-4.324h23.281V142.678z M202.694,123.721l-21.286,8.98l-1.663-3.991l21.286-8.98
	L202.694,123.721z M193.049,107.091l-16.63,16.629l-2.993-2.993l16.629-16.629L193.049,107.091z M173.759,94.12l3.991,1.663
	l-8.98,21.286l-3.991-1.663L173.759,94.12z M168.438,150.66c-5.654,6.652-15.632,7.317-21.951,1.663
	c-6.319-5.654-7.317-15.632-1.663-21.951c5.654-6.652,15.632-7.317,21.951-1.663C173.426,134.364,174.092,144.009,168.438,150.66
	L168.438,150.66z M154.801,91.127h4.324v23.281h-4.324V91.127z M140.167,93.788l8.647,21.286l-3.991,1.663l-8.647-21.618
	L140.167,93.788z M123.538,103.433l16.629,16.629l-2.993,2.993l-16.629-16.629L123.538,103.433z M133.516,128.044l-1.663,3.991
	l-21.286-8.98l1.663-3.991L133.516,128.044z M113.228,68.178L99.924,81.482l14.634,14.634l-2.993,2.993L96.598,84.475L83.295,97.779
	L71.987,57.203L113.228,68.178z M96.266,231.147l-13.304-13.304l-49.556,48.891l-2.993-2.993l49.223-49.223l-13.304-13.304
	l40.576-11.308L96.266,231.147z M107.241,137.357h23.281v4.324h-23.281V137.357z M109.902,156.315l21.286-8.98l1.663,3.991
	l-21.286,8.98L109.902,156.315z M119.88,172.944l16.629-16.629l2.993,2.993l-16.629,16.63L119.88,172.944z M139.17,186.248
	l-3.991-1.33l8.98-21.286l3.991,1.663L139.17,186.248z M158.127,189.241h-4.324V165.96h4.324V189.241z M172.761,186.58l-8.98-21.618
	l3.991-1.663l8.98,21.618L172.761,186.58z M189.391,176.935l-16.63-16.629l2.993-2.993l16.629,16.63L189.391,176.935z" />
</svg>