<svg version="1.1" xmlns="http://www.w3.org/2000/svg" xmlns:xlink="http://www.w3.org/1999/xlink" x="0px" y="0px"
    viewBox="0 0 300 300" style="enable-background:new 0 0 300 300;" xml:space="preserve">
    <g id="&#x56FE;&#x5C42;_2_00000173848292652945390470000003879005134983912073_">
        <g id="&#x56FE;&#x5C42;_1-2">
            <path style="fill:#1976D2;" d="M65.045,261.606c-1.888-1.551-2.193-4.325-0.687-6.249c24.997-33.183,53.93-61.929,93.238-77.927
			c47.306-19.122,102.112,5.312,126.296,54.993c0.938,2.375-0.227,5.062-2.602,6c-0.801,0.316-1.674,0.403-2.522,0.249
			c-40.807-8.999-80.864-13.811-119.922,1.812c-1.77,0.714-2.898,2.467-2.812,4.374l0,0c0.031,2.389,1.924,4.338,4.312,4.437
			c4.438,0.599,8.936,0.599,13.373,0c40.369-8.918,82.489-5.456,120.859,9.936c2.363,0.969,3.494,3.67,2.525,6.033
			c-0.213,0.519-0.518,0.994-0.9,1.404C251.52,313.099,123.412,310.662,65.045,261.606z" />
            <polygon style="fill:#1976D2;"
                points="91.479,52.009 68.169,22.263 48.359,37.823 48.359,37.823 71.669,67.569 		" />

            <rect x="30.664" y="200.293" transform="matrix(0.7869 -0.617 0.617 0.7869 -120.7962 75.9436)"
                style="fill:#1976D2;" width="37.808" height="25.184" />

            <rect x="12.397" y="105.757" transform="matrix(0.1201 -0.9928 0.9928 0.1201 -101.7705 134.4926)"
                style="fill:#1976D2;" width="25.184" height="37.808" />
            <path style="fill:#1976D2;" d="M116.538,181.242c-23.42-15.011-30.237-46.165-15.226-69.585s46.165-30.237,69.585-15.226
			c16.292,10.442,25.161,29.295,22.818,48.504c-0.433,3.865-1.336,7.664-2.687,11.311c8.833-1.377,17.747-2.17,26.684-2.375
			c0.465-1.912,0.799-3.854,1-5.812c5.056-41.419-24.422-79.095-65.841-84.151S73.776,88.33,68.72,129.749
			c-2.945,24.126,5.896,48.196,23.758,64.679l0.375-0.312C100.915,189.428,108.789,185.304,116.538,181.242z" />
            <polygon style="fill:#1976D2;"
                points="244.958,43.635 244.958,43.697 215.212,67.007 230.773,86.817 260.519,63.507 		" />

            <rect x="249.948" y="134.553" transform="matrix(0.1201 -0.9928 0.9928 0.1201 78.6543 395.6589)"
                style="fill:#1976D2;" width="25.184" height="37.808" />

            <rect x="139.2" y="7.688" transform="matrix(0.1201 -0.9928 0.9928 0.1201 118.9771 174.8021)"
                style="fill:#1976D2;" width="37.808" height="25.184" />
            <path style="fill:#333333;" d="M99.04,203.176" />
        </g>
    </g>
</svg>