<svg version="1.1" xmlns="http://www.w3.org/2000/svg" xmlns:xlink="http://www.w3.org/1999/xlink" x="0px" y="0px"
    viewBox="0 0 300 300" style="enable-background:new 0 0 300 300;" xml:space="preserve">
    <path style="fill:#1976D2;" d="M150.058-0.115C67.226-0.115,0,67.111,0,149.942S67.226,300,150.058,300
	s150.058-67.226,150.058-150.058S232.889-0.115,150.058-0.115z M150.058,269.988c-66.175,0-120.046-53.871-120.046-120.046
	S83.882,29.896,150.058,29.896s120.046,53.871,120.046,120.046S216.233,269.988,150.058,269.988z M133.356,207.486l67.851-50.889
	c4.437-3.327,4.437-9.982,0-13.31l-67.851-50.889c-5.484-4.113-13.31-0.2-13.31,6.655v101.777
	C120.046,207.686,127.872,211.599,133.356,207.486z" />
</svg>