<svg version="1.1" xmlns="http://www.w3.org/2000/svg" xmlns:xlink="http://www.w3.org/1999/xlink" x="0px" y="0px"
    viewBox="0 0 300 300" style="enable-background:new 0 0 300 300;" xml:space="preserve">
    <g id="&#x56FE;&#x5C42;_2_00000132806627716365350290000017783802382018854573_">
        <g id="&#x56FE;&#x5C42;_1-2">
            <path style="fill:#1976D2;"
                d="M288.847,15h-48.75c-29.656-0.051-57.722,13.406-76.25,36.562c-1.256,1.646-3.61,1.962-5.256,0.706
			c-0.406-0.31-0.744-0.699-0.994-1.144c-18.915-31.69-53.094-51.106-90-51.125h-56.25c-2.071,0-3.75,1.679-3.75,3.75c0,0,0,0,0,0
			v22.5C7.597,86.311,56.286,135,116.347,135l0,0h22.5c2.071,0,3.75,1.679,3.75,3.75l0,0v22.5c0,2.071-1.679,3.75-3.75,3.75l0,0
			H73.909c-3.452,0-6.25,2.798-6.25,6.25v95c0,18.615,15.072,33.716,33.688,33.75h112.5c18.64,0,33.75-15.11,33.75-33.75
			c0,0,0,0,0,0v-94.938c0-3.452-2.798-6.25-6.25-6.25h-65c-2.071,0-3.75-1.679-3.75-3.75l0,0v-7.562c0-2.071,1.679-3.75,3.75-3.75
			l0,0h15c55.919,0,101.25-45.331,101.25-101.25v-30C292.597,16.679,290.918,15,288.847,15z M138.847,105h-26.25
			c-39.954,0.053-72.936-31.224-75-71.125c-0.035-2.105,1.644-3.84,3.749-3.874C41.367,30,41.388,30,41.409,30h26.188
			c39.954-0.053,72.936,31.224,75,71.125c0.104,2.034-1.461,3.767-3.495,3.871C139.017,105,138.932,105.002,138.847,105z
			 M137.034,225.812l10.688-14.25c0.708-0.944,1.82-1.5,3-1.5h8.625l-13.312,16.813c-1,1.333-1,3.167,0,4.5L159.909,251h-8.937
			c-1.244,0.001-2.411-0.606-3.125-1.625l-10.938-16.313h-2.188v14.188c0,2.071-1.679,3.75-3.75,3.75h-1.438
			c-2.071,0-3.75-1.679-3.75-3.75v-33.438c0-2.071,1.679-3.75,3.75-3.75h1.438c2.071,0,3.75,1.679,3.75,3.75v12H137.034z
			 M198.097,248.562c0.049,2.015-0.247,4.023-0.875,5.938c-0.563,1.732-1.603,3.27-3,4.437c-1.578,1.348-3.435,2.33-5.438,2.875
			c-2.707,0.736-5.508,1.073-8.312,1h-4.688c-1.468-0.102-2.929-0.289-4.375-0.562v-7c1.359,0.332,2.736,0.583,4.125,0.75h4.313
			c1.488,0.018,2.974-0.107,4.437-0.375c1.077-0.236,2.096-0.682,3-1.312c0.821-0.639,1.431-1.51,1.75-2.5
			c0.412-1.228,0.602-2.518,0.562-3.812v-1.688c-0.659,1.411-1.755,2.573-3.125,3.312c-1.961,0.881-4.102,1.288-6.25,1.187
			c-2.145,0.066-4.278-0.34-6.25-1.187c-1.57-0.727-2.926-1.846-3.937-3.25c-1.026-1.545-1.708-3.293-2-5.125
			c-0.392-2.186-0.58-4.404-0.562-6.625c-0.007-2.096,0.181-4.189,0.562-6.25c0.315-1.845,0.995-3.609,2-5.188
			c1.017-1.462,2.366-2.661,3.937-3.5c4.152-1.665,8.786-1.665,12.938,0c1.39,0.784,2.47,2.018,3.062,3.5v-4.125h8.5
			L198.097,248.562z M191.347,120h-15c-2.071,0-3.75-1.679-3.75-3.75l0,0c-0.017-11.857,2.949-23.527,8.625-33.938
			c1.125-2.062,2.313-4,3.562-5.875c5.106-7.605,11.645-14.144,19.25-19.25c1.863-1.305,3.804-2.495,5.812-3.562
			c10.43-5.683,22.122-8.65,34-8.625h15c2.071,0,3.75,1.679,3.75,3.75C262.597,88.1,230.697,120,191.347,120L191.347,120z" />
            <path style="fill:#1976D2;" d="M189.909,234.812c0.072,1.395,0.072,2.793,0,4.187c-0.133,1.114-0.517,2.182-1.125,3.125
			c-0.556,0.866-1.363,1.542-2.313,1.938c-1.199,0.526-2.505,0.762-3.812,0.688c-1.221,0.078-2.438-0.205-3.5-0.812
			c-0.879-0.493-1.596-1.231-2.062-2.125c-0.475-0.981-0.771-2.04-0.875-3.125c-0.097-1.29-0.097-2.585,0-3.875
			c-0.097-1.248-0.097-2.502,0-3.75c0.111-1.084,0.407-2.141,0.875-3.125c0.457-0.897,1.148-1.653,2-2.187
			c1.069-0.586,2.285-0.847,3.5-0.75c1.305-0.043,2.604,0.192,3.812,0.688c0.938,0.415,1.74,1.086,2.312,1.938
			c0.588,0.952,0.971,2.017,1.125,3.125C189.939,232.102,189.96,233.458,189.909,234.812z" />
        </g>
    </g>
</svg>