<svg version="1.1" xmlns="http://www.w3.org/2000/svg" xmlns:xlink="http://www.w3.org/1999/xlink" x="0px" y="0px"
    viewBox="0 0 300 300" style="enable-background:new 0 0 300 300;" xml:space="preserve">
    <path style="fill-rule:evenodd;clip-rule:evenodd;fill:#1976D2;"
        d="M150.775,239.284c-7.889,0-14.285-6.395-14.285-14.285
	s6.395-14.285,14.285-14.285c4.957-0.059,9.684-2.102,13.123-5.673c3.477-3.558,5.395-8.353,5.331-13.328
	c0-7.889,6.395-14.285,14.285-14.285c7.889,0,14.285,6.395,14.285,14.285c0.265,26.157-20.725,47.577-46.883,47.842
	c-0.047,0-0.094,0.001-0.14,0.001V239.284z M150.775,35.472c17.429,21.256,40.12,50.509,58.847,75.182l1.162,1.572
	c28.569,37.249,38.821,94.934,1.982,133.072c-32.143,33.972-85.74,35.455-119.713,3.312c-1.134-1.073-2.239-2.178-3.312-3.312
	c-33.627-34.857-32.807-88.441,1.777-133.55l12.029-15.857c15.378-20.504,32.533-42.854,46.681-60.282L150.775,35.472z
	 M150.775,0.137c-5.159-0.018-10.043,2.323-13.259,6.356c-19.137,22.691-47.296,60.282-68.347,88.305
	c-41.418,53.926-45.383,123.162-0.41,170.048c43.132,45.297,114.817,47.051,160.114,3.92c1.338-1.274,2.645-2.581,3.92-3.92
	c45.109-46.886,40.12-118.719,0-170.39c-22.008-28.569-50.85-66.023-69.714-87.963c-2.971-3.839-7.457-6.206-12.302-6.493V0.137z" />
</svg>