<svg fill="#1976d2" viewBox="0 0 44 44" xmlns="http://www.w3.org/2000/svg" fill-rule="evenodd" clip-rule="evenodd" stroke-linejoin="round" stroke-miterlimit="2">
        <path
            d="M22,35.06a2.09,2.09,0,1,1,0-4.18,2.71,2.71,0,0,0,1.92-.83,2.74,2.74,0,0,0,.78-1.95,2.09,2.09,0,0,1,4.18,0,6.93,6.93,0,0,1-6.88,7Zm0-29.82c2.55,3.11,5.87,7.39,8.61,11l.17.23c4.18,5.45,5.68,13.89.29,19.47a12.39,12.39,0,0,1-18,0C8.15,30.84,8.27,23,13.33,16.4l1.76-2.32c2.25-3,4.76-6.27,6.83-8.82Zm0-5.17A2.47,2.47,0,0,0,20.06,1c-2.8,3.32-6.92,8.82-10,12.92C4,21.81,3.42,31.94,10,38.8a16.57,16.57,0,0,0,24,0c6.6-6.86,5.87-17.37,0-24.93C30.78,9.69,26.56,4.21,23.8,1A2.46,2.46,0,0,0,22,.05Zm0,0"
        />
    </svg>
