<svg version="1.1" xmlns="http://www.w3.org/2000/svg" xmlns:xlink="http://www.w3.org/1999/xlink" x="0px" y="0px"
    viewBox="0 0 300 300" style="enable-background:new 0 0 300 300;" xml:space="preserve">
    <path style="fill-rule:evenodd;clip-rule:evenodd;fill:#1976D2;" d="M94.592,252.311l-4.633-0.032
	c-9.586-0.064-16.663-0.112-20.114-0.112c-17.877,0-18.884-16.216-5.432-27.703l3.131-2.62l8.116-6.79l24.651-20.641
	c16.2-13.516,27.798-23.165,33.119-27.527c11.742-9.602,20.849-9.522,32.479,0.351c6.183,5.256,15.321,12.861,35.259,29.412
	c11.646,9.627,23.255,19.298,34.828,29.013c12.717,10.704,11.854,26.52-4.713,26.52h-38.055v28.278
	c0,13.26-6.279,19.539-20.098,19.539h-47.833c-12.925,0-20.098-6.71-20.098-19.283v-28.326
	C105.201,252.391,94.592,252.311,94.592,252.311z M94.592,47.705l-4.633,0.032c-9.586,0.064-16.663,0.096-20.114,0.096
	c-17.877,0-18.884,16.232-5.432,27.703l3.131,2.62l8.116,6.806l24.651,20.609c11.004,9.224,22.044,18.405,33.119,27.543
	c11.742,9.602,20.849,9.522,32.479-0.351c6.183-5.24,15.321-12.861,35.259-29.396c11.646-9.633,23.255-19.309,34.828-29.029
	c12.717-10.704,11.854-26.504-4.713-26.504h-38.055V19.555C193.229,6.263,186.951,0,173.131,0h-47.833
	c-12.925,0-20.098,6.71-20.098,19.283v28.326l-10.608,0.08L94.592,47.705z" />
</svg>