<svg version="1.1" xmlns="http://www.w3.org/2000/svg" xmlns:xlink="http://www.w3.org/1999/xlink" x="0px" y="0px"
    viewBox="0 0 300 300" style="enable-background:new 0 0 300 300;" xml:space="preserve">
    <path style="fill-rule:evenodd;clip-rule:evenodd;fill:#1976D2;" d="M236.235,91.482l-9.687-12.416
	c-18.76-24.013-39.977-51.301-54.575-68.629C166.779,4.008,159.019,0.191,150.756,0h-3.138L146.8,0.409
	c-6.969,0.841-13.346,4.335-17.805,9.755c-15.145,17.873-35.815,45.161-54.03,69.174L65.96,91.619
	c-43.729,57.168-43.319,126.683,0.887,172.254c44.324,46.549,117.991,48.354,164.54,4.03c1.376-1.31,2.72-2.654,4.03-4.03
	C278.668,219.052,279.009,146.535,236.235,91.482z M217.27,246.613c-34.723,36.546-92.497,38.025-129.044,3.302
	c-1.129-1.072-2.23-2.173-3.302-3.302c-35.338-36.634-34.928-92.778,0.955-139.781l9.278-12.143
	c18.01-23.809,38.476-50.755,53.279-68.219c0.517-0.759,1.405-1.177,2.319-1.092h0.682c0.621,0.16,1.157,0.55,1.501,1.092
	c14.531,17.123,35.611,44.138,54.166,68.219l9.687,12.416C251.516,151.993,251.857,210.73,217.27,246.613z" />
    <path style="fill-rule:evenodd;clip-rule:evenodd;fill:#1976D2;" d="M208.606,123.955l-6.822-9.619
	c-13.576-18.829-28.789-39.294-39.226-52.938c-0.279-0.37-0.658-0.654-1.092-0.819h-0.682V254.39h0.682
	c18.325-0.162,35.706-8.157,47.754-21.967C234.189,204.658,233.916,158.951,208.606,123.955z" />
</svg>