<svg fill="#1976d2" viewBox="0 0 44 44" xmlns="http://www.w3.org/2000/svg" fill-rule="evenodd" clip-rule="evenodd" stroke-linejoin="round" stroke-miterlimit="2">
        <path
            d="M34.53,13.41l-1.42-1.82c-2.75-3.52-5.86-7.52-8-10.06A4.12,4.12,0,0,0,22,0h-.46l-.12.06a4,4,0,0,0-2.61,1.43c-2.22,2.62-5.25,6.62-7.92,10.14L9.57,13.43C3.16,21.81,3.22,32,9.7,38.68a17.06,17.06,0,0,0,24.71,0C40.75,32.11,40.8,21.48,34.53,13.41ZM31.75,36.15a13.38,13.38,0,0,1-19.4,0c-5.18-5.37-5.12-13.6.14-20.49l1.36-1.78c2.64-3.49,5.64-7.44,7.81-10A.37.37,0,0,1,22,3.72h.1a.37.37,0,0,1,.22.16c2.13,2.51,5.22,6.47,7.94,10l1.42,1.82C36.77,22.28,36.82,30.89,31.75,36.15Z"
        />
        <path
            d="M30.48,18.17l-1-1.41C27.49,14,25.26,11,23.73,9a.36.36,0,0,0-.16-.12h-.1V37.29h.1a9.4,9.4,0,0,0,7-3.22C34.23,30,34.19,23.3,30.48,18.17Z"
        />
    </svg>
