<svg fill="#1976d2" viewBox="0 0 44 44" xmlns="http://www.w3.org/2000/svg" fill-rule="evenodd" clip-rule="evenodd" stroke-linejoin="round" stroke-miterlimit="2">
        <path
            d="M22.33 15.77a3.53 3.53 0 0 1 3.52 3.52v8.35a2.35 2.35 0 0 0 .67 1.64 5.87 5.87 0 1 1-8.38 0 2.35 2.35 0 0 0 .67-1.64v-8.35a3.52 3.52 0 0 1 3.52-3.52Zm0-2.34a5.86 5.86 0 0 0-5.87 5.86v8.35a8.21 8.21 0 1 0 11.73 0v-8.35a5.86 5.86 0 0 0-5.86-5.86Zm1.17 17.91a2.35 2.35 0 1 1-2.35 0v-12a1.18 1.18 0 0 1 2.35 0ZM0 2.4h27.09v4H0zM0 11.2h16.85v4H0zM0 20h13.54v4H0zM0 28.8h11.13v4H0zM0 37.6h12.9v4H0zM28.19 11.2H44v4H28.19zM30.54 20H44v4H30.54zM32.88 28.8H44v4H32.88zM31.46 37.6H44v4H31.46zM29.86 2.4H44v4H29.86z"
        />
    </svg>
