<svg version="1.1" xmlns="http://www.w3.org/2000/svg" xmlns:xlink="http://www.w3.org/1999/xlink" x="0px" y="0px"
    viewBox="0 0 300 300" style="enable-background:new 0 0 300 300;" xml:space="preserve">
    <path style="fill-rule:evenodd;clip-rule:evenodd;fill:#1976D2;" d="M215.098,66.029l-64.07-65.294L87.026,66.029l0,0
	c-35.299,36.321-35.299,94.132,0,130.452c34.539,35.366,91.208,36.037,126.574,1.498c0.505-0.493,1.005-0.993,1.498-1.498
	C249.473,160.326,248.745,102.877,215.098,66.029z M151.028,208.18L151.028,208.18c-20.088,0.015-39.325-8.106-53.324-22.513
	c-29.441-30.301-29.441-78.523,0-108.824l0,0l53.324-54.412l53.392,54.412c29.477,30.286,29.477,78.538,0,108.824
	C190.369,200.038,171.126,208.152,151.028,208.18z" />
    <path style="fill-rule:evenodd;clip-rule:evenodd;fill:#1976D2;"
        d="M75.463,167.439c0,0,39.993,11.631,65.906-9.862
	s55.568-36.456,90.528-28.634c0,0-4.897,47.61-25.233,67.267s-74.272,17.752-74.272,17.752l-45.57-26.594L75.463,167.439z" />
    <path style="fill-rule:evenodd;clip-rule:evenodd;fill:#1976D2;" d="M65.261,275.107c1.061-1.546,2.486-2.807,4.149-3.673
	c1.504-0.725,3.161-1.075,4.829-1.02c2.783-0.094,5.476,0.993,7.414,2.993c1.972,2.09,3.026,4.882,2.925,7.754V300h-6.393v-17.752
	c0.195-1.778-0.318-3.562-1.428-4.965c-1.33-1.108-3.033-1.668-4.761-1.564c-1.516-0.044-2.969,0.607-3.945,1.768
	c-1.142,1.365-1.704,3.123-1.564,4.897V300h-6.393v-17.684c0-4.421-1.904-6.801-5.645-6.801c-1.732-0.072-3.387,0.717-4.421,2.108
	c-1.097,1.393-1.675,3.125-1.632,4.897V300H42v-28.77h6.257v2.925c1.934-2.293,4.755-3.654,7.754-3.741
	C59.741,270.066,63.339,271.891,65.261,275.107z" />
    <path style="fill-rule:evenodd;clip-rule:evenodd;fill:#1976D2;" d="M114.436,275.107c1.1-1.537,2.544-2.794,4.217-3.673
	c1.501-0.733,3.16-1.083,4.829-1.02c2.78-0.077,5.466,1.007,7.414,2.993c1.954,2.096,2.984,4.891,2.857,7.754V300h-6.325v-17.752
	c0.195-1.778-0.318-3.562-1.428-4.965c-1.347-1.125-3.078-1.686-4.829-1.564c-1.497-0.043-2.929,0.61-3.877,1.768
	c-1.166,1.354-1.753,3.114-1.632,4.897V300h-6.189v-17.684c0-4.421-1.904-6.801-5.645-6.801c-1.732-0.072-3.387,0.717-4.421,2.108
	c-1.122,1.383-1.724,3.116-1.7,4.897V300h-6.325v-28.77h6.325v2.925c1.966-2.29,4.805-3.648,7.822-3.741
	C109.141,270.183,112.581,271.995,114.436,275.107z" />
    <path style="fill-rule:evenodd;clip-rule:evenodd;fill:#1976D2;"
        d="M163.474,254.362L144.158,300h-5.509l19.384-45.638H163.474z" />
    <path style="fill-rule:evenodd;clip-rule:evenodd;fill:#1976D2;" d="M191.565,275.107c1.061-1.546,2.486-2.807,4.149-3.673
	c1.504-0.725,3.161-1.075,4.829-1.02c2.784-0.102,5.481,0.986,7.414,2.993c1.972,2.09,3.026,4.882,2.925,7.754V300h-6.189v-17.752
	c0.195-1.778-0.318-3.562-1.428-4.965c-1.33-1.108-3.033-1.668-4.761-1.564c-1.516-0.044-2.969,0.607-3.945,1.768
	c-1.142,1.365-1.704,3.123-1.564,4.897V300H186.6v-17.684c0-4.421-1.836-6.801-5.645-6.801c-1.727-0.049-3.372,0.736-4.421,2.108
	c-1.097,1.393-1.675,3.125-1.632,4.897V300h-6.393v-28.77h6.393v2.925c1.934-2.293,4.755-3.654,7.754-3.741
	C186.266,270.199,189.699,272.007,191.565,275.107z" />
    <path style="fill-rule:evenodd;clip-rule:evenodd;fill:#1976D2;" d="M225.096,260.619c0.813,0.807,1.256,1.915,1.224,3.061
	c0.041,1.161-0.432,2.28-1.292,3.061c-1.749,1.543-4.373,1.543-6.121,0c-0.8-0.816-1.241-1.918-1.224-3.061
	c-0.032-1.146,0.411-2.253,1.224-3.061c0.831-0.769,1.929-1.183,3.061-1.156C223.119,259.439,224.237,259.852,225.096,260.619z
	 M225.096,271.23V300h-6.325v-28.77H225.096z" />
    <path style="fill-rule:evenodd;clip-rule:evenodd;fill:#1976D2;" d="M258.559,282.248V300h-6.257v-17.208
	c0-4.693-2.176-6.801-6.461-6.801c-1.557-0.022-3.055,0.592-4.149,1.7c-1.417,1.383-2.245,3.259-2.312,5.237V300h-6.393v-28.77
	h6.393v3.333c1.011-1.278,2.288-2.322,3.741-3.061c1.475-0.743,3.109-1.116,4.761-1.088
	C254.886,270.414,258.559,274.358,258.559,282.248z" />
</svg>