<svg version="1.1" xmlns="http://www.w3.org/2000/svg" xmlns:xlink="http://www.w3.org/1999/xlink" x="0px" y="0px"
    viewBox="0 0 300 300" style="enable-background:new 0 0 300 300;" xml:space="preserve">
    <path style="fill-rule:evenodd;clip-rule:evenodd;fill:#1976D2;" d="M152.108,107.247c13.252,0.037,23.986,10.771,24.023,24.023
	v56.987c0.006,4.185,1.647,8.201,4.573,11.193c15.495,15.793,15.254,41.157-0.539,56.653s-41.157,15.254-56.653-0.539
	c-15.287-15.581-15.287-40.533,0-56.114c2.926-2.991,4.567-7.008,4.573-11.193V131.27
	C128.085,118.002,138.84,107.247,152.108,107.247L152.108,107.247z M152.108,91.277c-22.087-0.038-40.023,17.837-40.061,39.925
	c0,0.023,0,0.046,0,0.068v56.987c-21.654,22.106-21.288,57.581,0.818,79.236s57.581,21.288,79.236-0.818
	c21.339-21.784,21.339-56.633,0-78.417V131.27C192.101,109.182,174.195,91.277,152.108,91.277
	C152.108,91.277,152.108,91.277,152.108,91.277z M160.093,213.508c7.671,4.429,10.299,14.238,5.87,21.909
	c-4.429,7.671-14.238,10.299-21.909,5.87c-7.671-4.429-10.299-14.238-5.87-21.909c1.408-2.438,3.432-4.463,5.87-5.87v-81.897
	c0.409-4.429,4.331-7.688,8.76-7.279c3.862,0.357,6.922,3.416,7.279,7.279V213.508z M-0.289,16h184.882v27.299H-0.289V16z
	 M-0.289,76.058h114.997v27.299H-0.289V76.058z M-0.289,136.115h92.407v27.299H-0.289V136.115z M-0.289,196.173h75.959v27.299
	H-0.289V196.173z M-0.289,256.231H87.75v27.299H-0.289V256.231z M192.101,76.058H300v27.299H192.101V76.058z M208.139,136.115H300
	v27.299h-91.861V136.115z M224.109,196.173H300v27.299h-75.891V196.173z M214.418,256.231H300v27.299h-85.582V256.231z M203.498,16
	H300v27.299h-96.502V16z" />
</svg>