<svg version="1.1" xmlns="http://www.w3.org/2000/svg" xmlns:xlink="http://www.w3.org/1999/xlink" x="0px" y="0px"
    viewBox="0 0 300 300" style="enable-background:new 0 0 300 300;" xml:space="preserve">
    <path style="fill:#1976D2;" d="M275.668,98.725l-18.48,27.795c18.103,36.106,16.861,78.89-3.305,113.886H45.643
	C12.492,182.895,32.239,109.398,89.75,76.246c34.964-20.154,77.708-21.417,113.8-3.363l27.795-18.48
	C161.495,9.612,68.56,29.927,23.769,99.778c-30.201,47.098-31.73,107.077-3.968,155.653c5.335,9.241,15.171,14.96,25.842,15.024
	h208.089c10.778,0.043,20.754-5.69,26.143-15.024c28.226-48.895,26.659-109.485-4.057-156.856L275.668,98.725z" />
    <path style="fill:#1976D2;"
        d="M128.579,201.493c11.728,11.741,30.754,11.752,42.496,0.024c0.008-0.008,0.016-0.016,0.024-0.024
	l85.039-127.558l-127.558,85.039c-11.741,11.728-11.752,30.754-0.024,42.496C128.563,201.477,128.571,201.485,128.579,201.493z" />
</svg>