<svg fill="#1976d2" viewBox="0 0 44 44" xmlns="http://www.w3.org/2000/svg" fill-rule="evenodd" clip-rule="evenodd" stroke-linejoin="round" stroke-miterlimit="2">
        <path
            d="M31.53,9.6,22.11,0,12.7,9.6h0a13.76,13.76,0,0,0,0,19.18,13.16,13.16,0,0,0,18.83,0A13.77,13.77,0,0,0,31.53,9.6ZM22.11,30.5h0a10.92,10.92,0,0,1-7.84-3.31,11.48,11.48,0,0,1,0-16h0l7.84-8,7.85,8a11.47,11.47,0,0,1,0,16A11,11,0,0,1,22.11,30.5Z"
        />
        <path
            d="M11,24.51s5.88,1.71,9.69-1.45S28.86,17.7,34,18.85c0,0-.72,7-3.71,9.89s-10.92,2.61-10.92,2.61l-6.7-3.91Z"
        />
        <path
            d="M9.5,40.34a1.68,1.68,0,0,1,.61-.54,1.52,1.52,0,0,1,.71-.15,1.45,1.45,0,0,1,1.09.44,1.58,1.58,0,0,1,.43,1.14V44H11.4V41.39a1,1,0,0,0-.21-.73,1,1,0,0,0-.7-.23.73.73,0,0,0-.58.26,1,1,0,0,0-.23.72V44H8.74V41.4c0-.65-.28-1-.83-1a.77.77,0,0,0-.65.31,1.12,1.12,0,0,0-.24.72V44H6.08V39.77H7v.43a1.55,1.55,0,0,1,1.14-.55A1.43,1.43,0,0,1,9.5,40.34Z"
        />
        <path
            d="M16.73,40.34a1.78,1.78,0,0,1,.62-.54,1.49,1.49,0,0,1,.71-.15,1.47,1.47,0,0,1,1.09.44,1.57,1.57,0,0,1,.42,1.14V44h-.93V41.39a1,1,0,0,0-.21-.73,1,1,0,0,0-.71-.23.71.71,0,0,0-.57.26,1,1,0,0,0-.24.72V44H16V41.4c0-.65-.28-1-.83-1a.77.77,0,0,0-.65.31,1.12,1.12,0,0,0-.25.72V44h-.93V39.77h.93v.43a1.58,1.58,0,0,1,1.15-.55A1.42,1.42,0,0,1,16.73,40.34Z"
        />
        <path d="M23.94,37.29,21.1,44h-.81l2.85-6.71Z" />
        <path
            d="M28.07,40.34a1.68,1.68,0,0,1,.61-.54,1.52,1.52,0,0,1,.71-.15,1.44,1.44,0,0,1,1.09.44,1.58,1.58,0,0,1,.43,1.14V44H30V41.39a1,1,0,0,0-.21-.73,1,1,0,0,0-.7-.23.73.73,0,0,0-.58.26,1,1,0,0,0-.23.72V44h-.94V41.4c0-.65-.27-1-.83-1a.79.79,0,0,0-.65.31,1.12,1.12,0,0,0-.24.72V44h-.94V39.77h.94v.43a1.55,1.55,0,0,1,1.14-.55A1.43,1.43,0,0,1,28.07,40.34Z"
        />
        <path
            d="M33,38.21a.61.61,0,0,1,.18.45.58.58,0,0,1-.19.45.68.68,0,0,1-.9,0,.63.63,0,0,1-.18-.45.61.61,0,0,1,.18-.45.64.64,0,0,1,.45-.17A.67.67,0,0,1,33,38.21Zm0,1.56V44h-.93V39.77Z"
        />
        <path
            d="M37.92,41.39V44H37V41.47c0-.69-.32-1-.95-1a.84.84,0,0,0-.61.25,1.13,1.13,0,0,0-.34.77V44h-.94V39.77h.94v.49a1.66,1.66,0,0,1,.55-.45,1.5,1.5,0,0,1,.7-.16C37.38,39.65,37.92,40.23,37.92,41.39Z"
        />
    </svg>
