<svg version="1.1" xmlns="http://www.w3.org/2000/svg" xmlns:xlink="http://www.w3.org/1999/xlink" x="0px" y="0px"
    viewBox="0 0 300 300" style="enable-background:new 0 0 300 300;" xml:space="preserve">
    <path style="fill-rule:evenodd;clip-rule:evenodd;fill:#1976D2;" d="M-0.248,256.198h75.062v27.295H-0.248V256.198z M-0.248,196.149
	h150.124v27.295H-0.248V196.149z M112.345,256.198h37.531v27.295h-37.531V256.198z M89.826,136.099h45.037v27.295H89.826
	L89.826,136.099z M-0.248,136.099H69.56v27.295H-0.248V136.099z M-0.248,76.05h30.025v27.295H-0.248V76.05z M300,103.345H106.681
	l-60.05-60.05h-46.88V16h58.207l60.05,60.05H300V103.345z" />
    <path style="fill-rule:evenodd;clip-rule:evenodd;fill:#1976D2;" d="M134.864,16H300v27.295H134.864V16z M253.462,182.638H300
	l-77.587,100.856v-69.808h-46.538l77.587-100.924C253.462,112.762,253.462,182.638,253.462,182.638z" />
</svg>