<svg fill="#1976d2" viewBox="0 0 44 44" xmlns="http://www.w3.org/2000/svg" fill-rule="evenodd" clip-rule="evenodd" stroke-linejoin="round" stroke-miterlimit="2">
        <path
            d="M22,34A12,12,0,1,1,34,22,12,12,0,0,1,22,34Zm0-4a8,8,0,1,0-8-8A8,8,0,0,0,22,30ZM20,0h4V6H20Zm0,38h4v6H20ZM5,7.86,7.86,5,12.1,9.27,9.27,12.1,5,7.86ZM31.9,34.73l2.83-2.83L39,36.14,36.14,39ZM36.14,5,39,7.86,34.73,12.1,31.9,9.27,36.14,5ZM9.27,31.9l2.83,2.83L7.86,39,5,36.14ZM44,20v4H38V20ZM6,20v4H0V20Z"
        />
    </svg>
