<svg version="1.1" xmlns="http://www.w3.org/2000/svg" xmlns:xlink="http://www.w3.org/1999/xlink" x="0px" y="0px"
    viewBox="0 0 300 300" style="enable-background:new 0 0 300 300;" xml:space="preserve">
    <path style="fill-rule:evenodd;clip-rule:evenodd;fill:#1976D2;" d="M150.115,231.818c-45.187,0-81.818-36.631-81.818-81.818
	s36.631-81.818,81.818-81.818s81.818,36.631,81.818,81.818S195.302,231.818,150.115,231.818z M150.115,204.545
	c30.125,0,54.545-24.421,54.545-54.545s-24.421-54.545-54.545-54.545S95.57,119.875,95.57,150S119.99,204.545,150.115,204.545z
	 M136.479,0h27.273v40.909h-27.273V0z M136.479,259.091h27.273V300h-27.273V259.091z M34.206,53.591l19.5-19.5l28.909,29.114
	L63.32,82.5L34.206,53.591z M217.615,236.795l19.295-19.295l29.114,28.909l-19.5,19.5L217.615,236.795z M246.524,34.091l19.5,19.5
	L236.911,82.5l-19.295-19.295L246.524,34.091z M63.32,217.5l19.295,19.295l-28.909,29.114l-19.5-19.5L63.32,217.5z M300.115,136.364
	v27.273h-40.909v-27.273H300.115z M41.024,136.364v27.273H0.115v-27.273H41.024z" />
</svg>