<svg version="1.1" xmlns="http://www.w3.org/2000/svg" xmlns:xlink="http://www.w3.org/1999/xlink" x="0px" y="0px"
    viewBox="0 0 300 300" style="enable-background:new 0 0 300 300;" xml:space="preserve">
    <path style="fill-rule:evenodd;clip-rule:evenodd;fill:#1976D2;" d="M245.876,164.159h-27.36c0-37.776-30.623-68.399-68.399-68.399
	s-68.399,30.623-68.399,68.399h-27.36c0-52.886,42.873-95.759,95.759-95.759S245.876,111.272,245.876,164.159z M136.436,0h27.36
	v41.04h-27.36V0z M-0.363,184.679h300.958v27.36H-0.363V184.679z M34.042,53.762l19.357-19.357l29.001,29.001L63.044,82.763
	C63.044,82.763,34.042,53.762,34.042,53.762z M246.833,34.405l19.357,19.357l-29.001,29.001l-19.357-19.357
	C217.832,63.406,246.833,34.405,246.833,34.405z M259.555,136.799v27.36h41.04v-27.36H259.555z M-0.363,136.799v27.36h41.04v-27.36
	H-0.363z M136.436,265.663h27.36V300h-27.36V265.663z M150.116,212.038l-30.985,53.625h61.97L150.116,212.038z" />
</svg>