<svg fill="#1976d2" viewBox="0 0 44 44" xmlns="http://www.w3.org/2000/svg" fill-rule="evenodd" clip-rule="evenodd" stroke-linejoin="round" stroke-miterlimit="2">
        <path
            d="M36 24.07h-4a10 10 0 0 0-20 0H8a14 14 0 0 1 28 0ZM20 .07h4v6h-4zM0 27.07h44v4H0zM5.03 7.93 7.86 5.1l4.24 4.24-2.83 2.83-4.24-4.24zM36.14 5.1l2.83 2.83-4.24 4.24-2.83-2.83 4.24-4.24zM38 20.07v4h6v-4h-6zM0 20.07v4h6v-4H0z"
        />
        <path d="M20 29.07h4v7.88h-4z" />
        <path d="m22 43.93 4.53-7.84h-9.06L22 43.93z" />
    </svg>
