<svg version="1.1" xmlns="http://www.w3.org/2000/svg" xmlns:xlink="http://www.w3.org/1999/xlink" x="0px" y="0px"
    viewBox="0 0 300 300" style="enable-background:new 0 0 300 300;" xml:space="preserve">
    <path style="fill-rule:evenodd;clip-rule:evenodd;fill:#1976D2;" d="M109.458,212.08v5.245c15.865,5.833,27.237,21.6,27.237,40.129
	c0,23.495-18.3,42.547-40.847,42.547S55,280.949,55,257.453c0-18.528,11.372-34.296,27.237-40.129v-5.261
	c-12.406-5.418-20.425-17.67-20.424-31.207V50.373c0-18.797,15.238-34.034,34.034-34.034s34.034,15.238,34.034,34.034v130.483
	c0,13.97-8.398,25.963-20.424,31.207V212.08z M198.783,91.498c-25.267,0-45.749-20.483-45.749-45.749S173.516,0,198.783,0
	s45.749,20.483,45.749,45.749S224.05,91.498,198.783,91.498z M198.783,61.271c9.024,0,16.339-7.315,16.339-16.339
	s-7.315-16.339-16.339-16.339c-9.024,0-16.339,7.315-16.339,16.339S189.759,61.271,198.783,61.271z" />
</svg>