<svg version="1.1" xmlns="http://www.w3.org/2000/svg" xmlns:xlink="http://www.w3.org/1999/xlink" x="0px" y="0px"
    viewBox="0 0 300 300" style="enable-background:new 0 0 300 300;" xml:space="preserve">
    <path style="fill-rule:evenodd;clip-rule:evenodd;fill:#1976D2;" d="M69.422,37.295c-2.384-5.829-0.562-12.533,4.444-16.355
	c5.955-4.551,14.648-3.502,18.132,1.102c1.173,1.12,1.173,1.12,1.422,1.511l42.771,56.032l-11.128,4.231
	c-7.059,2.687-13.643,6.486-19.501,11.253l-9.279,7.537L69.422,37.295z M150.111,79.213c-3.733,0-7.431,0.302-11.11,0.889
	l-11.804,1.884l1.6-11.839l7.786-58.059c0.231-1.28,0.231-1.28,0.213-1.013c1.214-5.797,5.965-10.191,11.839-10.95
	c7.379-0.989,14.222,4.025,15.501,11.359l0.107,0.676l9.013,69.916l-11.768-1.92C157.727,79.533,153.923,79.218,150.111,79.213z
	 M11.79,135.921l0.462-0.071l69.934-9.013l-1.92,11.768c-1.218,7.451-1.236,15.049-0.053,22.505l1.867,11.804l-11.822-1.6
	l-58.041-7.804c-6.284-0.823-11.222-5.783-12.017-12.07c-0.96-7.466,4.231-14.381,11.199-15.448
	C11.399,135.992,11.79,135.921,11.79,135.921z M216.294,124.953c-2.68-7.058-6.473-13.642-11.235-19.501l-7.555-9.279l11.075-4.551
	l54.326-22.328c5.823-2.317,12.475-0.479,16.283,4.498c4.551,5.991,3.538,14.524-1.849,18.897l-0.8,0.658l-56.014,42.753
	C220.525,136.099,216.294,124.952,216.294,124.953z M194.873,95.23c-5.843-4.789-12.415-8.612-19.466-11.324l-11.128-4.266
	l7.288-9.457l35.696-46.255c1.049-1.244,1.049-1.244,0.818-0.924c5.092-5.72,13.857-6.228,19.576-1.136
	c1.596,1.42,2.841,3.19,3.64,5.172c1.351,3.289,1.404,6.933,0.356,9.599l-0.373,1.067l-27.163,65.098
	C204.117,102.803,194.873,95.23,194.873,95.23z M19.559,76.315c2.88-6.88,10.862-10.311,17.261-7.84
	c0.302,0.071,0.302,0.071,0.978,0.356l65.098,27.163l-7.555,9.244c-4.78,5.839-8.597,12.404-11.306,19.448l-4.266,11.146
	l-55.89-43.109c-4.995-3.864-6.768-10.604-4.32-16.426L19.559,76.315z M276.308,207.277c0.96,0.8,0.96,0.8,0.782,0.711
	c4.393,3.957,5.811,10.256,3.538,15.715c-2.898,6.862-10.844,10.311-17.137,7.875c-0.427-0.107-0.427-0.107-1.102-0.391
	l-65.098-27.181l7.573-9.244c4.782-5.838,8.599-12.404,11.306-19.448l4.284-11.128C220.453,164.186,276.308,207.277,276.308,207.277
	z M299.987,148.56c0.942,7.502-4.249,14.381-11.199,15.466l-0.622,0.107l-70.129,9.031l1.92-11.768
	c1.213-7.451,1.231-15.048,0.053-22.505l-1.867-11.786l11.822,1.6l58.165,7.822c1.209,0.213,1.209,0.213,0.924,0.178
	C294.847,137.931,299.232,142.686,299.987,148.56z M230.764,262.704c0.427,1.209,0.427,1.209,0.302,0.942
	c1.855,5.651-0.071,11.858-4.8,15.466c-5.902,4.444-14.506,3.449-18.612-1.618c-0.391-0.409-0.391-0.409-0.889-1.031l-42.771-56.068
	l11.128-4.213c7.059-2.68,13.642-6.473,19.501-11.235l9.297-7.555L230.764,262.704z M83.928,175.03
	c2.684,7.057,6.489,13.635,11.253,19.501l7.537,9.279l-11.057,4.551l-54.29,22.31c-5.831,2.365-12.523,0.546-16.355-4.444
	c-2.249-2.935-3.235-6.646-2.738-10.311c0.48-3.538,2.258-6.737,4.035-8.035c0.8-0.818,0.8-0.818,1.333-1.227l56.05-42.771
	L83.928,175.03z M150.111,220.751c3.715,0,7.413-0.284,11.11-0.871l11.768-1.831l-1.582,11.804l-7.786,57.952l-0.213,1.102
	c-1.211,5.806-5.959,10.212-11.839,10.986c-0.853,0.089-0.853,0.089-1.795,0.107c-6.862,0-12.693-4.978-13.581-10.879
	c-0.178-0.764-0.178-0.764-0.249-1.28l-9.013-69.934l11.768,1.92C142.485,220.449,146.289,220.751,150.111,220.751z M68.818,262.562
	l0.107-0.267l27.163-65.116l9.244,7.573c5.84,4.779,12.405,8.596,19.448,11.306l11.128,4.284l-7.288,9.439l-35.767,46.379
	l-0.711,0.818c-3.97,4.396-10.276,5.82-15.75,3.555c-6.986-2.941-10.359-10.91-7.608-17.972L68.818,262.562z" />
    <path style="fill-rule:evenodd;clip-rule:evenodd;fill:#1976D2;" d="M149.613,192.38c23.671,0.01,42.868-19.17,42.879-42.841
	s-19.17-42.868-42.841-42.879c-0.013,0-0.025,0-0.038,0c-23.671,0-42.86,19.189-42.86,42.86S125.942,192.38,149.613,192.38z
	 M149.613,227.933c-43.306,0-78.413-35.107-78.413-78.413s35.107-78.413,78.413-78.413s78.413,35.107,78.413,78.413
	S192.92,227.933,149.613,227.933z" />
</svg>