<svg version="1.1" xmlns="http://www.w3.org/2000/svg" xmlns:xlink="http://www.w3.org/1999/xlink" x="0px" y="0px"
    viewBox="0 0 300 300" style="enable-background:new 0 0 300 300;" xml:space="preserve">
    <path style="fill-rule:evenodd;clip-rule:evenodd;fill:#1976D2;" d="M144.01,254.702c-17.919-1.498-32.842-7.461-50.76-16.421
	c-35.838-16.421-64.204-43.29-86.589-76.131c-7.48-11.955-8.959-23.892,0-37.336c23.882-34.33,55.245-62.716,94.059-80.616
	c32.832-14.932,67.181-14.932,100.042,0c40.294,17.919,71.647,46.285,94.05,83.612c4.475,7.471,7.442,19.407,2.977,25.399
	C266.445,209.924,221.648,262.192,144.01,254.702L144.01,254.702z M230.598,142.734c0-44.787-35.838-80.606-80.616-80.606
	c-43.299,0-80.625,37.336-80.625,80.606c0,44.806,35.838,82.133,80.625,82.133C194.751,224.857,230.598,187.54,230.598,142.734
	L230.598,142.734z" />
    <path style="fill-rule:evenodd;clip-rule:evenodd;fill:#1976D2;" d="M232.286,142.298c0,46.485-37.174,85.185-83.649,83.649
	c-46.475,0-83.649-38.71-83.649-85.176c0-43.375,38.71-82.104,83.649-82.104C195.121,58.658,233.841,95.813,232.286,142.298
	L232.286,142.298z M150.201,97.387c-24.792,0-44.911,20.137-44.911,44.911c0,26.328,20.137,46.485,44.911,46.485
	c24.783,0,46.466-21.692,46.466-46.485C195.13,117.515,174.993,97.387,150.201,97.387L150.201,97.387z" />
</svg>