<svg version="1.1" xmlns="http://www.w3.org/2000/svg" xmlns:xlink="http://www.w3.org/1999/xlink" x="0px" y="0px"
    viewBox="0 0 300 300" style="enable-background:new 0 0 300 300;" xml:space="preserve">
    <g id="&#x56FE;&#x5C42;_2_00000109032104842377806100000001007215560087867535_">
        <g id="&#x56FE;&#x5C42;_1-2">
            <path style="fill:#1976D2;"
                d="M0,96.962h25.559l25.372,81.239h0.937l26.309-81.239h24.059L65.116,202.51H36.37L0,96.962z" />
            <path style="fill:#1976D2;" d="M115.922,96.962h36.058c6.663-0.134,13.317,0.559,19.81,2.062c4.714,1.014,9.11,3.159,12.811,6.249
			c3.249,3.012,5.606,6.861,6.812,11.124c1.579,5.334,2.358,10.873,2.312,16.435c0.141,5.892-0.617,11.772-2.25,17.435
			c-1.357,4.421-3.884,8.394-7.312,11.498c-3.739,3.104-8.18,5.249-12.936,6.249c-6.158,1.331-12.448,1.96-18.748,1.875h-13.436
			v32.558h-23.122V96.962z M148.918,151.392c3.31,0.066,6.619-0.206,9.874-0.812c2.28-0.488,4.418-1.493,6.249-2.937
			c1.728-1.47,3.006-3.398,3.687-5.562c0.766-2.851,1.123-5.797,1.062-8.749c0.05-2.89-0.308-5.772-1.062-8.561
			c-0.63-2.175-1.865-4.125-3.562-5.624c-1.914-1.512-4.165-2.541-6.562-3c-3.225-0.681-6.516-0.996-9.811-0.937h-9.749v36.183
			H148.918z" />
            <path style="fill:#1976D2;" d="M248.53,96.962c7.073-0.067,14.134,0.625,21.06,2.062c6.002,1.207,11.608,3.892,16.31,7.811
			c4.833,4.366,8.432,9.926,10.436,16.123c2.682,8.674,3.907,17.734,3.625,26.809c0.251,8.623-0.974,17.225-3.625,25.434
			c-2.081,6.196-5.667,11.779-10.436,16.248c-4.682,4.105-10.272,7.04-16.31,8.561c-6.881,1.75-13.961,2.59-21.06,2.5h-36.058
			V96.962H248.53z M247.342,182.763c4.219,0.066,8.426-0.46,12.498-1.562c3.442-0.882,6.563-2.724,8.999-5.312
			c2.641-2.893,4.53-6.391,5.499-10.186c1.258-5.216,1.846-10.571,1.75-15.935c0.127-5.617-0.482-11.227-1.812-16.685
			c-1.004-3.795-2.913-7.29-5.562-10.186c-2.442-2.509-5.537-4.284-8.936-5.124c-4.101-0.924-8.295-1.364-12.498-1.312h-11.873
			v66.304H247.342z" />
        </g>
    </g>
</svg>