<svg version="1.1" xmlns="http://www.w3.org/2000/svg" xmlns:xlink="http://www.w3.org/1999/xlink" x="0px" y="0px"
    viewBox="0 0 300 300" style="enable-background:new 0 0 300 300;" xml:space="preserve">
    <g>
        <path style="fill:#1976D2;" d="M260.285,6.011c-1.636,4.427,3.833,7.525,6.827,4.543c-0.647,0.652-2.843,2.841-3.526,3.526
		c-27.448,27.458-64.752,64.745-92.31,92.31c-0.554,0.576-2.723,2.718-3.24,3.229c-8.454,8.464-22.949,8.661-31.542,0.321
		C114.34,87.905,73.24,46.677,51.117,24.592c0,0-10.256-10.257-10.256-10.257s-2.564-2.564-2.564-2.564s-1.16-1.161-1.16-1.161
		c2.486,2.412,6.916,0.676,7.053-2.825c0.02-0.427-0.011-0.824-0.098-1.188c-0.085-0.389-0.24-0.722-0.148-0.497
		c0.612,1.602,1.842,4.667,2.482,6.33c31.807,81.099,76.755,195.772,108.54,276.821c0,0,0.662,1.688,0.662,1.688
		s0.331,0.844,0.331,0.844c-1.54-3.608-6.458-3.086-7.688-0.088c0,0,0.165-0.422,0.165-0.422s0.662-1.688,0.662-1.688
		C167.03,243.828,241.033,55.128,260.285,6.011L260.285,6.011z M269.595,9.661c-19.693,50.227-92.797,236.67-111.187,283.573
		c0,0-0.662,1.688-0.662,1.688s-0.165,0.422-0.165,0.422c-0.9,2.686-3.966,4.438-6.734,3.749c-1.761-0.194-3.717-2.122-4.198-3.661
		c0,0-0.331-0.844-0.331-0.844s-0.662-1.688-0.662-1.688c-1.471-3.86-11.488-29.223-13.237-33.759
		C105.392,190.063,62.078,79.849,35.131,11.016c0,0-0.331-0.844-0.331-0.844S34.635,9.75,34.635,9.75
		C32.343,4.154,39.3-0.972,43.962,3.3c9.422,9.404,45.165,45.17,55.244,55.246c0,0,41.019,41.026,41.019,41.026
		c0.752,0.74,2.834,2.883,3.602,3.519c4.623,4.088,12.192,3.992,16.721-0.18c0.832-0.698,2.863-2.823,3.668-3.601
		c27.587-27.591,64.806-64.804,92.3-92.3c0,0,2.564-2.564,2.564-2.564s0.641-0.641,0.641-0.641s0.32-0.32,0.32-0.32
		C264.282-0.894,271.899,3.656,269.595,9.661L269.595,9.661z" />
    </g>
</svg>