<svg version="1.1" xmlns="http://www.w3.org/2000/svg" xmlns:xlink="http://www.w3.org/1999/xlink" x="0px" y="0px"
    viewBox="0 0 300 300" style="enable-background:new 0 0 300 300;" xml:space="preserve">
    <g>
        <g>
            <path style="fill:#1976D2;" d="M57.905,86.358c17.932,0.001,63.204,0,80.503,0c3.066,0.012,6.544-0.003,9.522-0.668
			c16.315-3.234,24.918-25.073,13.395-37.812c-8.163-9.464-24.869-11.416-34.702-2.946c-4.285,3.484-10.584,2.834-14.067-1.452
			c-3.484-4.285-2.85-10.571,1.436-14.055c4.432-3.618,9.642-6.452,15.252-8.101c16.518-4.822,35.693,0.26,47.125,13.374
			c16.368,18.087,12.209,47.36-6.542,62.191c-6.838,5.448-15.264,8.561-23.878,9.263c-1.862,0.119-5.69,0.255-7.541,0.206
			c-17.124,0.005-62.824-0.003-80.503,0C44.681,105.848,44.604,86.901,57.905,86.358L57.905,86.358z" />
            <path style="fill:#1976D2;"
                d="M10.957,133.306c38.2,0.004,206.327-0.003,240.864,0c2.319,0.008,4.959-0.015,7.228-0.442
			c11.435-1.516,19.923-12.308,20.042-23.736c0.229-8.297-4.807-15.863-12.247-19.713c-10.423-5.209-23.527-3.526-31.12,5.775
			c-3.582,4.203-9.894,4.707-14.097,1.125c-4.204-3.582-4.71-9.891-1.128-14.094c3.284-3.857,7.196-7.173,11.616-9.789
			c22.406-13.407,54.978-3.28,64.276,21.706c9.648,25.044-7.405,54.57-34.024,58.449c-2.484,0.52-5.777,0.612-8.316,0.719
			c-1.65-0.025-49.846,0.018-52.782,0c0,0-190.312,0-190.312,0C-2.169,152.836-2.445,133.901,10.957,133.306L10.957,133.306z" />
            <path style="fill:#1976D2;" d="M57.905,191.678c0,0,141.787,0,141.787,0c1.892-0.003,5.097-0.036,7.011,0.082
			c3.629,0.113,7.554,0.665,11.053,1.68c7.383,1.968,14.319,6.144,19.577,11.703c1.191,1.08,2.664,3.146,3.703,4.386
			c0.89,1.354,2.312,3.383,3.023,4.823c17.293,31.959-6.792,66.152-42.205,64.058c-11.497-0.722-22.548-6.241-30.078-14.952
			c-8.329-10.346,5.945-22.795,15.062-13.157c4.434,5.157,11.12,8.226,17.919,8.214c1.562-0.071,3.439-0.127,4.974-0.421
			c4.348-0.626,8.27-2.455,11.583-4.934c3.167-2.509,5.798-5.875,7.166-9.691c1.095-2.767,1.45-5.853,1.231-8.819
			c-0.269-3.978-1.573-7.901-3.541-11.365c-0.285-0.425-1.015-1.538-1.299-1.98c-0.32-0.384-1.173-1.439-1.47-1.826
			c-0.364-0.355-1.269-1.276-1.628-1.653c-0.379-0.299-1.417-1.157-1.774-1.467c-0.995-0.659-2.18-1.489-3.271-1.978
			c-1.785-1-3.881-1.569-5.865-2.094c-3.427-0.691-7.62-0.621-11.17-0.607c0,0-141.787,0-141.787,0
			C44.743,211.196,44.54,192.254,57.905,191.678L57.905,191.678z" />
        </g>
    </g>
</svg>